<svg width="24" height="24" viewBox="0 0 24 24" fill="none" xmlns="http://www.w3.org/2000/svg">
<mask id="mask0_3306_5716" style="mask-type:alpha" maskUnits="userSpaceOnUse" x="0" y="0" width="24" height="24">
<rect width="24" height="24" fill="#D9D9D9"/>
</mask>
<g mask="url(#mask0_3306_5716)">
<path d="M7.85 13.823C8.29483 14.2678 8.84108 14.4902 9.48875 14.4902C10.1363 14.4902 10.6836 14.2678 11.1308 13.823L14.8215 10.1325C15.2673 9.6865 15.4902 9.13967 15.4902 8.492C15.4902 7.8445 15.2678 7.29717 14.823 6.85C14.3758 6.40517 13.8285 6.18275 13.181 6.18275C12.5333 6.18275 11.9871 6.40517 11.5423 6.85C10.9769 6.64617 10.4167 6.59942 9.8615 6.70975C9.30633 6.81992 8.8365 7.06733 8.452 7.452C8.06733 7.8365 7.81992 8.30633 7.70975 8.8615C7.59942 9.41667 7.64617 9.97692 7.85 10.5423C7.40517 10.9894 7.18275 11.5367 7.18275 12.1842C7.18275 12.8319 7.40517 13.3782 7.85 13.823ZM6.5 21.5V17.4693C5.55 16.6026 4.8125 15.6093 4.2875 14.4895C3.7625 13.3695 3.5 12.204 3.5 10.993C3.5 8.63383 4.32642 6.62858 5.97925 4.97725C7.63192 3.32575 9.63883 2.5 12 2.5C13.9423 2.5 15.6792 3.0805 17.2105 4.2415C18.742 5.40233 19.7366 6.90842 20.1943 8.75975L21.3625 13.3743C21.4375 13.6594 21.3846 13.9183 21.2038 14.151C21.0231 14.3837 20.7821 14.5 20.4807 14.5H18.5V17.6923C18.5 18.1894 18.323 18.615 17.969 18.969C17.615 19.323 17.1894 19.5 16.6923 19.5H14.5V21.5H13V18H16.6923C16.7821 18 16.8558 17.9712 16.9135 17.9135C16.9712 17.8558 17 17.7821 17 17.6923V13H19.7L18.75 9.125C18.3667 7.602 17.5468 6.36708 16.2905 5.42025C15.034 4.47342 13.6038 4 12 4C10.0667 4 8.41667 4.67592 7.05 6.02775C5.68333 7.37958 5 9.0235 5 10.9595C5 11.958 5.20417 12.9065 5.6125 13.805C6.02083 14.7035 6.6 15.5022 7.35 16.201L8 16.8V21.5H6.5Z" fill="#666666"/>
</g>
</svg>
