<svg width="24" height="24" viewBox="0 0 24 24" fill="none" xmlns="http://www.w3.org/2000/svg">
<mask id="mask0_3306_5707" style="mask-type:alpha" maskUnits="userSpaceOnUse" x="0" y="0" width="24" height="24">
<rect width="24" height="24" fill="#D9D9D9"/>
</mask>
<g mask="url(#mask0_3306_5707)">
<path d="M17.95 15.8192L15.4557 13.35L16.525 12.2962L17.95 13.7057L21.475 10.1807L22.5443 11.225L17.95 15.8192ZM11 20.3267L8.83475 18.3807C7.47442 17.1436 6.32667 16.0615 5.3915 15.1345C4.45617 14.2076 3.69975 13.3612 3.12225 12.5952C2.54458 11.8292 2.12983 11.109 1.878 10.4345C1.626 9.76015 1.5 9.06531 1.5 8.34998C1.5 6.93081 1.9785 5.74523 2.9355 4.79323C3.89267 3.84139 5.08083 3.36548 6.5 3.36548C7.373 3.36548 8.198 3.56965 8.975 3.97798C9.752 4.38631 10.427 4.9719 11 5.73473C11.573 4.9719 12.248 4.38631 13.025 3.97798C13.802 3.56965 14.627 3.36548 15.5 3.36548C16.7538 3.36548 17.8118 3.73498 18.674 4.47398C19.5362 5.21315 20.0955 6.13848 20.352 7.24998H18.775C18.5455 6.50648 18.1262 5.92315 17.5173 5.49998C16.9082 5.07681 16.2358 4.86523 15.5 4.86523C14.6692 4.86523 13.9342 5.0944 13.2952 5.55273C12.6561 6.01106 12.0538 6.66015 11.4885 7.49998H10.5115C9.95 6.65381 9.3385 6.00314 8.677 5.54798C8.01533 5.09281 7.28967 4.86523 6.5 4.86523C5.53717 4.86523 4.71317 5.19606 4.028 5.85773C3.34267 6.51923 3 7.34998 3 8.34998C3 8.90631 3.11667 9.47106 3.35 10.0442C3.58333 10.6172 4 11.2778 4.6 12.026C5.2 12.774 6.01667 13.6502 7.05 14.6547C8.08333 15.6592 9.4 16.8743 11 18.3C11.4718 17.8781 11.977 17.4301 12.5155 16.9557C13.0538 16.4814 13.5077 16.068 13.877 15.7155L14.946 16.7845C14.5667 17.1371 14.1145 17.5449 13.5895 18.0077C13.0645 18.4706 12.5693 18.9128 12.1038 19.3345L11 20.3267Z" fill="#666666"/>
</g>
</svg>
