<svg width="24" height="24" viewBox="0 0 24 24" fill="none" xmlns="http://www.w3.org/2000/svg">
<mask id="mask0_3306_5741" style="mask-type:alpha" maskUnits="userSpaceOnUse" x="0" y="0" width="24" height="24">
<rect width="24" height="24" fill="#D9D9D9"/>
</mask>
<g mask="url(#mask0_3306_5741)">
<path d="M5.16925 18.4749C4.55642 17.7134 4.08333 16.8705 3.75 15.9462C3.41667 15.0217 3.25 14.0396 3.25 12.9999C3.25 10.5641 4.09933 8.49678 5.798 6.79794C7.49683 5.09928 9.56417 4.24994 12 4.24994H12.8057L10.9463 2.39044L11.9905 1.34619L15.6443 4.99994L11.9905 8.65369L10.9213 7.58444L12.7558 5.74994H12C9.99617 5.74994 8.28683 6.45728 6.872 7.87194C5.45733 9.28678 4.75 10.9961 4.75 12.9999C4.75 13.8371 4.88108 14.6291 5.14325 15.3759C5.40542 16.1228 5.77367 16.7994 6.248 17.4057L5.16925 18.4749ZM11.1348 18.3462C11.1026 17.905 10.9622 17.4954 10.7135 17.1172C10.4648 16.739 10.1949 16.3586 9.90375 15.9759C9.61275 15.5933 9.35092 15.1971 9.11825 14.7874C8.88558 14.3778 8.76925 13.9294 8.76925 13.4422C8.76925 12.5525 9.08525 11.7917 9.71725 11.1597C10.3494 10.5275 11.1103 10.2114 12 10.2114C12.8897 10.2114 13.6506 10.5275 14.2828 11.1597C14.9148 11.7917 15.2308 12.5525 15.2308 13.4422C15.2308 13.9294 15.1144 14.3762 14.8818 14.7827C14.6491 15.189 14.3872 15.5852 14.0962 15.9712C13.8051 16.357 13.5352 16.739 13.2865 17.1172C13.0378 17.4954 12.8974 17.905 12.8652 18.3462H11.1348ZM11.1537 20.8462V19.5384H12.8462V20.8462H11.1537ZM18.8307 18.4749L17.752 17.4057C18.2263 16.7994 18.5946 16.1228 18.8568 15.3759C19.1189 14.6291 19.25 13.8371 19.25 12.9999C19.25 11.9128 19.0321 10.8999 18.5962 9.96144C18.1602 9.02294 17.5583 8.22428 16.7905 7.56544L17.8595 6.49619C18.7557 7.30386 19.4615 8.26311 19.977 9.37394C20.4923 10.4849 20.75 11.6936 20.75 12.9999C20.75 14.0396 20.5833 15.0217 20.25 15.9462C19.9167 16.8705 19.4436 17.7134 18.8307 18.4749Z" fill="#666666"/>
</g>
</svg>
