<svg width="24" height="28" viewBox="0 0 24 28" fill="none" xmlns="http://www.w3.org/2000/svg">
<path d="M11.9992 19.6564C11.3775 19.6564 10.8743 19.1021 10.8743 18.419C10.8743 16.8202 11.8882 15.3592 13.8059 14.1969C15.2345 13.3307 15.974 11.614 15.6883 9.82381C15.4243 8.17142 14.1906 6.81437 12.6884 6.52399C11.6047 6.31445 10.5398 6.59989 9.68785 7.3275C8.85165 8.04273 8.32593 9.1127 8.24643 10.2635C8.19919 10.9441 7.65772 11.4556 7.03975 11.4036C6.42029 11.3516 5.95606 10.7577 6.00331 10.0762C6.1308 8.23082 6.97076 6.51657 8.30793 5.374C9.66685 4.21164 11.361 3.75544 13.0769 4.08625C15.4948 4.55318 17.4799 6.73683 17.9044 9.39648C18.3521 12.2005 17.1409 15.0012 14.8918 16.3649C13.7849 17.0356 13.1242 17.8036 13.1242 18.419C13.1242 19.1021 12.6209 19.6564 11.9992 19.6564ZM10.8743 22.5438C10.8743 23.2268 11.3783 23.7812 11.9992 23.7812C12.6202 23.7812 13.1242 23.2268 13.1242 22.5438C13.1242 21.8607 12.6202 21.3063 11.9992 21.3063C11.3783 21.3063 10.8743 21.8607 10.8743 22.5438Z" fill="#54D2C7"/>
</svg>
