<svg width="57" height="56" viewBox="0 0 57 56" fill="none" xmlns="http://www.w3.org/2000/svg">
<g id="material-symbols:handshake-outline">
<path id="Vector" d="M28.2083 46.6665C28.3639 46.6665 28.5194 46.6276 28.675 46.5498C28.8306 46.4721 28.9472 46.3943 29.025 46.3165L48.1583 27.1832C48.625 26.7165 48.9657 26.1915 49.1803 25.6082C49.395 25.0248 49.5016 24.4415 49.5 23.8582C49.5 23.236 49.3934 22.6425 49.1803 22.0778C48.9672 21.5132 48.6265 21.0177 48.1583 20.5915L38.2417 10.6748C37.8139 10.2082 37.3177 9.86828 36.753 9.65517C36.1883 9.44206 35.5964 9.33473 34.9773 9.33317C34.394 9.33317 33.8107 9.4405 33.2273 9.65517C32.644 9.86984 32.119 10.2097 31.6523 10.6748L31.0107 11.3165L35.3273 15.6915C35.9107 16.2359 36.3384 16.8582 36.6107 17.5582C36.8829 18.2582 37.019 18.9971 37.019 19.7748C37.019 21.4082 36.4652 22.7794 35.3577 23.8885C34.2501 24.9976 32.8789 25.5514 31.244 25.5498C30.4662 25.5498 29.718 25.4137 28.9993 25.1415C28.2807 24.8693 27.6483 24.4609 27.1023 23.9165L22.725 19.5998L12.5167 29.8082C12.4 29.9248 12.3129 30.0516 12.2553 30.1885C12.1978 30.3254 12.1682 30.4708 12.1667 30.6248C12.1667 30.9359 12.2833 31.2183 12.5167 31.4718C12.75 31.7254 13.0222 31.8514 13.3333 31.8498C13.4889 31.8498 13.6444 31.811 13.8 31.7332C13.9556 31.6554 14.0722 31.5776 14.15 31.4998L22.0833 23.5665L25.35 26.8332L17.475 34.7665C17.3583 34.8832 17.2712 35.01 17.2137 35.1468C17.1561 35.2837 17.1266 35.4292 17.125 35.5832C17.125 35.8943 17.2417 36.1665 17.475 36.3998C17.7083 36.6332 17.9806 36.7498 18.2917 36.7498C18.4472 36.7498 18.6028 36.7109 18.7583 36.6332C18.9139 36.5554 19.0306 36.4776 19.1083 36.3998L27.0417 28.5248L30.3083 31.7915L22.4333 39.7248C22.3167 39.8026 22.2296 39.9193 22.172 40.0748C22.1144 40.2304 22.0849 40.386 22.0833 40.5415C22.0833 40.8526 22.2 41.1248 22.4333 41.3582C22.6667 41.5915 22.9389 41.7082 23.25 41.7082C23.4056 41.7082 23.5518 41.6786 23.6887 41.6195C23.8256 41.5604 23.9516 41.4733 24.0667 41.3582L32 33.4832L35.2667 36.7498L27.3333 44.6832C27.2167 44.7998 27.1296 44.9258 27.072 45.0612C27.0144 45.1965 26.9849 45.3427 26.9833 45.4998C26.9833 45.811 27.1101 46.0832 27.3637 46.3165C27.6172 46.5498 27.8988 46.6665 28.2083 46.6665ZM28.15 51.3332C26.7111 51.3332 25.4379 50.8572 24.3303 49.9052C23.2228 48.9532 22.571 47.757 22.375 46.3165C21.0528 46.1221 19.9444 45.5776 19.05 44.6832C18.1556 43.7887 17.6111 42.6804 17.4167 41.3582C16.0944 41.1637 14.9962 40.61 14.122 39.6968C13.2478 38.7837 12.7127 37.6847 12.5167 36.3998C11.0389 36.2054 9.83333 35.5637 8.9 34.4748C7.96666 33.386 7.5 32.1026 7.5 30.6248C7.5 29.8471 7.64622 29.0988 7.93866 28.3802C8.23111 27.6615 8.64878 27.0292 9.19166 26.4832L22.725 13.0082L30.3667 20.6498C30.4444 20.7665 30.5611 20.8544 30.7167 20.9135C30.8722 20.9726 31.0278 21.0014 31.1833 20.9998C31.5333 20.9998 31.825 20.8933 32.0583 20.6802C32.2917 20.4671 32.4083 20.1847 32.4083 19.8332C32.4083 19.6776 32.3788 19.5221 32.3197 19.3665C32.2606 19.2109 32.1734 19.0943 32.0583 19.0165L23.7167 10.6748C23.2889 10.2082 22.7934 9.86828 22.2303 9.65517C21.6672 9.44206 21.0738 9.33473 20.45 9.33317C19.8667 9.33317 19.2833 9.4405 18.7 9.65517C18.1167 9.86984 17.5917 10.2097 17.125 10.6748L8.9 18.9582C8.55 19.3082 8.25833 19.7165 8.025 20.1832C7.79166 20.6498 7.63611 21.1165 7.55833 21.5832C7.48055 22.0498 7.48055 22.5266 7.55833 23.0135C7.63611 23.5004 7.79166 23.9569 8.025 24.3832L4.64166 27.7665C3.98055 26.8721 3.49444 25.8905 3.18333 24.8218C2.87222 23.7532 2.75555 22.6736 2.83333 21.5832C2.91111 20.4927 3.18333 19.4334 3.65 18.4052C4.11666 17.3769 4.75833 16.4529 5.575 15.6332L13.8 7.40817C14.7333 6.51373 15.774 5.83317 16.922 5.3665C18.07 4.89984 19.246 4.6665 20.45 4.6665C21.654 4.6665 22.8308 4.89984 23.9803 5.3665C25.1299 5.83317 26.1503 6.51373 27.0417 7.40817L27.6833 8.04984L28.325 7.40817C29.2583 6.51373 30.299 5.83317 31.447 5.3665C32.595 4.89984 33.771 4.6665 34.975 4.6665C36.179 4.6665 37.3558 4.89984 38.5053 5.3665C39.6549 5.83317 40.6753 6.51373 41.5667 7.40817L51.425 17.2665C52.3194 18.1609 53 19.1915 53.4667 20.3582C53.9333 21.5248 54.1667 22.7109 54.1667 23.9165C54.1667 25.1221 53.9333 26.2988 53.4667 27.4468C53 28.5948 52.3194 29.6153 51.425 30.5082L32.2917 49.5832C31.7472 50.1276 31.1157 50.5554 30.397 50.8665C29.6783 51.1776 28.9293 51.3332 28.15 51.3332Z" fill="#6F5EA5"/>
</g>
</svg>
