<svg width="60" height="60" viewBox="0 0 60 60" fill="none" xmlns="http://www.w3.org/2000/svg">
<g id="icon-park-solid:personal-collection">
<g id="Group">
<path id="Vector" d="M30 22.5C34.8325 22.5 38.75 18.5825 38.75 13.75C38.75 8.91751 34.8325 5 30 5C25.1675 5 21.25 8.91751 21.25 13.75C21.25 18.5825 25.1675 22.5 30 22.5Z" fill="#6F5EA5" stroke="#6F5EA5" stroke-width="2" stroke-linecap="round" stroke-linejoin="round"/>
<path id="Vector_2" d="M5 51.25C5 40.2038 15.0738 31.25 27.5 31.25" stroke="#6F5EA5" stroke-width="2" stroke-linecap="round" stroke-linejoin="round"/>
<path id="Vector_3" d="M39.8125 35C37.155 35 35 37.5113 35 40.6075C35 46.2163 40.6875 51.3137 43.75 52.5C46.8125 51.3137 52.5 46.2163 52.5 40.6075C52.5 37.5125 50.345 35 47.6875 35C46.06 35 44.6213 35.9413 43.75 37.3825C42.8787 35.9413 41.44 35 39.8125 35Z" fill="#6F5EA5" stroke="#6F5EA5" stroke-width="2" stroke-linecap="round" stroke-linejoin="round"/>
</g>
</g>
</svg>
