<svg width="57" height="56" viewBox="0 0 57 56" fill="none" xmlns="http://www.w3.org/2000/svg">
<g id="streamline:ecology-science-dna-biology-experiment-lab-science" clip-path="url(#clip0_373_288)">
<g id="Group">
<path id="Vector" d="M40.9 15.6C45.2201 17.4461 50.0788 17.589 54.5 16M16.5 54C18.0876 49.565 17.9447 44.6944 16.1 40.36C14.6561 36.9088 14.2654 33.1076 14.9772 29.4348C15.689 25.7621 17.4714 22.382 20.1 19.72C22.7947 17.0532 26.2185 15.2438 29.94 14.52" stroke="#6F5EA5" stroke-width="4" stroke-linecap="round" stroke-linejoin="round"/>
<path id="Vector_2" d="M26.9 41.48C30.6403 40.7524 34.0796 38.9284 36.78 36.24M36.78 36.24C39.4132 33.5809 41.1988 30.2007 41.9108 26.5267C42.6228 22.8528 42.2293 19.0503 40.78 15.6C38.9729 11.2646 38.8728 6.40608 40.5 2M36.78 36.24L20.26 19.72M2.5 40C6.92301 38.4035 11.7894 38.5609 16.1 40.44" stroke="#6F5EA5" stroke-width="4" stroke-linecap="round" stroke-linejoin="round"/>
</g>
</g>
<defs>
<clipPath id="clip0_373_288">
<rect width="56" height="56" fill="white" transform="translate(0.5)"/>
</clipPath>
</defs>
</svg>
