<svg width="57" height="56" viewBox="0 0 57 56" fill="none" xmlns="http://www.w3.org/2000/svg">
<g id="ic:outline-insights">
<path id="Vector" d="M49.5 18.6665C46.1166 18.6665 44.2266 22.0265 44.9966 24.5232L36.7133 32.8298C36.0133 32.6198 34.9866 32.6198 34.2866 32.8298L28.3366 26.8798C29.13 24.3832 27.24 20.9998 23.8333 20.9998C20.45 20.9998 18.5366 24.3598 19.33 26.8798L8.68998 37.4965C6.19331 36.7265 2.83331 38.6165 2.83331 41.9998C2.83331 44.5665 4.93331 46.6665 7.49998 46.6665C10.8833 46.6665 12.7733 43.3065 12.0033 40.8098L22.62 30.1698C23.32 30.3798 24.3466 30.3798 25.0466 30.1698L30.9966 36.1198C30.2033 38.6165 32.0933 41.9998 35.5 41.9998C38.8833 41.9998 40.7966 38.6398 40.0033 36.1198L48.31 27.8365C50.8066 28.6065 54.1666 26.7165 54.1666 23.3332C54.1666 20.7665 52.0666 18.6665 49.5 18.6665Z" fill="#6F5EA5"/>
<path id="Vector_2" d="M35.5 21L37.6933 16.17L42.5 14L37.6933 11.83L35.5 7L33.3533 11.83L28.5 14L33.3533 16.17L35.5 21ZM8.66665 25.6667L9.83331 21L14.5 19.8333L9.83331 18.6667L8.66665 14L7.49998 18.6667L2.83331 19.8333L7.49998 21L8.66665 25.6667Z" fill="#6F5EA5"/>
</g>
</svg>
