<svg width="49" height="49" viewBox="0 0 49 49" fill="none" xmlns="http://www.w3.org/2000/svg">
<mask id="mask0_2907_68689" style="mask-type:alpha" maskUnits="userSpaceOnUse" x="0" y="0" width="49" height="49">
<rect width="49" height="49" fill="#D9D9D9"/>
</mask>
<g mask="url(#mask0_2907_68689)">
<path d="M16.3337 38.7917H32.667V34.7084H16.3337V38.7917ZM16.3337 32.6667H32.667V28.5834H16.3337V32.6667ZM24.5003 25.1125C26.7462 23.0709 28.6687 21.2589 30.268 19.6766C31.8673 18.0943 32.667 16.4355 32.667 14.7C32.667 13.475 32.2246 12.4202 31.3399 11.5355C30.4552 10.6507 29.4003 10.2084 28.1753 10.2084C27.4607 10.2084 26.7717 10.353 26.1081 10.6422C25.4446 10.9315 24.9087 11.3313 24.5003 11.8417C24.092 11.3313 23.5561 10.9315 22.8925 10.6422C22.229 10.353 21.5399 10.2084 20.8253 10.2084C19.6003 10.2084 18.5455 10.6507 17.6607 11.5355C16.776 12.4202 16.3337 13.475 16.3337 14.7C16.3337 16.4355 17.1078 18.0688 18.6561 19.6C20.2043 21.1313 22.1524 22.9688 24.5003 25.1125ZM36.7503 44.9167H12.2503C11.1274 44.9167 10.1661 44.5169 9.36647 43.7172C8.56682 42.9176 8.16699 41.9563 8.16699 40.8334V8.16671C8.16699 7.04379 8.56682 6.08251 9.36647 5.28285C10.1661 4.4832 11.1274 4.08337 12.2503 4.08337H36.7503C37.8732 4.08337 38.8345 4.4832 39.6342 5.28285C40.4338 6.08251 40.8337 7.04379 40.8337 8.16671V40.8334C40.8337 41.9563 40.4338 42.9176 39.6342 43.7172C38.8345 44.5169 37.8732 44.9167 36.7503 44.9167ZM12.2503 40.8334H36.7503V8.16671H12.2503V40.8334Z" fill="#006B5F"/>
</g>
</svg>
