<svg width="49" height="49" viewBox="0 0 49 49" fill="none" xmlns="http://www.w3.org/2000/svg">
<mask id="mask0_2907_67798" style="mask-type:alpha" maskUnits="userSpaceOnUse" x="0" y="0" width="49" height="49">
<rect width="49" height="49" fill="#D9D9D9"/>
</mask>
<g mask="url(#mask0_2907_67798)">
<path d="M24.4997 44.9167C21.6754 44.9167 19.0212 44.3808 16.5372 43.3089C14.0531 42.237 11.8924 40.7823 10.0549 38.9448C8.21738 37.1073 6.7627 34.9466 5.69082 32.4625C4.61895 29.9785 4.08301 27.3243 4.08301 24.5C4.08301 21.6757 4.61895 19.0216 5.69082 16.5375C6.7627 14.0535 8.21738 11.8927 10.0549 10.0552C11.8924 8.21775 14.0531 6.76306 16.5372 5.69119C19.0212 4.61931 21.6754 4.08337 24.4997 4.08337C27.324 4.08337 29.9781 4.61931 32.4622 5.69119C34.9462 6.76306 37.107 8.21775 38.9445 10.0552C40.782 11.8927 42.2366 14.0535 43.3085 16.5375C44.3804 19.0216 44.9163 21.6757 44.9163 24.5C44.9163 27.3243 44.3804 29.9785 43.3085 32.4625C42.2366 34.9466 40.782 37.1073 38.9445 38.9448C37.107 40.7823 34.9462 42.237 32.4622 43.3089C29.9781 44.3808 27.324 44.9167 24.4997 44.9167ZM24.4997 40.8334C29.0594 40.8334 32.9215 39.2511 36.0861 36.0865C39.2507 32.9219 40.833 29.0598 40.833 24.5C40.833 19.9403 39.2507 16.0782 36.0861 12.9136C32.9215 9.749 29.0594 8.16671 24.4997 8.16671C19.94 8.16671 16.0778 9.749 12.9132 12.9136C9.74863 16.0782 8.16634 19.9403 8.16634 24.5C8.16634 29.0598 9.74863 32.9219 12.9132 36.0865C16.0778 39.2511 19.94 40.8334 24.4997 40.8334ZM24.4997 36.75C21.0969 36.75 18.2045 35.5591 15.8226 33.1771C13.4406 30.7952 12.2497 27.9028 12.2497 24.5C12.2497 21.0973 13.4406 18.2049 15.8226 15.823C18.2045 13.441 21.0969 12.25 24.4997 12.25C27.9025 12.25 30.7948 13.441 33.1768 15.823C35.5587 18.2049 36.7497 21.0973 36.7497 24.5C36.7497 27.9028 35.5587 30.7952 33.1768 33.1771C30.7948 35.5591 27.9025 36.75 24.4997 36.75ZM24.4997 32.6667C26.7455 32.6667 28.6681 31.8671 30.2674 30.2677C31.8667 28.6684 32.6663 26.7459 32.6663 24.5C32.6663 22.2542 31.8667 20.3316 30.2674 18.7323C28.6681 17.133 26.7455 16.3334 24.4997 16.3334C22.2538 16.3334 20.3313 17.133 18.732 18.7323C17.1327 20.3316 16.333 22.2542 16.333 24.5C16.333 26.7459 17.1327 28.6684 18.732 30.2677C20.3313 31.8671 22.2538 32.6667 24.4997 32.6667ZM24.4997 28.5834C23.3768 28.5834 22.4155 28.1835 21.6158 27.3839C20.8162 26.5842 20.4163 25.623 20.4163 24.5C20.4163 23.3771 20.8162 22.4158 21.6158 21.6162C22.4155 20.8165 23.3768 20.4167 24.4997 20.4167C25.6226 20.4167 26.5839 20.8165 27.3835 21.6162C28.1832 22.4158 28.583 23.3771 28.583 24.5C28.583 25.623 28.1832 26.5842 27.3835 27.3839C26.5839 28.1835 25.6226 28.5834 24.4997 28.5834Z" fill="#006B5F"/>
</g>
</svg>
