<svg width="139" height="140" viewBox="0 0 139 140" fill="none" xmlns="http://www.w3.org/2000/svg">
<g id="Group 1000005678">
<circle id="Ellipse 3372" cx="69.3726" cy="69.8628" r="69.3726" fill="white"/>
<g id="bubble_chart">
<mask id="mask0_398_4789" style="mask-type:alpha" maskUnits="userSpaceOnUse" x="21" y="21" width="95" height="96">
<rect id="Bounding box" x="21" y="21.4902" width="95" height="95" fill="#D9D9D9"/>
</mask>
<g mask="url(#mask0_398_4789)">
<path id="bubble_chart_2" d="M78.0237 102.636C75.1507 102.636 72.7057 101.63 70.6889 99.6189C68.6715 97.6081 67.6628 95.1658 67.6628 92.292C67.6628 89.4189 68.6685 86.974 70.68 84.9572C72.6909 82.9398 75.1328 81.9311 78.0059 81.9311C80.879 81.9311 83.3243 82.9368 85.3417 84.9483C87.3591 86.9592 88.3679 89.4011 88.3679 92.2742C88.3679 95.148 87.3621 97.5932 85.3506 99.61C83.3398 101.627 80.8975 102.636 78.0237 102.636ZM78.0148 96.6986C79.238 96.6986 80.2797 96.2685 81.1399 95.4082C82.0002 94.548 82.4304 93.5063 82.4304 92.2831C82.4304 91.0607 82.0002 90.0193 81.1399 89.159C80.2797 88.2987 79.238 87.8686 78.0148 87.8686C76.7917 87.8686 75.7503 88.2987 74.8907 89.159C74.0304 90.0193 73.6003 91.0607 73.6003 92.2831C73.6003 93.5063 74.0304 94.548 74.8907 95.4082C75.7503 96.2685 76.7917 96.6986 78.0148 96.6986ZM86.3125 74.9278C80.7761 74.9278 76.0934 73.0133 72.2644 69.1843C68.4353 65.3552 66.5208 60.6725 66.5208 55.1361C66.5208 49.5998 68.4353 44.917 72.2644 41.088C76.0934 37.259 80.7761 35.3445 86.3125 35.3445C91.8489 35.3445 96.5316 37.259 100.361 41.088C104.19 44.917 106.104 49.5998 106.104 55.1361C106.104 60.6725 104.19 65.3552 100.361 69.1843C96.5316 73.0133 91.8489 74.9278 86.3125 74.9278ZM86.3125 68.9903C90.2048 68.9903 93.487 67.6544 96.1588 64.9825C98.8307 62.3106 100.167 59.0285 100.167 55.1361C100.167 51.2438 98.8307 47.9617 96.1588 45.2898C93.487 42.6179 90.2048 41.282 86.3125 41.282C82.4201 41.282 79.138 42.6179 76.4661 45.2898C73.7943 47.9617 72.4583 51.2438 72.4583 55.1361C72.4583 59.0285 73.7943 62.3106 76.4661 64.9825C79.138 67.6544 82.4201 68.9903 86.3125 68.9903ZM49.1655 91.2173C45.2296 91.2173 41.8604 89.8161 39.0579 87.0136C36.2554 84.2111 34.8542 80.8422 34.8542 76.907C34.8542 72.9717 36.2554 69.6029 39.0579 66.8004C41.8604 63.9979 45.2296 62.5966 49.1655 62.5966C53.1008 62.5966 56.4696 63.9979 59.2721 66.8004C62.0746 69.6029 63.4759 72.9717 63.4759 76.907C63.4759 80.8422 62.0746 84.2111 59.2721 87.0136C56.4696 89.8161 53.1008 91.2173 49.1655 91.2173ZM49.1665 85.2808C51.4696 85.2808 53.4408 84.4608 55.0803 82.8207C56.719 81.1807 57.5384 79.2091 57.5384 76.906C57.5384 74.6029 56.7183 72.6317 55.0783 70.9922C53.4382 69.3528 51.4666 68.5331 49.1635 68.5331C46.8604 68.5331 44.8895 69.3532 43.2508 70.9932C41.6114 72.6333 40.7917 74.6049 40.7917 76.908C40.7917 79.2111 41.6117 81.1823 43.2518 82.8217C44.8918 84.4611 46.8634 85.2808 49.1665 85.2808Z" fill="#6F5EA5"/>
</g>
</g>
</g>
</svg>
