<svg width="139" height="140" viewBox="0 0 139 140" fill="none" xmlns="http://www.w3.org/2000/svg">
<g id="Group 1000005682">
<circle id="Ellipse 3372" cx="69.3726" cy="70.2437" r="69.3726" fill="white"/>
<g id="dashboard_2">
<mask id="mask0_398_4817" style="mask-type:alpha" maskUnits="userSpaceOnUse" x="21" y="21" width="95" height="96">
<rect id="Bounding box" x="21" y="21.8711" width="95" height="95" fill="#D9D9D9"/>
</mask>
<g mask="url(#mask0_398_4817)">
<path id="dashboard_2_2" d="M84.3482 99.0586C83.3184 99.0586 82.462 98.7155 81.7792 98.0294C81.0971 97.344 80.756 96.4943 80.756 95.4803V77.3026C80.756 76.2728 81.0987 75.4165 81.7842 74.7336C82.4696 74.0515 83.3193 73.7104 84.3333 73.7104H102.511C103.541 73.7104 104.398 74.0531 105.08 74.7386C105.763 75.424 106.104 76.2738 106.104 77.2878V95.4654C106.104 96.4959 105.761 97.3522 105.075 98.0344C104.39 98.7172 103.54 99.0586 102.526 99.0586H84.3482ZM68.5 65.0318C67.486 65.0318 66.6363 64.689 65.9508 64.0036C65.2654 63.3181 64.9227 62.4684 64.9227 61.4544V43.2768C64.9227 42.2463 65.2654 41.39 65.9508 40.7078C66.6363 40.025 67.486 39.6836 68.5 39.6836H102.526C103.54 39.6836 104.39 40.0267 105.075 40.7128C105.761 41.3982 106.104 42.2479 106.104 43.2619V61.4396C106.104 62.4694 105.761 63.3257 105.075 64.0085C104.39 64.6907 103.54 65.0318 102.526 65.0318H68.5ZM34.4742 99.0586C33.4602 99.0586 32.6104 98.7155 31.925 98.0294C31.2389 97.344 30.8958 96.4943 30.8958 95.4803V77.3026C30.8958 76.2728 31.2389 75.4165 31.925 74.7336C32.6104 74.0515 33.4602 73.7104 34.4742 73.7104H68.5C69.514 73.7104 70.3637 74.0531 71.0492 74.7386C71.7346 75.424 72.0773 76.2738 72.0773 77.2878V95.4654C72.0773 96.4959 71.7346 97.3522 71.0492 98.0344C70.3637 98.7172 69.514 99.0586 68.5 99.0586H34.4742ZM34.489 65.0318C33.4585 65.0318 32.6022 64.689 31.92 64.0036C31.2372 63.3181 30.8958 62.4684 30.8958 61.4544V43.2768C30.8958 42.2463 31.2389 41.39 31.925 40.7078C32.6104 40.025 33.4602 39.6836 34.4742 39.6836H52.6518C53.6816 39.6836 54.538 40.0267 55.2208 40.7128C55.9029 41.3982 56.244 42.2479 56.244 43.2619V61.4396C56.244 62.4694 55.9013 63.3257 55.2158 64.0085C54.5304 64.6907 53.6807 65.0318 52.6667 65.0318H34.489ZM70.8592 59.0953H100.167V45.6211H70.8592V59.0953ZM36.8333 93.1211H66.1408V79.6469H36.8333V93.1211ZM86.6925 93.1211H100.167V79.6469H86.6925V93.1211ZM36.8333 59.0953H50.3075V45.6211H36.8333V59.0953Z" fill="#6F5EA5"/>
</g>
</g>
</g>
</svg>
