<svg width="139" height="139" viewBox="0 0 139 139" fill="none" xmlns="http://www.w3.org/2000/svg">
<g id="Group 1000005677">
<circle id="Ellipse 3372" cx="69.3726" cy="69.3726" r="69.3726" fill="white"/>
<g id="diversity_2">
<mask id="mask0_398_4828" style="mask-type:alpha" maskUnits="userSpaceOnUse" x="21" y="20" width="96" height="97">
<rect id="Bounding box" x="21.0547" y="20.6787" width="95.6484" height="95.6484" fill="#D9D9D9"/>
</mask>
<g mask="url(#mask0_398_4828)">
<path id="diversity_2_2" d="M55.9265 110.05C52.8711 110.05 50.1311 109.252 47.7067 107.658C45.2823 106.064 43.4059 103.872 42.0774 101.083C41.0147 102.477 39.6696 103.557 38.0422 104.321C36.4149 105.084 34.7377 105.466 33.0107 105.466C29.6232 105.466 26.7836 104.304 24.4921 101.979C22.2005 99.6544 21.0547 96.8315 21.0547 93.5104C21.0547 90.6542 21.9846 88.0803 23.8444 85.7887C25.7043 83.4972 28.0623 82.1853 30.9184 81.8532C29.9885 80.5247 29.2745 79.1133 28.7763 77.6188C28.2781 76.1243 28.0291 74.5467 28.0291 72.8862C28.0291 70.2293 28.7099 67.7384 30.0715 65.4136C31.4332 63.0888 33.3429 61.1958 35.8005 59.7345C36.1326 60.9301 36.581 62.2087 37.1455 63.5704C37.7101 64.9321 38.3578 66.1111 39.0884 67.1074C38.1585 67.838 37.4278 68.7181 36.8965 69.7477C36.3651 70.7772 36.0994 71.8566 36.0994 72.9858C36.0994 76.7055 37.6271 78.997 40.6825 79.8605C43.738 80.724 46.6274 81.4215 49.3507 81.9528L51.2437 85.1411C50.5131 87.2666 49.8821 89.0767 49.3507 90.5712C48.8193 92.0657 48.5536 93.4107 48.5536 94.6063C48.5536 96.599 49.2677 98.3426 50.6957 99.8371C52.1238 101.332 53.8674 102.079 55.9265 102.079C58.4506 102.079 60.5429 100.95 62.2034 98.6913C63.864 96.4329 65.2257 93.776 66.2884 90.7206C67.3512 87.6652 68.1649 84.5765 68.7295 81.4547C69.294 78.3328 69.7424 75.9416 70.0745 74.281L77.8459 76.3733C77.2481 79.3624 76.5175 82.7831 75.654 86.6356C74.7905 90.4881 73.5783 94.158 72.0174 97.6452C70.4564 101.132 68.3973 104.072 65.8401 106.463C63.2828 108.854 59.9783 110.05 55.9265 110.05ZM33.0107 97.4957C34.1399 97.4957 35.0864 97.1138 35.8503 96.3499C36.6142 95.5861 36.9961 94.6395 36.9961 93.5104C36.9961 92.3812 36.6142 91.4347 35.8503 90.6708C35.0864 89.9069 34.1399 89.525 33.0107 89.525C31.8816 89.525 30.935 89.9069 30.1712 90.6708C29.4073 91.4347 29.0254 92.3812 29.0254 93.5104C29.0254 94.6395 29.4073 95.5861 30.1712 96.3499C30.935 97.1138 31.8816 97.4957 33.0107 97.4957ZM61.3067 81.7536C58.2513 79.0302 55.4782 76.4896 52.9873 74.1316C50.4965 71.7736 48.3543 69.482 46.5609 67.2568C44.7675 65.0317 43.3893 62.8065 42.4261 60.5814C41.463 58.3562 40.9814 56.048 40.9814 53.6568C40.9814 49.3394 42.4593 45.7027 45.4151 42.7469C48.371 39.7911 52.0076 38.3132 56.3251 38.3132C56.5907 38.3132 56.8232 38.3298 57.0225 38.3631C57.2218 38.3963 57.4542 38.4129 57.7199 38.4129C57.4542 37.7486 57.255 37.0844 57.1221 36.4202C56.9893 35.756 56.9229 35.0585 56.9229 34.3279C56.9229 31.0068 58.0852 28.1838 60.41 25.859C62.7348 23.5342 65.5578 22.3718 68.8789 22.3718C72.2 22.3718 75.023 23.5342 77.3478 25.859C79.6726 28.1838 80.835 31.0068 80.835 34.3279C80.835 35.0585 80.7685 35.7394 80.6357 36.3704C80.5028 37.0014 80.3036 37.649 80.0379 38.3132H81.4328C85.4181 38.3132 88.8057 39.5919 91.5954 42.1491C94.3852 44.7064 96.0457 47.8781 96.5771 51.6642C95.3815 51.4649 94.0364 51.3653 92.5419 51.3653C91.0474 51.3653 89.6692 51.4317 88.4071 51.5645C87.9422 50.0368 87.0953 48.7748 85.8665 47.7784C84.6377 46.7821 83.1598 46.2839 81.4328 46.2839C79.108 46.2839 77.298 46.9648 76.0027 48.3264C74.7075 49.6881 72.9307 51.6642 70.6723 54.2546H66.9859C64.6611 51.5313 62.8511 49.522 61.5558 48.2268C60.2606 46.9316 58.517 46.2839 56.3251 46.2839C54.1995 46.2839 52.4393 46.9814 51.0445 48.3762C49.6496 49.7711 48.9521 51.5313 48.9521 53.6568C48.9521 55.1846 49.3839 56.7621 50.2474 58.3894C51.1109 60.0168 52.3231 61.7438 53.884 63.5704C55.445 65.397 57.338 67.3399 59.5631 69.399C61.7883 71.4581 64.2625 73.6832 66.9859 76.0744L61.3067 81.7536ZM68.8789 38.3132C70.0081 38.3132 70.9546 37.9313 71.7185 37.1674C72.4823 36.4036 72.8643 35.4571 72.8643 34.3279C72.8643 33.1987 72.4823 32.2522 71.7185 31.4883C70.9546 30.7245 70.0081 30.3425 68.8789 30.3425C67.7497 30.3425 66.8032 30.7245 66.0393 31.4883C65.2755 32.2522 64.8936 33.1987 64.8936 34.3279C64.8936 35.4571 65.2755 36.4036 66.0393 37.1674C66.8032 37.9313 67.7497 38.3132 68.8789 38.3132ZM81.7317 110.05C80.2704 110.05 78.8257 109.85 77.3976 109.452C75.9695 109.053 74.5912 108.422 73.2628 107.559C73.9934 106.629 74.7241 105.533 75.4547 104.271C76.1854 103.009 76.8496 101.846 77.4474 100.784C78.1781 101.249 78.9087 101.581 79.6394 101.78C80.37 101.979 81.1007 102.079 81.8313 102.079C83.9568 102.079 85.7336 101.332 87.1617 99.8371C88.5898 98.3426 89.3038 96.5658 89.3038 94.5067C89.3038 93.2447 89.0381 91.883 88.5068 90.4217C87.9754 88.9604 87.3444 87.167 86.6137 85.0415L88.5068 81.8532C91.2965 81.3218 94.2025 80.6244 97.2247 79.7609C100.247 78.8974 101.758 76.6058 101.758 72.8862C101.758 70.2293 100.778 68.303 98.8189 67.1074C96.8594 65.9118 94.7173 65.314 92.3925 65.314C89.6027 65.314 86.348 65.8454 82.6284 66.9081C78.9087 67.9709 74.558 69.3326 69.5763 70.9931L67.484 63.2217C72.665 61.5611 77.2814 60.1662 81.3331 59.0371C85.3849 57.9079 89.1046 57.3433 92.4921 57.3433C97.0753 57.3433 101.094 58.7049 104.548 61.4283C108.002 64.1516 109.729 67.9709 109.729 72.8862C109.729 74.5467 109.48 76.1243 108.982 77.6188C108.483 79.1133 107.769 80.5247 106.839 81.8532C109.696 82.1853 112.054 83.4972 113.913 85.7887C115.773 88.0803 116.703 90.6542 116.703 93.5104C116.703 96.8315 115.557 99.6544 113.266 101.979C110.974 104.304 108.135 105.466 104.747 105.466C103.02 105.466 101.343 105.084 99.7156 104.321C98.0882 103.557 96.7432 102.477 95.6804 101.083C94.3519 103.872 92.4755 106.064 90.0511 107.658C87.6267 109.252 84.8535 110.05 81.7317 110.05ZM104.847 97.4957C105.976 97.4957 106.906 97.1138 107.636 96.3499C108.367 95.5861 108.732 94.6395 108.732 93.5104C108.732 92.3812 108.35 91.418 107.587 90.621C106.823 89.8239 105.876 89.4254 104.747 89.4254C103.618 89.4254 102.671 89.8073 101.908 90.5712C101.144 91.335 100.762 92.2815 100.762 93.4107C100.762 94.5399 101.16 95.503 101.957 96.3001C102.754 97.0972 103.718 97.4957 104.847 97.4957Z" fill="#6F5EA5"/>
</g>
</g>
</g>
</svg>
