<svg width="139" height="140" viewBox="0 0 139 140" fill="none" xmlns="http://www.w3.org/2000/svg">
<g id="Group 1000005680">
<circle id="Ellipse 3372" cx="69.3726" cy="69.6519" r="69.3726" fill="white"/>
<g id="ent">
<mask id="mask0_398_4803" style="mask-type:alpha" maskUnits="userSpaceOnUse" x="21" y="21" width="95" height="96">
<rect id="Bounding box" x="21" y="21.2793" width="95" height="95" fill="#D9D9D9"/>
</mask>
<g mask="url(#mask0_398_4803)">
<path id="ent_2" d="M66.4981 83.623H76.4167C77.2578 83.623 77.9627 83.3383 78.5314 82.769C79.1007 82.1996 79.3854 81.4944 79.3854 80.6532C79.3854 79.8114 79.1007 79.1065 78.5314 78.5385C77.9627 77.9698 77.2578 77.6855 76.4167 77.6855H67.0997L67.8607 70.7425C67.9927 69.4739 68.5195 68.4108 69.4411 67.5531C70.3627 66.6955 71.4522 66.2667 72.7097 66.2667H84.4857C85.3269 66.2667 86.0318 65.982 86.6005 65.4127C87.1698 64.844 87.4545 64.1387 87.4545 63.2969C87.4545 62.4558 87.1698 61.7509 86.6005 61.1822C86.0318 60.6135 85.3269 60.3292 84.4857 60.3292H72.8086C69.9666 60.3292 67.5173 61.2683 65.461 63.1465C63.4046 65.0241 62.2254 67.3559 61.9232 70.1419L58.4824 103.133C58.3756 103.975 58.6203 104.727 59.2167 105.39C59.8124 106.052 60.5573 106.383 61.4512 106.383C62.1934 106.383 62.8488 106.126 63.4175 105.611C63.9868 105.095 64.321 104.47 64.4199 103.734L66.4981 83.623ZM46.7292 90.4283C42.9687 86.9978 40.0495 83.0662 37.9713 78.6335C35.8932 74.2002 34.8542 69.5867 34.8542 64.7932C34.8542 55.4548 38.1254 47.5174 44.6679 40.9808C51.2097 34.4436 59.1537 31.175 68.5 31.175C76.1884 31.175 83.0634 33.4729 89.1249 38.0685C95.1871 42.6634 99.124 48.625 100.936 55.9532L105.56 74.219C105.857 75.3477 105.647 76.3726 104.932 77.2936C104.216 78.2146 103.262 78.675 102.07 78.675H94.2292V91.311C94.2292 93.279 93.5285 94.9636 92.1273 96.3648C90.726 97.7661 89.0414 98.4667 87.0735 98.4667H78.3958V103.415C78.3958 104.256 78.1112 104.961 77.5418 105.529C76.9725 106.099 76.2672 106.383 75.4261 106.383C74.5843 106.383 73.8794 106.099 73.3113 105.529C72.7427 104.961 72.4583 104.256 72.4583 103.415V96.1254C72.4583 95.0929 72.8011 94.2356 73.4865 93.5534C74.1726 92.8706 75.0223 92.5292 76.0357 92.5292H87.0735C87.4291 92.5292 87.721 92.4151 87.9493 92.1868C88.1775 91.9586 88.2917 91.6666 88.2917 91.311V76.3149C88.2917 75.3016 88.6344 74.4518 89.3198 73.7657C90.0059 73.0803 90.8557 72.7375 91.869 72.7375H98.9792L95.2187 57.399C93.7014 51.3705 90.4562 46.4823 85.4832 42.7344C80.5096 38.9865 74.8485 37.1125 68.5 37.1125C60.8472 37.1125 54.316 39.7881 48.9062 45.1391C43.4965 50.4901 40.7917 56.9972 40.7917 64.6606C40.7917 68.613 41.5998 72.3674 43.2161 75.924C44.8325 79.4806 47.125 82.642 50.0937 85.4082L52.6667 87.7792V103.415C52.6667 104.256 52.382 104.961 51.8126 105.529C51.2433 106.099 50.5381 106.383 49.6969 106.383C48.8551 106.383 48.1502 106.099 47.5822 105.529C47.0135 104.961 46.7292 104.256 46.7292 103.415V90.4283Z" fill="#6F5EA5"/>
</g>
</g>
</g>
</svg>
