<svg width="140" height="140" viewBox="0 0 140 140" fill="none" xmlns="http://www.w3.org/2000/svg">
<g id="Group 1000005679">
<circle id="Ellipse 3372" cx="69.9995" cy="69.7847" r="69.3726" fill="white"/>
<g id="cognition">
<mask id="mask0_398_4796" style="mask-type:alpha" maskUnits="userSpaceOnUse" x="21" y="21" width="96" height="96">
<rect id="Bounding box" x="21.627" y="21.4121" width="95" height="95" fill="#D9D9D9"/>
</mask>
<g mask="url(#mask0_398_4796)">
<path id="cognition_2" d="M70.1393 81.1522C74.2751 81.1522 77.8135 79.8202 80.7545 77.1562C83.6956 74.4916 85.1661 71.2514 85.1661 67.4356C85.1661 64.1066 84.1079 61.2787 81.9915 58.9519C79.8751 56.625 77.2795 55.4616 74.2045 55.4616C71.5095 55.4616 69.2107 56.3242 67.3081 58.0494C65.4048 59.7752 64.4531 61.9031 64.4531 64.4332C64.4531 65.5263 64.6484 66.6132 65.039 67.6939C65.4302 68.7751 66.0899 69.7268 67.0181 70.5488C67.8204 71.2692 68.6223 71.5724 69.4238 71.4582C70.2254 71.3441 70.8802 71.0129 71.3881 70.4647C71.8955 69.9165 72.1923 69.2643 72.2788 68.5083C72.3645 67.7522 72.0597 67.047 71.3644 66.3926C71.1566 66.1847 70.9422 65.9057 70.7212 65.5554C70.5008 65.2051 70.3906 64.8471 70.3906 64.4817C70.3906 63.6801 70.7317 62.9824 71.4139 62.3887C72.0967 61.7949 73.0269 61.4981 74.2045 61.4981C75.6255 61.4981 76.8282 62.0677 77.8125 63.2071C78.7968 64.3458 79.289 65.7882 79.289 67.5345C79.289 69.6555 78.429 71.476 76.7091 72.996C74.9886 74.516 72.8316 75.276 70.2382 75.276C67.1125 75.276 64.4456 74.0226 62.2375 71.5156C60.03 69.0087 58.9263 65.9027 58.9263 62.1977C58.9263 60.7866 59.1256 59.4127 59.524 58.0761C59.9225 56.7388 60.5202 55.4916 61.3172 54.3345C61.7433 53.5989 61.969 52.8201 61.994 51.9981C62.0198 51.1761 61.7255 50.458 61.1113 49.8437C60.4971 49.2295 59.7688 48.9389 58.9263 48.9719C58.0845 49.0049 57.4301 49.3691 56.963 50.0644C55.6435 51.785 54.6348 53.6639 53.9368 55.7011C53.2389 57.7383 52.8899 59.8709 52.8899 62.0988C52.8899 67.3719 54.5596 71.8656 57.8991 75.5798C61.238 79.2947 65.318 81.1522 70.1393 81.1522ZM47.3561 90.5611C43.5957 87.1306 40.6764 83.199 38.5983 78.7663C36.5202 74.333 35.4811 69.7195 35.4811 64.926C35.4811 55.5876 38.7523 47.6502 45.2948 41.1136C51.8366 34.5765 59.7807 31.3079 69.1269 31.3079C76.8153 31.3079 83.6903 33.6057 89.7518 38.2013C95.814 42.7963 99.7509 48.7578 101.563 56.086L106.187 74.3518C106.484 75.4806 106.274 76.5054 105.558 77.4264C104.843 78.3474 103.889 78.8079 102.697 78.8079H94.8561V91.4439C94.8561 93.4118 94.1555 95.0964 92.7542 96.4977C91.353 97.8989 89.6684 98.5995 87.7004 98.5995H79.0228V103.547C79.0228 104.389 78.7381 105.094 78.1688 105.662C77.5994 106.232 76.8942 106.516 76.053 106.516C75.2112 106.516 74.5063 106.232 73.9383 105.662C73.3696 105.094 73.0853 104.389 73.0853 103.547V96.2582C73.0853 95.2257 73.428 94.3684 74.1135 93.6862C74.7996 93.0034 75.6493 92.662 76.6626 92.662H87.7004C88.056 92.662 88.3479 92.5479 88.5762 92.3196C88.8045 92.0914 88.9186 91.7994 88.9186 91.4439V76.4477C88.9186 75.4344 89.2613 74.5847 89.9468 73.8985C90.6329 73.2131 91.4826 72.8704 92.496 72.8704H99.6061L95.8457 57.5318C94.3283 51.5033 91.0832 46.6151 86.1102 42.8672C81.1365 39.1193 75.4755 37.2454 69.1269 37.2454C61.4742 37.2454 54.9429 39.9209 49.5332 45.2719C44.1235 50.6229 41.4186 57.1301 41.4186 64.7934C41.4186 68.7458 42.2268 72.5003 43.8431 76.0568C45.4594 79.6134 47.7519 82.7748 50.7207 85.541L53.2936 87.912V103.547C53.2936 104.389 53.0089 105.094 52.4396 105.662C51.8703 106.232 51.165 106.516 50.3239 106.516C49.4821 106.516 48.7772 106.232 48.2091 105.662C47.6404 105.094 47.3561 104.389 47.3561 103.547V90.5611Z" fill="#6F5EA5"/>
</g>
</g>
</g>
</svg>
