<svg width="216" height="101" viewBox="0 0 216 101" fill="none" xmlns="http://www.w3.org/2000/svg">
<g id="HIPAA COMPLIANT 1">
<path id="Vector" d="M70.8736 64.7768C71.4136 64.4524 72.0616 64.3082 72.7096 64.3082C73.2136 64.3082 73.7176 64.4163 74.1496 64.6326C74.6176 64.8489 75.0136 65.1733 75.3376 65.5337L76.5256 64.3443C76.0576 63.7676 75.4816 63.335 74.8336 63.0467C74.0416 62.7223 73.2136 62.5781 72.3496 62.6142C71.4856 62.6502 70.6576 62.9025 69.9376 63.299C69.1456 63.7676 68.4976 64.4164 68.0296 65.2453C67.5616 66.1104 67.3456 67.0475 67.3456 68.0207C67.3456 68.9939 67.5616 69.931 68.0296 70.796C68.4616 71.589 69.1096 72.2738 69.9016 72.7424C70.7296 73.2109 71.6656 73.4632 72.6016 73.4272C73.3576 73.4272 74.1136 73.283 74.8336 72.9947C75.4816 72.7063 76.0936 72.2378 76.5256 71.6971L75.3376 70.5077C75.0136 70.9042 74.6176 71.2285 74.1496 71.4448C73.6816 71.6611 73.1776 71.7692 72.6736 71.7692C72.0256 71.7692 71.4136 71.625 70.8376 71.3006C70.2976 70.9762 69.8656 70.5437 69.5776 70.0031C69.2896 69.4264 69.1096 68.7416 69.1096 68.0928C69.1096 67.444 69.2536 66.7952 69.5776 66.1825C69.9016 65.5697 70.3336 65.1012 70.8736 64.7768ZM69.0376 52.5941H74.0776V57.0995H75.8776V46.5749H74.0776V50.9001H69.0376V46.5749H67.2376V57.0995H69.0376V52.5941ZM78.1096 57.0995H79.9096V46.5749H78.1096V57.0995ZM87.6136 47.0434C86.9296 46.7191 86.1736 46.5749 85.4176 46.6109H82.1776V57.0995H83.9776V54.0719H85.4176C86.1736 54.0719 86.9296 53.9277 87.6136 53.6394C88.2256 53.351 88.7296 52.9185 89.0536 52.3418C89.3776 51.7291 89.5576 51.0443 89.5576 50.3594C89.5576 49.6746 89.3776 48.9898 89.0536 48.3771C88.7296 47.7643 88.2256 47.3318 87.6136 47.0434ZM87.1096 51.8733C86.7136 52.2337 86.1016 52.4139 85.3096 52.4139H83.9776V48.2329H85.3096C86.1016 48.2329 86.7136 48.4131 87.1096 48.7735C87.5056 49.134 87.7216 49.6386 87.7216 50.3234C87.7216 51.0082 87.5416 51.5128 87.1096 51.8733ZM105.326 46.6109L100.466 57.0995H102.518L103.598 54.6846H108.998L110.078 57.0995H112.166L107.306 46.5749H105.326V46.6109ZM104.282 53.1348L106.298 48.5573L108.314 53.1348H104.282ZM85.9936 63.299C85.1656 62.8304 84.2296 62.6142 83.2576 62.6142C82.2856 62.6142 81.3856 62.8665 80.5216 63.299C79.7296 63.7676 79.0456 64.4164 78.6136 65.2453C78.1456 66.1104 77.9296 67.0475 77.9296 68.0207C77.9296 68.9939 78.1816 69.931 78.6136 70.796C79.0456 71.589 79.7296 72.2738 80.5216 72.7424C81.3496 73.2109 82.2856 73.4272 83.2576 73.4272C84.2296 73.4272 85.1296 73.1749 85.9936 72.7424C86.7856 72.2738 87.4336 71.625 87.9016 70.796C88.3696 69.931 88.5856 68.9939 88.5856 68.0207C88.5856 67.0475 88.3336 66.1104 87.9016 65.2453C87.4336 64.4164 86.7856 63.7676 85.9936 63.299ZM86.2816 69.8949C85.9936 70.4356 85.5616 70.9042 85.0576 71.2285C84.5176 71.5529 83.9056 71.6971 83.2936 71.6971C82.6816 71.6971 82.0696 71.5169 81.5296 71.2285C80.9896 70.9042 80.5576 70.4716 80.3056 69.8949C80.0176 69.3182 79.8376 68.6695 79.8376 67.9846C79.8376 67.2998 79.9816 66.6871 80.3056 66.0743C80.5936 65.5337 81.0256 65.0651 81.5296 64.7407C82.0696 64.4164 82.6816 64.2722 83.2936 64.2722C83.9056 64.2722 84.5176 64.4524 85.0576 64.7407C85.5976 65.0651 86.0296 65.4976 86.2816 66.0743C86.5696 66.651 86.7496 67.2998 86.7496 67.9846C86.7496 68.6695 86.5696 69.3182 86.2816 69.8949ZM147.482 62.7584V64.4163H150.758V73.283H152.594V64.4163H155.87V62.7584H147.482ZM144.566 69.8589L139.13 62.7584H137.618V73.283H139.454V66.1825L144.89 73.283H146.402V62.7584H144.566V69.8589ZM99.1336 62.7584L96.0736 68.3451L92.9416 62.7584H90.6736V73.283H92.6176V66.0023L96.0376 72.0575L99.5296 65.8941V73.247H101.474V62.7223H99.1336V62.7584ZM109.07 63.1909C108.386 62.8665 107.594 62.7223 106.838 62.7584H103.562V73.283H105.398V70.2554H106.838C107.594 70.2554 108.386 70.1112 109.07 69.8228C109.682 69.5345 110.186 69.102 110.546 68.5253C110.87 67.9126 111.05 67.2277 111.05 66.5429C111.05 65.8581 110.87 65.1733 110.546 64.5605C110.186 63.9478 109.682 63.4792 109.07 63.1909ZM108.566 68.0567C108.17 68.4172 107.558 68.5974 106.73 68.5974H105.362V64.4163H106.73C107.522 64.4163 108.134 64.5966 108.566 64.957C108.962 65.3174 109.178 65.822 109.178 66.5069C109.214 67.1556 108.998 67.6963 108.566 68.0567ZM97.0096 54.6846L98.0896 57.0995H100.178L95.3176 46.5749H93.3376L88.5136 57.0995H90.5656L91.6456 54.6846H97.0096ZM94.3456 48.5573L96.3616 53.1348H92.3296L94.3456 48.5573ZM114.578 62.7584H112.742V73.283H119.726V71.625H114.578V62.7584ZM121.238 73.247H123.074V62.7223H121.238V73.247ZM47.4376 85.1052C47.4736 87.6283 47.5096 89.4665 47.5456 90.3676C47.5816 90.4757 47.5816 90.6199 47.5456 90.728C47.5456 90.8722 47.5456 90.9803 47.5456 90.9803C47.5456 91.4849 47.6176 91.9895 47.7616 92.4581C47.9056 91.9895 47.9776 91.4849 47.9776 90.9803C47.9776 90.8001 48.0496 88.1689 48.1576 83.9519C48.1216 83.9879 48.0856 84.0239 48.0856 84.06C47.8336 84.3844 47.6176 84.7448 47.4376 85.1052ZM39.9496 32.4819C40.5256 31.8692 41.0656 31.1483 41.4616 30.3914C41.1736 31.0402 40.0576 33.4911 41.1376 33.7074C42.3256 33.9237 43.6576 33.5632 46.0696 30.4995C45.9976 26.5708 45.9256 23.1467 45.8896 20.5516H44.5936C44.5216 20.5516 44.4856 20.5516 44.4136 20.5516C43.6936 20.5516 42.5056 20.4795 41.7136 19.2901C40.8496 17.9925 40.8136 16.6589 40.7776 15.6857C40.7416 14.28 40.3816 11.7209 38.6176 10.2792C37.3936 9.30604 34.0816 8.54913 31.0216 9.77461C30.0136 10.1711 27.9976 11.2163 26.0176 12.1895C24.2176 13.0906 21.9136 14.2079 21.1936 14.2079C22.3816 13.6673 23.9656 12.8743 25.6936 11.9012C27.6736 10.8199 29.7616 9.66648 30.8056 9.23396C32.8936 8.40496 36.8896 8.15266 38.9416 9.81065C40.8856 11.3966 41.2816 14.1359 41.3176 15.6136C41.3536 16.5868 41.3896 17.7762 42.1456 18.9657C42.8296 19.9749 43.9096 19.9749 44.5576 19.9749H44.7016H45.8536C45.8536 19.6505 45.8536 19.3621 45.8536 19.0377C44.7016 19.1098 43.0456 19.1819 42.3256 17.6321C41.4616 15.7578 42.3976 10.964 39.5176 8.94561C36.6376 6.92718 32.0296 7.43179 27.9256 9.81065C23.8576 12.1535 18.4576 15.2172 11.7976 17.8844C5.13762 20.5516 0.997624 21.6329 0.205623 21.741C-0.550377 21.8852 0.817623 22.3898 3.66162 22.4619C6.50562 22.534 8.88162 22.3177 8.88162 22.3177L29.7616 12.8022C29.7616 12.8022 11.7616 21.777 10.2496 22.7502C8.73762 23.7234 7.51362 24.0478 7.62162 24.9489C7.72962 25.8499 8.88162 25.7418 12.0496 25.6697C15.2176 25.5976 15.9016 25.3093 16.9816 24.9849C18.0616 24.6605 29.7616 19.254 29.7616 19.254C29.7616 19.254 17.2336 25.4895 15.4336 26.9312C13.6336 28.373 15.5776 28.8415 16.8016 28.8776C18.0616 28.9136 21.4096 28.7334 23.2816 27.7963C25.1536 26.8592 30.9856 23.1107 30.9856 23.1107C30.9856 23.1107 25.2256 27.2556 24.1096 28.1928C23.2096 28.9497 22.7416 29.5985 22.9576 30.3914C23.2816 31.4006 25.0096 31.2925 27.3136 30.4635C27.3136 30.4635 29.6896 29.6345 30.5896 28.8415C31.4896 28.0126 34.0096 25.7779 34.0096 25.7779C34.0096 25.7779 31.0216 28.8776 30.2656 30.2112C29.5456 31.5448 29.4016 31.8692 29.7616 32.6261C30.2656 33.7074 34.0816 32.5901 35.1616 31.4367C35.9536 30.5356 36.7096 29.5985 37.3936 28.5892C37.3936 28.5892 36.2416 30.4635 35.9896 31.5448C35.7376 32.6261 35.4496 33.4911 36.4936 33.5993C37.6456 33.7795 38.7256 33.8155 39.9496 32.4819ZM47.0776 57.0275C47.1856 56.9554 47.2936 56.8833 47.4016 56.8112C47.6176 56.667 47.7976 56.5589 47.9416 56.4147C48.2296 56.2345 48.5176 56.0182 48.8056 55.838C48.8416 53.7836 48.9136 51.693 48.9496 49.6386C48.3736 49.3863 47.7616 49.134 47.1136 48.8817C47.0776 48.8817 47.0416 48.8456 47.0056 48.8456C46.9336 48.8096 46.8976 48.8096 46.8256 48.7735C46.3936 48.6294 45.9976 48.4491 45.5296 48.305C44.9896 48.0887 44.4496 47.9085 43.9096 47.6922C40.3096 49.6025 39.5896 50.5036 39.5896 52.2697C39.5896 54.7567 41.7136 55.8741 45.3856 58.2169C45.9616 57.7844 46.5376 57.3879 47.0776 57.0275ZM42.6496 52.5941C42.6496 52.5941 42.3976 51.0082 46.4656 49.17C46.5736 49.134 46.6816 49.0619 46.7896 49.0258C46.8256 51.5128 46.8616 53.9998 46.9336 56.4868C44.9176 55.1172 42.6496 53.8196 42.6496 52.5941ZM48.8056 83.1949C48.6256 83.4112 48.4456 83.6275 48.2656 83.8077C49.3096 85.2134 49.2376 86.583 48.6616 88.3491C49.2016 87.7364 50.2816 86.1865 49.3816 84.1681C49.2016 83.8437 49.0216 83.5193 48.8056 83.1949ZM47.1496 68.4172C47.5456 68.8136 48.0136 69.2822 48.4816 69.7508C48.7696 70.0391 49.0576 70.3275 49.3816 70.6519C49.4176 70.6879 49.4896 70.7239 49.5616 70.796C52.0096 68.6695 54.2416 66.651 54.2416 64.128C54.2416 62.1456 52.3336 60.3434 50.4256 58.9017C50.2456 59.0098 50.0656 59.118 49.8856 59.2621C49.4536 59.5505 49.0576 59.8028 48.6976 60.0551C48.6976 60.0551 48.6616 60.0551 48.6616 60.0911C48.5896 60.1632 48.4816 60.1993 48.4096 60.2714C47.9056 60.6318 47.4376 60.9562 47.0056 61.2806C47.0776 63.6955 47.1136 66.1104 47.1496 68.4172ZM48.6976 60.4516C51.0736 62.1817 52.0096 63.299 52.0096 64.5245C52.0096 65.786 50.6776 67.2638 48.5176 69.4264C48.5536 66.5429 48.6256 63.5513 48.6976 60.4516ZM61.8376 25.8139C61.8376 25.8139 64.3576 28.0486 65.2576 28.8776C66.1576 29.7066 68.5336 30.4995 68.5336 30.4995C70.8376 31.3285 72.5656 31.4367 72.8896 30.4275C73.1416 29.6345 72.6376 28.9497 71.7376 28.2288C70.6216 27.2917 64.8616 23.1467 64.8616 23.1467C64.8616 23.1467 70.6936 26.8952 72.5656 27.8323C74.4376 28.7695 77.7856 28.9497 79.0456 28.9136C80.3056 28.8776 82.2136 28.409 80.4136 26.9673C78.6136 25.5256 66.0856 19.2901 66.0856 19.2901C66.0856 19.2901 77.7496 24.7326 78.8656 25.021C79.9456 25.3453 80.6296 25.5976 83.7976 25.7058C86.9656 25.7779 88.0816 25.886 88.2256 24.9849C88.3696 24.1199 87.1096 23.7955 85.5976 22.7863C84.0856 21.8131 66.0856 12.8383 66.0856 12.8383L86.9656 22.3537C86.9656 22.3537 89.3416 22.57 92.1856 22.4979C95.0296 22.4258 96.3976 21.9212 95.6416 21.777C94.8856 21.6329 90.7096 20.5876 84.0496 17.9204C77.3896 15.2532 71.9896 12.2256 67.9216 9.84669C63.8536 7.50388 59.2096 6.96322 56.3296 8.98165C53.4496 11.0001 54.3856 15.7578 53.5216 17.6681C52.8016 19.218 51.1456 19.1459 49.9936 19.0738C49.9936 19.3621 49.9936 19.6865 49.9576 20.0109H51.1456H51.2896C51.9376 20.0109 53.0176 20.0109 53.7016 19.0017C54.4576 17.8483 54.4936 16.6228 54.5296 15.6497C54.5656 14.1719 54.9616 11.4326 56.9056 9.84669C58.9576 8.1887 62.9536 8.441 65.0416 9.27C66.0856 9.66648 68.1736 10.8199 70.1536 11.9372C71.8816 12.9104 73.4656 13.7033 74.6536 14.244C73.8976 14.244 71.6296 13.1266 69.8296 12.2256C67.8856 11.2163 65.8696 10.2071 64.8256 9.81065C61.7656 8.58518 58.4536 9.34209 57.2296 10.3153C55.4296 11.757 55.1056 14.3161 55.0696 15.7218C55.0336 16.6949 54.9976 18.0646 54.1336 19.3261C53.3776 20.5155 52.1896 20.5876 51.4336 20.5876C51.3616 20.5876 51.3256 20.5876 51.2536 20.5876H49.9576C49.8856 23.1827 49.8136 26.5708 49.7416 30.4275C52.1896 33.5632 53.5936 33.9597 54.7456 33.7074C55.8256 33.4911 54.7456 31.0402 54.4216 30.3914C54.8536 31.1483 55.3576 31.8331 55.9336 32.4819C57.1216 33.8155 58.2376 33.7795 59.3176 33.6353C60.3976 33.4911 60.0736 32.6621 59.8216 31.5808C59.5696 30.4995 58.4176 28.6253 58.4176 28.6253C59.1016 29.5985 59.8576 30.5716 60.6496 31.4727C61.7296 32.6261 65.5456 33.7795 66.0496 32.6621C66.3736 31.9413 66.2656 31.5808 65.5456 30.2472C64.8616 28.9136 61.8376 25.8139 61.8376 25.8139ZM47.9776 14.7846C48.5536 14.7846 49.1296 14.6044 49.5976 14.28C50.0656 13.9556 50.4616 13.4871 50.6776 12.9825C50.8936 12.4418 50.9656 11.8651 50.8576 11.2884C50.7496 10.7117 50.4616 10.2071 50.0656 9.77461C49.6696 9.37813 49.1296 9.08978 48.5536 8.98165C47.9776 8.87352 47.4016 8.90957 46.8616 9.16187C46.3216 9.37813 45.8536 9.77461 45.5656 10.2432C45.2416 10.7117 45.0616 11.2884 45.0616 11.8651C45.0616 12.2616 45.1336 12.622 45.2776 12.9825C45.4216 13.3429 45.6376 13.6673 45.9256 13.9196C46.2136 14.2079 46.5016 14.4242 46.8616 14.5684C47.1856 14.7125 47.5816 14.7846 47.9776 14.7846ZM57.5536 36.699C57.5536 36.699 57.4816 34.6806 54.2056 34.4643C50.8576 34.2481 50.7136 35.6898 50.7856 36.2304C51.0376 36.2304 51.2536 36.3025 51.2536 36.3746C51.2536 36.4467 51.0736 36.5188 50.8576 36.5188C51.0376 37.0594 51.5416 37.7082 52.9816 38.4291C54.1696 39.0058 54.7456 38.9697 55.4296 38.8616C55.4296 38.8616 56.2216 39.3302 56.2216 40.0871C56.2216 40.8079 54.9616 42.2136 49.0576 45.1692C49.4176 29.238 49.7416 15.2532 49.7416 15.2532H50.1016C50.2456 15.2532 50.3896 15.1811 50.4976 15.073C50.6056 14.9648 50.6776 14.8207 50.6776 14.6765V14.4963C50.6776 14.4242 50.6776 14.3521 50.6416 14.28C50.6056 14.2079 50.5696 14.1359 50.4976 14.0998C50.1736 14.4602 49.8136 14.7486 49.3816 14.9649C48.9496 15.1811 48.4816 15.2532 48.0136 15.2532C47.5456 15.2532 47.0776 15.1451 46.6456 14.9649C46.2136 14.7846 45.8176 14.4602 45.5296 14.0998C45.4576 14.1719 45.4216 14.2079 45.3856 14.28C45.3496 14.3521 45.3496 14.4242 45.3496 14.4963V14.6765C45.3496 14.8207 45.4216 14.9648 45.5296 15.073C45.6376 15.1811 45.7816 15.2532 45.9256 15.2532H46.2856C46.2856 15.2532 46.5376 28.8415 46.7896 44.4844C47.2936 44.7367 47.7976 44.989 48.3736 45.2773C48.4456 45.3134 48.5536 45.3494 48.6256 45.3855C49.9576 46.0342 51.0736 46.5749 52.0096 47.0795C55.1776 45.854 58.2736 44.4483 59.2096 42.4659C60.8656 38.7895 57.5536 36.699 57.5536 36.699ZM53.1616 35.87C52.8016 35.87 52.5136 35.6898 52.5136 35.4735C52.5136 35.2573 52.8016 35.077 53.1616 35.077C53.5216 35.077 53.8096 35.2573 53.8096 35.4735C53.8096 35.6898 53.5216 35.87 53.1616 35.87ZM47.4376 81.5009C47.7256 81.1405 47.9776 80.78 48.2656 80.4556C48.3016 78.4012 48.3736 76.0944 48.4096 73.6074C48.0496 73.247 47.6536 72.8865 47.2216 72.4901C47.0776 72.3819 46.9696 72.2378 46.8256 72.1296C46.6456 71.9494 46.4656 71.8052 46.2856 71.6611C45.2776 72.5982 43.2976 74.6887 43.2976 76.4909C43.2976 78.6174 45.3496 80.78 46.8976 82.3299C47.0416 82.0055 47.2216 81.7532 47.4376 81.5009ZM47.2216 72.9226C47.2936 75.9863 47.3296 78.7976 47.3656 81.2126C46.1776 79.6266 44.9176 78.0047 44.9176 76.8874C44.9176 75.8421 45.5296 74.6527 47.2216 72.9226ZM48.0496 45.7459C41.0296 42.3578 39.5896 40.8079 39.5896 40.051C39.5896 39.2941 40.3816 38.8256 40.3816 38.8256C41.0656 38.9697 41.6416 38.9697 42.8296 38.393C44.2696 37.7082 44.7736 37.0234 44.9536 36.4827C44.7376 36.4827 44.5576 36.4107 44.5576 36.3386C44.5576 36.2665 44.7736 36.1944 45.0256 36.1944V36.1583C45.0616 35.6177 44.8816 34.212 41.5696 34.4283C38.2936 34.6445 38.2216 36.663 38.2216 36.663C38.2216 36.663 34.9096 38.7895 36.6376 42.3939C38.1496 45.6017 45.2416 47.2957 49.3456 49.134C53.4136 50.9722 53.1616 52.5581 53.1616 52.5581C53.1616 53.9277 50.4256 55.3695 48.2656 56.8833C46.1056 58.3971 41.5336 61.0283 41.5336 64.128C41.5336 66.9754 44.3776 69.1741 47.1496 71.625C49.9576 74.076 50.8576 75.5537 50.8576 76.9234C50.8576 78.7977 47.7616 81.3207 46.1776 84.4565C44.5936 87.5922 47.7256 92.4581 46.7536 89.899C45.7456 87.3399 46.2856 85.5378 47.5816 83.7356C49.1656 81.5369 52.5496 79.3744 52.5496 76.4548C52.5496 74.0039 48.9856 71.1204 48.9856 71.1204C45.8176 67.9486 43.8016 66.1464 43.8016 64.5605C43.8016 62.9746 45.3136 61.5689 49.5616 58.7936C53.7736 56.0543 56.2576 54.973 56.2576 52.3058C56.2576 49.963 55.0696 49.134 48.0496 45.7459ZM42.6496 35.1131C43.0096 35.1131 43.2976 35.2933 43.2976 35.5096C43.2976 35.7258 43.0096 35.906 42.6496 35.906C42.2896 35.906 42.0016 35.7258 42.0016 35.5096C42.0016 35.2933 42.2896 35.1131 42.6496 35.1131ZM129.338 62.7584L124.478 73.283H126.53L127.61 70.8681H133.01L134.09 73.283H136.178L131.318 62.7584H129.338ZM128.294 69.3182L130.31 64.7407L132.326 69.3182H128.294Z" fill="#7363A8"/>
</g>
</svg>
