<svg width="140" height="139" viewBox="0 0 140 139" fill="none" xmlns="http://www.w3.org/2000/svg">
<g id="Group 1000005677">
<circle id="Ellipse 3372" cx="69.8452" cy="69.4468" r="69.3726" fill="white"/>
<g id="cognition_2">
<mask id="mask0_398_4782" style="mask-type:alpha" maskUnits="userSpaceOnUse" x="21" y="21" width="97" height="96">
<rect id="Bounding box" x="21.4727" y="21.0742" width="95.65" height="95.65" fill="#D9D9D9"/>
</mask>
<g mask="url(#mask0_398_4782)">
<path id="cognition_2_2" d="M52.7582 76.1647C54.531 77.9376 56.7081 78.824 59.2893 78.824C61.8698 78.824 64.0512 77.9376 65.8333 76.1647L80.5425 61.4565C82.3193 59.679 83.2078 57.4997 83.2078 54.9185C83.2078 52.3379 82.3213 50.1565 80.5485 48.3744C78.7663 46.6016 76.585 45.7151 74.0044 45.7151C71.4232 45.7151 69.2462 46.6016 67.4733 48.3744C65.2202 47.562 62.9874 47.3757 60.7748 47.8155C58.5623 48.2545 56.6898 49.2406 55.1574 50.7736C53.6243 52.306 52.6383 54.1785 52.1992 56.3911C51.7595 58.6036 51.9458 60.8365 52.7582 63.0896C50.9853 64.8717 50.0989 67.0531 50.0989 69.6336C50.0989 72.2148 50.9853 74.3919 52.7582 76.1647ZM47.3779 90.6965C43.5917 87.2425 40.6525 83.284 38.5601 78.821C36.4678 74.3573 35.4216 69.7123 35.4216 64.886C35.4216 55.4837 38.7152 47.492 45.3025 40.9107C51.889 34.3288 59.8874 31.0378 69.2977 31.0378C77.0387 31.0378 83.9607 33.3514 90.0637 37.9784C96.1673 42.6048 100.131 48.6072 101.955 55.9856L106.611 74.3763C106.91 75.5128 106.699 76.5447 105.978 77.4719C105.258 78.3992 104.298 78.8628 103.097 78.8628H95.2029V91.5853C95.2029 93.5667 94.4975 95.2628 93.0866 96.6737C91.6758 98.0845 89.9796 98.7899 87.9982 98.7899H79.2612V103.772C79.2612 104.619 78.9746 105.328 78.4013 105.901C77.8281 106.474 77.118 106.761 76.2711 106.761C75.4236 106.761 74.7138 106.474 74.1419 105.901C73.5694 105.328 73.2831 104.619 73.2831 103.772V96.4325C73.2831 95.393 73.6281 94.5298 74.3183 93.843C75.0091 93.1555 75.8646 92.8118 76.8849 92.8118H87.9982C88.3563 92.8118 88.6502 92.6969 88.88 92.4671C89.1098 92.2372 89.2247 91.9433 89.2247 91.5853V76.4865C89.2247 75.4663 89.5698 74.6107 90.26 73.9199C90.9508 73.2298 91.8063 72.8847 92.8266 72.8847H99.9854L96.1992 57.4412C94.6715 51.3714 91.4041 46.4498 86.3971 42.6763C81.3894 38.9027 75.6896 37.016 69.2977 37.016C61.5925 37.016 55.0166 39.7098 49.5698 45.0974C44.1231 50.485 41.3997 57.0367 41.3997 64.7525C41.3997 68.7319 42.2134 72.5121 43.8408 76.093C45.4682 79.6739 47.7764 82.8569 50.7655 85.642L53.356 88.0293V103.772C53.356 104.619 53.0694 105.328 52.4961 105.901C51.9229 106.474 51.2128 106.761 50.3659 106.761C49.5184 106.761 48.8086 106.474 48.2367 105.901C47.6642 105.328 47.3779 104.619 47.3779 103.772V90.6965Z" fill="#6F5EA5"/>
</g>
</g>
</g>
</svg>
