<svg width="60" height="60" viewBox="0 0 60 60" fill="none" xmlns="http://www.w3.org/2000/svg">
<g id="tabler:brain">
<g id="Group">
<path id="Vector" d="M38.75 32.5C36.4294 32.5 34.2038 33.4219 32.5628 35.0628C30.9219 36.7038 30 38.9294 30 41.25M30 41.25V43.75M30 41.25C30 38.9294 29.0781 36.7038 27.4372 35.0628C25.7962 33.4219 23.5706 32.5 21.25 32.5M30 43.75C30 46.0706 30.9219 48.2962 32.5628 49.9372C34.2038 51.5781 36.4294 52.5 38.75 52.5C41.0706 52.5 43.2962 51.5781 44.9372 49.9372C46.5781 48.2962 47.5 46.0706 47.5 43.75V39.25M30 43.75C30 46.0706 29.0781 48.2962 27.4372 49.9372C25.7962 51.5781 23.5706 52.5 21.25 52.5C18.9294 52.5 16.7038 51.5781 15.0628 49.9372C13.4219 48.2962 12.5 46.0706 12.5 43.75V39.25" stroke="#6F5EA5" stroke-width="2" stroke-linecap="round" stroke-linejoin="round"/>
<path id="Vector_2" d="M43.75 40C46.0706 40 48.2962 39.0781 49.9372 37.4372C51.5781 35.7962 52.5 33.5706 52.5 31.25C52.5 28.9294 51.5781 26.7038 49.9372 25.0628C48.2962 23.4219 46.0706 22.5 43.75 22.5H42.5" stroke="#6F5EA5" stroke-width="2" stroke-linecap="round" stroke-linejoin="round"/>
<path id="Vector_3" d="M47.5 23.25V16.25C47.5 13.9294 46.5781 11.7038 44.9372 10.0628C43.2962 8.42187 41.0706 7.5 38.75 7.5C36.4294 7.5 34.2038 8.42187 32.5628 10.0628C30.9219 11.7038 30 13.9294 30 16.25M16.25 40C13.9294 40 11.7038 39.0781 10.0628 37.4372C8.42187 35.7962 7.5 33.5706 7.5 31.25C7.5 28.9294 8.42187 26.7038 10.0628 25.0628C11.7038 23.4219 13.9294 22.5 16.25 22.5H17.5" stroke="#6F5EA5" stroke-width="2" stroke-linecap="round" stroke-linejoin="round"/>
<path id="Vector_4" d="M12.5 23.25V16.25C12.5 13.9294 13.4219 11.7038 15.0628 10.0628C16.7038 8.42187 18.9294 7.5 21.25 7.5C23.5706 7.5 25.7962 8.42187 27.4372 10.0628C29.0781 11.7038 30 13.9294 30 16.25V41.25" stroke="#6F5EA5" stroke-width="2" stroke-linecap="round" stroke-linejoin="round"/>
</g>
</g>
</svg>
