<svg width="60" height="60" viewBox="0 0 60 60" fill="none" xmlns="http://www.w3.org/2000/svg">
<g id="mdi:meditation">
<path id="Vector" d="M30 10C32.775 10 35 12.225 35 15C35 17.775 32.775 20 30 20C27.225 20 25 17.775 25 15C25 12.225 27.25 10 30 10ZM52.5 40V35C46.9 35 42.1 32.6 38.5 28.3L35.15 24.3C34.6849 23.7362 34.1007 23.2824 33.4393 22.9711C32.778 22.6599 32.0559 22.499 31.325 22.5H28.75C27.225 22.5 25.825 23.15 24.875 24.3L21.525 28.3C17.9 32.6 13.1 35 7.5 35V40C14.425 40 20.475 37.075 25 31.875V37.5L15.3 41.375C13.625 42.05 12.5 43.75 12.5 45.525C12.5 48 14.5 50 16.975 50H22.5V48.75C22.5 47.0924 23.1585 45.5027 24.3306 44.3306C25.5027 43.1585 27.0924 42.5 28.75 42.5H36.25C36.95 42.5 37.5 43.05 37.5 43.75C37.5 44.45 36.95 45 36.25 45H28.75C26.675 45 25 46.675 25 48.75V50H43.025C45.5 50 47.5 48 47.5 45.525C47.5 43.75 46.375 42.05 44.7 41.375L35 37.5V31.875C39.525 37.075 45.575 40 52.5 40Z" fill="#6F5EA5"/>
</g>
</svg>
