<svg width="60" height="60" viewBox="0 0 60 60" fill="none" xmlns="http://www.w3.org/2000/svg">
<g id="icon-park-solid:people-safe-one">
<g id="Group">
<path id="Vector" d="M30 22.5C34.8325 22.5 38.75 18.5825 38.75 13.75C38.75 8.91751 34.8325 5 30 5C25.1675 5 21.25 8.91751 21.25 13.75C21.25 18.5825 25.1675 22.5 30 22.5Z" fill="#6F5EA5" stroke="#6F5EA5" stroke-width="2" stroke-linecap="round" stroke-linejoin="round"/>
<path id="Vector_2" d="M5 51.25C5 40.2038 15.0738 31.25 27.5 31.25" stroke="#6F5EA5" stroke-width="2" stroke-linecap="round" stroke-linejoin="round"/>
<path id="Vector_3" d="M35 36.5C35 35.1663 43.75 32.5 43.75 32.5C43.75 32.5 52.5 35.1663 52.5 36.5C52.5 47.1663 43.75 52.5 43.75 52.5C43.75 52.5 35 47.1663 35 36.5Z" fill="#6F5EA5" stroke="#6F5EA5" stroke-width="2" stroke-linecap="round" stroke-linejoin="round"/>
</g>
</g>
</svg>
