<svg width="60" height="60" viewBox="0 0 60 60" fill="none" xmlns="http://www.w3.org/2000/svg">
<g id="ic:round-model-training">
<path id="Vector" d="M38.75 33.75C38.75 38.75 32.5 42.5 32.5 46.25H27.5C27.5 42.5 21.25 38.75 21.25 33.75C21.25 28.925 25.175 25 30 25C34.825 25 38.75 28.925 38.75 33.75ZM32.5 48.75H27.5V50C27.5 51.375 28.625 52.5 30 52.5C31.375 52.5 32.5 51.375 32.5 50V48.75ZM47.5 32.5C47.5 35.975 46.475 39.225 44.7 41.95C44.3982 42.4299 44.2685 42.998 44.3321 43.5613C44.3957 44.1246 44.6488 44.6495 45.05 45.05C46.15 46.15 48.05 46 48.9 44.675C51.2569 41.0524 52.5079 36.8218 52.5 32.5C52.5 26.6 50.225 21.225 46.5 17.2C45.525 16.15 43.875 16.125 42.875 17.125C41.925 18.075 41.925 19.6 42.825 20.6C45.8348 23.831 47.5057 28.0843 47.5 32.5ZM39.125 11.625L32.15 4.65001C31.9761 4.47139 31.7529 4.34871 31.5089 4.29768C31.2649 4.24665 31.0112 4.26958 30.7803 4.36354C30.5494 4.45751 30.3518 4.61823 30.2128 4.82514C30.0738 5.03205 29.9997 5.27573 30 5.52501V10C25.9564 10.001 21.9878 11.0916 18.5117 13.1571C15.0355 15.2227 12.1802 18.1868 10.2461 21.7378C8.31197 25.2888 7.37053 29.2954 7.52079 33.3361C7.67105 37.3769 8.90746 41.3025 11.1 44.7C11.95 46.025 13.85 46.175 14.95 45.075C15.775 44.25 15.925 42.975 15.3 42C11.825 36.625 11.2 29.25 15.625 22C18.625 17.125 24.275 14.525 30 15V19.475C30 20.6 31.35 21.15 32.125 20.35L39.1 13.375C39.6 12.9 39.6 12.1 39.125 11.625Z" fill="#6F5EA5"/>
</g>
</svg>
