<svg width="57" height="56" viewBox="0 0 57 56" fill="none" xmlns="http://www.w3.org/2000/svg">
<g id="bx:support">
<path id="Vector" d="M28.5 4.6665C15.634 4.6665 5.16669 15.1338 5.16669 27.9998V37.6668C5.16669 40.0562 7.25969 41.9998 9.83335 41.9998H12.1667C12.7855 41.9998 13.379 41.754 13.8166 41.3164C14.2542 40.8788 14.5 40.2853 14.5 39.6665V27.6662C14.5 27.0473 14.2542 26.4538 13.8166 26.0163C13.379 25.5787 12.7855 25.3328 12.1667 25.3328H10.048C11.3454 16.3028 19.1154 9.33317 28.5 9.33317C37.8847 9.33317 45.6547 16.3028 46.952 25.3328H44.8334C44.2145 25.3328 43.621 25.5787 43.1834 26.0163C42.7459 26.4538 42.5 27.0473 42.5 27.6662V41.9998C42.5 44.5735 40.407 46.6665 37.8334 46.6665H33.1667V44.3332H23.8334V51.3332H37.8334C42.9807 51.3332 47.1667 47.1472 47.1667 41.9998C49.7404 41.9998 51.8334 40.0562 51.8334 37.6668V27.9998C51.8334 15.1338 41.366 4.6665 28.5 4.6665Z" fill="#6F5EA5"/>
</g>
</svg>
