<svg width="57" height="56" viewBox="0 0 57 56" fill="none" xmlns="http://www.w3.org/2000/svg">
<g id="carbon:area-custom">
<path id="Vector" d="M53 10.5002C52.9946 8.68496 52.2828 6.94315 51.0154 5.64361C49.7481 4.34408 48.0246 3.58886 46.2101 3.53791C44.3956 3.48696 42.6326 4.14427 41.2943 5.37064C39.956 6.597 39.1476 8.29612 39.0403 10.1082L17.2755 14.4604C16.7666 13.4027 15.9994 12.4904 15.0446 11.8078C14.0898 11.1251 12.9784 10.6941 11.813 10.5547C10.6476 10.4152 9.46582 10.5718 8.37694 11.01C7.28807 11.4481 6.32721 12.1536 5.58316 13.0614C4.83912 13.9691 4.3359 15.0498 4.12002 16.2035C3.90415 17.3572 3.98257 18.5467 4.34806 19.662C4.71354 20.7774 5.35428 21.7826 6.21107 22.5848C7.06786 23.387 8.11303 23.9603 9.25001 24.2517V38.7487C8.05581 39.0547 6.96386 39.6713 6.08503 40.5358C5.2062 41.4003 4.57178 42.482 4.24621 43.671C3.92063 44.86 3.91548 46.114 4.23129 47.3056C4.5471 48.4973 5.17261 49.5841 6.04432 50.4558C6.91603 51.3276 8.00288 51.9531 9.19453 52.2689C10.3862 52.5847 11.6402 52.5795 12.8292 52.254C14.0182 51.9284 15.0999 51.294 15.9644 50.4151C16.8289 49.5363 17.4455 48.4444 17.7515 47.2502H32.2485C32.5394 48.3879 33.1125 49.4339 33.9148 50.2914C34.7171 51.149 35.7226 51.7904 36.8385 52.1564C37.9543 52.5224 39.1444 52.6011 40.2987 52.3852C41.453 52.1694 42.5343 51.666 43.4425 50.9216C44.3507 50.1771 45.0566 49.2157 45.4948 48.1262C45.933 47.0367 46.0894 45.8543 45.9496 44.6883C45.8098 43.5224 45.3782 42.4105 44.6948 41.4555C44.0114 40.5005 43.0982 39.7332 42.0398 39.2247L46.392 17.4599C48.1736 17.3621 49.8503 16.5869 51.0788 15.293C52.3073 13.999 52.9947 12.2844 53 10.5002ZM46 7.00016C46.6922 7.00016 47.3689 7.20543 47.9445 7.59002C48.5201 7.9746 48.9687 8.52123 49.2336 9.16077C49.4985 9.80031 49.5678 10.504 49.4328 11.183C49.2977 11.8619 48.9644 12.4856 48.4749 12.975C47.9854 13.4645 47.3618 13.7979 46.6828 13.9329C46.0039 14.068 45.3002 13.9986 44.6606 13.7337C44.0211 13.4688 43.4744 13.0202 43.0899 12.4447C42.7053 11.8691 42.5 11.1924 42.5 10.5002C42.5 9.5719 42.8688 8.68166 43.5251 8.02529C44.1815 7.36891 45.0718 7.00016 46 7.00016ZM7.50001 17.5002C7.50001 16.8079 7.70528 16.1312 8.08986 15.5557C8.47445 14.9801 9.02107 14.5315 9.66062 14.2666C10.3002 14.0017 11.0039 13.9324 11.6828 14.0674C12.3618 14.2025 12.9854 14.5358 13.4749 15.0253C13.9644 15.5148 14.2977 16.1384 14.4328 16.8173C14.5678 17.4963 14.4985 18.2 14.2336 18.8396C13.9687 19.4791 13.5201 20.0257 12.9445 20.4103C12.3689 20.7949 11.6922 21.0002 11 21.0002C10.0718 21.0002 9.18151 20.6314 8.52513 19.975C7.86876 19.3187 7.50001 18.4284 7.50001 17.5002ZM11 49.0002C10.3078 49.0002 9.63108 48.7949 9.05551 48.4103C8.47994 48.0257 8.03134 47.4791 7.76643 46.8396C7.50152 46.2 7.43221 45.4963 7.56726 44.8173C7.70231 44.1384 8.03565 43.5148 8.52513 43.0253C9.01462 42.5358 9.63826 42.2025 10.3172 42.0674C10.9961 41.9324 11.6999 42.0017 12.3394 42.2666C12.9789 42.5315 13.5256 42.9801 13.9102 43.5557C14.2947 44.1312 14.5 44.8079 14.5 45.5002C14.5 46.4284 14.1313 47.3187 13.4749 47.975C12.8185 48.6314 11.9283 49.0002 11 49.0002ZM32.2485 43.7502H17.7515C17.437 42.5475 16.808 41.4502 15.9289 40.5712C15.0499 39.6922 13.9527 39.0631 12.75 38.7487V24.2517C14.1794 23.879 15.4539 23.0626 16.39 21.9199C17.3261 20.7772 17.8757 19.367 17.9598 17.8922L39.7245 13.5399C40.4098 14.9512 41.5494 16.0913 42.9603 16.7774L38.608 38.5404C37.1332 38.6244 35.723 39.174 34.5803 40.1102C33.4376 41.0463 32.6212 42.3207 32.2485 43.7502ZM39 49.0002C38.3078 49.0002 37.6311 48.7949 37.0555 48.4103C36.4799 48.0257 36.0313 47.4791 35.7664 46.8396C35.5015 46.2 35.4322 45.4963 35.5673 44.8173C35.7023 44.1384 36.0357 43.5148 36.5251 43.0253C37.0146 42.5358 37.6383 42.2025 38.3172 42.0674C38.9961 41.9324 39.6999 42.0017 40.3394 42.2666C40.9789 42.5315 41.5256 42.9801 41.9102 43.5557C42.2947 44.1312 42.5 44.8079 42.5 45.5002C42.5 46.4284 42.1313 47.3187 41.4749 47.975C40.8185 48.6314 39.9283 49.0002 39 49.0002Z" fill="#6F5EA5"/>
</g>
</svg>
