<svg width="57" height="56" viewBox="0 0 57 56" fill="none" xmlns="http://www.w3.org/2000/svg">
<g id="solar:meditation-outline">
<path id="Vector" fill-rule="evenodd" clip-rule="evenodd" d="M28.5 6.4165C27.9638 6.4165 27.4328 6.52212 26.9374 6.72733C26.442 6.93254 25.9918 7.23331 25.6126 7.61248C25.2335 7.99166 24.9327 8.4418 24.7275 8.93721C24.5223 9.43263 24.4167 9.96361 24.4167 10.4998C24.4167 11.0361 24.5223 11.567 24.7275 12.0625C24.9327 12.5579 25.2335 13.008 25.6126 13.3872C25.9918 13.7664 26.442 14.0671 26.9374 14.2723C27.4328 14.4776 27.9638 14.5832 28.5 14.5832C29.583 14.5832 30.6216 14.153 31.3874 13.3872C32.1531 12.6214 32.5833 11.5828 32.5833 10.4998C32.5833 9.41687 32.1531 8.37826 31.3874 7.61248C30.6216 6.84671 29.583 6.4165 28.5 6.4165ZM20.9167 10.4998C20.9167 8.48861 21.7156 6.55976 23.1378 5.13761C24.5599 3.71546 26.4888 2.9165 28.5 2.9165C30.5112 2.9165 32.4401 3.71546 33.8622 5.13761C35.2844 6.55976 36.0833 8.48861 36.0833 10.4998C36.0833 12.5111 35.2844 14.4399 33.8622 15.8621C32.4401 17.2842 30.5112 18.0832 28.5 18.0832C26.4888 18.0832 24.5599 17.2842 23.1378 15.8621C21.7156 14.4399 20.9167 12.5111 20.9167 10.4998ZM30.5277 22.9178C29.1851 22.6947 27.8149 22.6947 26.4723 22.9178C20.6227 23.9048 16.2523 29.0405 16.2523 35.0465C16.2523 36.3625 15.5127 37.5782 14.3297 38.1755L8.28867 41.2298C7.87698 41.42 7.40755 41.4429 6.97931 41.2937C6.55106 41.1446 6.19743 40.835 5.99294 40.4302C5.78844 40.0255 5.74905 39.5572 5.88306 39.1239C6.01707 38.6907 6.31402 38.3264 6.71133 38.1078L12.7477 35.0558L12.75 35.0488C12.75 27.3348 18.3547 20.7385 25.8913 19.4692C27.6185 19.1813 29.3815 19.1813 31.1087 19.4692C38.6453 20.7385 44.25 27.3348 44.25 35.0488V35.0558L50.2887 38.1078C50.502 38.2064 50.6933 38.3469 50.8512 38.5209C51.009 38.695 51.1302 38.8991 51.2075 39.121C51.2848 39.3429 51.3166 39.5781 51.3011 39.8126C51.2855 40.0471 51.2228 40.276 51.1169 40.4857C51.0109 40.6955 50.8638 40.8817 50.6843 41.0334C50.5048 41.185 50.2966 41.299 50.0721 41.3684C49.8476 41.4379 49.6114 41.4614 49.3776 41.4376C49.1438 41.4138 48.9172 41.3431 48.7113 41.2298L42.6703 38.1778C42.0919 37.8853 41.606 37.4378 41.267 36.8853C40.9279 36.3329 40.7489 35.6971 40.75 35.0488C40.75 29.0428 36.3797 23.9072 30.5277 22.9202M23.7167 35.9332C24.088 36.2116 24.3334 36.6262 24.3991 37.0857C24.4647 37.5451 24.3451 38.0119 24.0667 38.3832L21.626 41.6382L21.4603 41.8552C20.5588 42.9955 19.2968 43.796 17.881 44.1255L17.8623 44.1302L14.3973 44.9958C13.593 45.196 12.8788 45.6598 12.3688 46.3132C11.8588 46.9666 11.5823 47.772 11.5833 48.6008C11.5833 49.1422 12.0243 49.5832 12.5657 49.5832H16.1963C17.636 49.5832 18.2147 49.5808 18.77 49.5132C20.1194 49.3551 21.4218 48.9215 22.5967 48.2392C23.0773 47.9592 23.5417 47.6138 24.692 46.7505L25.1167 46.4332L29.7833 42.9332C30.1546 42.6547 30.6214 42.5351 31.0808 42.6008C31.5403 42.6664 31.9549 42.9119 32.2333 43.2832C32.5118 43.6545 32.6314 44.1212 32.5657 44.5807C32.5001 45.0401 32.2546 45.4547 31.8833 45.7332L29.774 47.3152L32.707 48.4165C34.17 48.9648 34.7603 49.1818 35.36 49.3242C35.682 49.3988 36.0087 49.4579 36.34 49.5015C36.949 49.5808 37.5767 49.5832 39.14 49.5832H44.4343C44.5634 49.5835 44.6913 49.5583 44.8106 49.509C44.9299 49.4598 45.0384 49.3874 45.1296 49.2961C45.2209 49.2049 45.2933 49.0964 45.3425 48.9771C45.3918 48.8578 45.417 48.7299 45.4167 48.6008C45.4167 46.8975 44.257 45.4088 42.6027 44.9958L39.119 44.1255L38.8577 44.0555C37.4569 43.6673 36.2295 42.815 35.3763 41.6382L35.3647 41.6242L32.9333 38.3832C32.7954 38.1993 32.6951 37.9901 32.6381 37.7675C32.581 37.5449 32.5684 37.3132 32.6009 37.0857C32.6334 36.8582 32.7104 36.6393 32.8275 36.4416C32.9446 36.2438 33.0995 36.0711 33.2833 35.9332C33.4672 35.7953 33.6764 35.695 33.899 35.6379C34.1216 35.5809 34.3533 35.5683 34.5808 35.6008C34.8083 35.6333 35.0272 35.7103 35.2249 35.8273C35.4227 35.9444 35.5954 36.0993 35.7333 36.2832L38.1647 39.5242L38.286 39.6852C38.7116 40.2246 39.314 40.5965 39.987 40.7352L43.452 41.5985C45.0134 41.9881 46.3996 42.8888 47.3899 44.1573C48.3802 45.4258 48.9177 46.9892 48.9167 48.5985C48.9167 51.0765 46.91 53.0832 44.4343 53.0832H39.021C37.614 53.0832 36.7483 53.0832 35.8873 52.9712C35.442 52.9124 34.9997 52.8322 34.562 52.7308C33.7173 52.5325 32.9053 52.2292 31.5917 51.7368L26.4513 49.8095C25.5623 50.4745 24.9767 50.9062 24.3513 51.2655C22.7634 52.1891 21.0027 52.7768 19.1783 52.9922C18.3967 53.0855 17.601 53.0832 16.3083 53.0832H12.568C11.9795 53.0832 11.3967 52.9672 10.853 52.7419C10.3093 52.5166 9.81537 52.1864 9.39934 51.7702C8.9833 51.3539 8.65335 50.8598 8.42835 50.316C8.20335 49.7722 8.08769 49.1894 8.088 48.6008C8.08688 46.9919 8.62398 45.4287 9.61382 44.1603C10.6037 42.8918 11.9893 41.9908 13.5503 41.6008L17.0153 40.7352L17.2113 40.6838C17.873 40.5007 18.4489 40.0901 18.8377 39.5242L21.2667 36.2832C21.4046 36.0993 21.5773 35.9444 21.7751 35.8273C21.9728 35.7103 22.1917 35.6333 22.4192 35.6008C22.6467 35.5683 22.8784 35.5809 23.101 35.6379C23.3236 35.695 23.5328 35.7953 23.7167 35.9332Z" fill="#6F5EA5"/>
</g>
</svg>
