<svg width="189" height="188" viewBox="0 0 189 188" fill="none" xmlns="http://www.w3.org/2000/svg">
<path d="M60.4811 35.5156C52.8422 34.9815 46.139 40.808 45.6048 48.4466L38.5581 149.21C38.0239 156.848 43.8512 163.545 51.4902 164.079L127.918 169.422C135.557 169.957 142.259 164.136 142.794 156.498L149.84 55.7347C150.375 48.0961 144.548 41.3935 136.909 40.8594L126.486 40.1306L125.514 54.0338C125.113 59.7579 120.075 64.127 114.355 63.7271L79.6324 61.2993C73.912 60.8993 69.5384 55.868 69.9384 50.148L69.9412 50.1087C70.2954 45.4922 70.5946 40.8647 70.8828 36.2437L60.4811 35.5156ZM64.7562 74.2302L82.1276 75.4448C84.0524 75.5794 85.4936 77.2373 85.359 79.1619L84.1442 96.5324C84.0096 98.4571 82.3517 99.8983 80.4269 99.7637L63.0555 98.5491C61.1307 98.4145 59.6895 96.7567 59.8241 94.832L61.0389 77.4615C61.1735 75.5368 62.8314 74.0957 64.7562 74.2302ZM131.121 78.8704L131.155 78.8728C135.937 79.3127 135.032 86.536 130.29 85.781L99.0218 83.5947C94.7258 83.202 94.8454 76.8852 99.1529 76.6489C99.2707 76.6512 99.3885 76.6595 99.5058 76.6736L130.774 78.8599C130.89 78.8578 131.005 78.8623 131.121 78.8704ZM97.945 94.0062C98.0606 94.0109 98.1761 94.0216 98.2905 94.0376L115.655 95.2518C120.399 95.4779 119.898 102.636 115.169 102.2L97.8047 100.986C93.2689 100.787 93.4049 94.0292 97.945 94.0062ZM96.4553 118.333C96.5029 118.336 96.5502 118.339 96.5977 118.343L127.86 120.529C132.496 120.853 132.01 127.808 127.373 127.484L96.1114 125.298C91.4709 125.066 91.8149 118.101 96.4553 118.333ZM61.8407 115.92L79.2121 117.135C81.1369 117.269 82.5781 118.927 82.4435 120.851L81.2287 138.222C81.094 140.147 79.4362 141.588 77.5114 141.453L60.1399 140.239C58.2152 140.104 56.774 138.446 56.9086 136.522L58.1234 119.151C58.258 117.226 59.9159 115.785 61.8407 115.92ZM95.3833 135.707L112.741 136.921C117.265 137.342 116.793 144.085 112.255 143.869L94.8974 142.655C90.374 142.234 90.8456 135.491 95.3833 135.707Z" fill="#006B5F"/>
<path d="M85.3159 36.6646C87.3317 30.6527 93.1534 26.7604 99.4796 27.1951C105.808 27.6418 111.035 32.307 112.195 38.5436L119.598 39.0611L118.868 49.4965C118.603 53.2857 115.216 56.2217 111.426 55.9586L83.6657 54.0308C79.8762 53.7677 76.938 50.3858 77.203 46.5966L77.2049 46.5702C77.5487 42.0722 77.6144 40.8171 77.9049 36.1597L85.3159 36.6646Z" fill="#00201C"/>
</svg>
