<svg width="196" height="197" viewBox="0 0 196 197" fill="none" xmlns="http://www.w3.org/2000/svg">
<g clip-path="url(#clip0_2756_24170)">
<path d="M103.556 178.209C145.953 178.209 180.322 143.84 180.322 101.442C180.322 59.0454 145.953 24.6758 103.556 24.6758C61.1587 24.6758 26.7891 59.0454 26.7891 101.442C26.7891 143.84 61.1587 178.209 103.556 178.209Z" fill="#F4F7F8"/>
<path fill-rule="evenodd" clip-rule="evenodd" d="M161.127 45.549C162.501 42.0604 162.908 38.5783 163.505 34.9331C163.622 34.2212 163.138 33.5516 162.427 33.4343C161.714 33.3169 161.042 33.8009 160.925 34.5128C160.359 37.9693 159.998 41.2823 158.694 44.5961C158.43 45.2664 158.762 46.0251 159.433 46.2861C160.104 46.5513 160.864 46.2193 161.127 45.549Z" fill="#303030"/>
<path fill-rule="evenodd" clip-rule="evenodd" d="M167.751 53.5589C174.526 48.866 181.164 42.5505 186.097 35.9367C186.528 35.3589 186.408 34.5407 185.828 34.1125C185.249 33.6843 184.43 33.8024 184 34.3802C179.229 40.7748 172.81 46.8829 166.259 51.4175C165.667 51.8289 165.521 52.642 165.932 53.2319C166.344 53.8218 167.159 53.9704 167.751 53.5589Z" fill="#303030"/>
<path fill-rule="evenodd" clip-rule="evenodd" d="M168.475 59.77C173.875 61.4185 179.774 60.6314 185.089 59.113C185.782 58.9123 186.183 58.1904 185.984 57.5019C185.785 56.8091 185.06 56.4095 184.367 56.6058C179.527 57.9906 174.156 58.7785 169.238 57.2779C168.548 57.0671 167.817 57.4555 167.607 58.1417C167.396 58.8278 167.785 59.5593 168.475 59.77Z" fill="#303030"/>
<path d="M31.9881 135.764C31.8047 135.198 32.1175 134.59 32.6849 134.41L32.7924 134.382C33.3277 134.269 33.873 134.577 34.0447 135.107C35.1011 138.371 37.1032 140.847 40.0438 142.619L40.0426 142.62C40.5226 142.907 40.6979 143.508 40.463 144.002L40.4098 144.099C40.1021 144.606 39.4372 144.771 38.9269 144.461C35.533 142.416 33.2106 139.539 31.9881 135.764Z" fill="#303030" stroke="black" stroke-width="0.653333"/>
<path d="M16.4753 186.156C15.7092 179.982 19.4803 174.406 25.4687 172.721C25.1646 172.135 24.8959 171.531 24.6641 170.914L24.5448 170.585C22.1415 163.632 25.8484 155.558 33.6616 150.725C34.9404 149.935 36.6162 149.499 38.5052 149.32C40.3979 149.141 42.5283 149.218 44.7336 149.467L45.6671 149.582C49.6578 150.11 53.8444 151.128 57.2291 152.064C55.7765 150.938 54.3914 149.738 53.0245 148.491C46.1867 142.246 38.8195 135.937 34.532 127.468L34.5322 127.467C34.2654 126.935 34.4769 126.287 35.0111 126.021L35.1117 125.977C35.6237 125.782 36.2096 126.005 36.4611 126.5C40.6003 134.674 47.7437 140.751 54.4826 146.904C56.5916 148.83 58.7301 150.623 61.0972 152.198L61.0982 152.199C61.8112 152.675 62.5048 153.148 63.2288 153.579C63.2318 153.581 63.2407 153.585 63.2583 153.59C63.2807 153.597 63.3096 153.604 63.3475 153.612C63.3861 153.62 63.4257 153.627 63.4736 153.635L63.6222 153.666L63.625 153.667C63.8818 153.729 64.1491 153.81 64.3465 153.921L64.349 153.923C64.7088 154.129 64.9172 154.431 64.9936 154.763L64.9941 154.765C65.0485 155.007 65.0391 155.288 64.8975 155.591L64.8955 155.594C64.7926 155.808 64.5711 156.131 64.0636 156.203C64.0038 156.212 63.9349 156.208 63.8824 156.204C63.82 156.199 63.7431 156.189 63.654 156.173C63.4754 156.143 63.2376 156.091 62.9497 156.006L62.9488 156.006C60.6923 155.337 53.1331 152.832 46.0429 151.807C43.7665 151.478 41.5513 151.292 39.6009 151.377C37.7669 151.458 36.1967 151.778 35.0311 152.422L34.8035 152.555C27.718 156.938 24.4195 164.12 26.688 170.164C26.9756 170.93 27.3268 171.67 27.7409 172.374C28.2683 172.411 28.9191 172.522 29.5634 172.702C30.28 172.904 31.0151 173.198 31.57 173.592C32.1515 174.006 32.5653 174.543 32.6923 175.158C32.8262 175.804 32.6648 176.527 32.0125 177.253C31.4543 177.874 30.6844 177.944 29.9509 177.679C29.2787 177.437 28.6057 176.87 28.3073 176.579L28.0606 176.333C27.5459 175.806 27.0747 175.24 26.6471 174.646C21.3529 175.837 17.9685 180.59 18.6193 185.888L18.696 186.408C18.7964 186.998 18.3992 187.551 17.8133 187.652L17.8111 187.652C17.2263 187.749 16.6665 187.358 16.5657 186.769L16.4753 186.156ZM29.8574 175.08C30.02 175.233 30.2864 175.459 30.5571 175.598L30.5634 175.601C30.5639 175.6 30.5647 175.599 30.5651 175.599C30.5683 175.592 30.5699 175.587 30.5713 175.583C30.5672 175.571 30.5575 175.547 30.5219 175.51C30.4757 175.462 30.41 175.411 30.3164 175.344L30.3155 175.344C30.1817 175.249 30.026 175.161 29.8574 175.08Z" fill="#303030" stroke="black" stroke-width="0.653333"/>
<path d="M89.2009 47.8435C88.8628 46.4428 86.8703 46.4428 86.5322 47.8435L86.0942 49.6579C85.9734 50.1585 85.5825 50.5494 85.082 50.6702L83.2676 51.1082C81.8668 51.4463 81.8668 53.4387 83.2676 53.7769L85.082 54.2149C85.5825 54.3357 85.9734 54.7265 86.0942 55.2271L86.5322 57.0415C86.8703 58.4423 88.8628 58.4423 89.2009 57.0415L89.6389 55.2271C89.7597 54.7265 90.1506 54.3357 90.6511 54.2149L92.4655 53.7769C93.8663 53.4387 93.8663 51.4463 92.4655 51.1082L90.6511 50.6702C90.1506 50.5494 89.7597 50.1585 89.6389 49.6579L89.2009 47.8435Z" fill="#5630A7"/>
<circle cx="147.655" cy="144.234" r="3.92" fill="#5630A7"/>
<path d="M77.1548 94.596C78.0337 88.014 80.56 81.7624 84.4981 76.4246C88.4362 71.0868 93.6579 66.8366 99.6759 64.0706C105.694 61.3046 112.312 60.1128 118.913 60.6065C125.515 61.1001 131.884 63.2632 137.427 66.8937L152.528 61.7434C152.983 61.5928 153.472 61.5762 153.937 61.6956C154.402 61.815 154.822 62.0654 155.15 62.4172C155.477 62.769 155.697 63.2074 155.784 63.6807C155.871 64.154 155.82 64.6422 155.639 65.0878L149.583 79.5799C152.804 84.963 154.693 91.0417 155.091 97.3074C155.49 103.573 154.386 109.843 151.873 115.593C149.36 121.343 145.511 126.406 140.648 130.357C135.784 134.308 130.048 137.033 123.919 138.304C117.79 139.574 111.447 139.354 105.421 137.66C99.3949 135.967 93.8607 132.85 89.2817 128.57C84.7027 124.29 81.2122 118.972 79.1023 113.062C76.9925 107.151 76.3247 100.819 77.1548 94.596Z" fill="#303030"/>
<path d="M51.3462 112.164C52.2251 118.746 54.7514 124.997 58.6895 130.335C62.6276 135.673 67.8493 139.923 73.8673 142.689C79.8853 145.455 86.5037 146.647 93.1049 146.153C99.7062 145.66 106.075 143.497 111.618 139.866L126.719 145.016C127.175 145.167 127.664 145.184 128.128 145.064C128.593 144.945 129.014 144.694 129.341 144.343C129.668 143.991 129.888 143.552 129.975 143.079C130.062 142.606 130.012 142.118 129.831 141.672L123.775 127.18C126.995 121.797 128.884 115.718 129.283 109.452C129.681 103.187 128.578 96.9165 126.065 91.1665C123.552 85.4165 119.703 80.354 114.839 76.4028C109.976 72.4516 104.239 69.7266 98.1106 68.456C91.9819 67.1853 85.6389 67.406 79.6126 69.0995C73.5863 70.793 68.0521 73.91 63.4731 78.1897C58.8941 82.4694 55.4036 87.7873 53.2937 93.6981C51.1839 99.609 50.5161 105.941 51.3462 112.164Z" fill="#006B5F"/>
<path fill-rule="evenodd" clip-rule="evenodd" d="M83.0866 118.465C83.0866 113.476 86.7431 109.828 90.7868 109.828C94.8304 109.828 98.4869 113.476 98.4869 118.465H103.702C103.702 111.032 98.1288 104.612 90.7868 104.612C83.4447 104.612 77.8711 111.032 77.8711 118.465H83.0866Z" fill="white"/>
<path d="M76.7284 104.414C79.3161 104.414 81.4138 102.316 81.4138 99.7284C81.4138 97.1407 79.3161 95.043 76.7284 95.043C74.1407 95.043 72.043 97.1407 72.043 99.7284C72.043 102.316 74.1407 104.414 76.7284 104.414Z" fill="white"/>
<path d="M104.838 104.414C107.425 104.414 109.523 102.316 109.523 99.7284C109.523 97.1407 107.425 95.043 104.838 95.043C102.25 95.043 100.152 97.1407 100.152 99.7284C100.152 102.316 102.25 104.414 104.838 104.414Z" fill="white"/>
</g>
<defs>
<clipPath id="clip0_2756_24170">
<rect width="196" height="196" fill="white" transform="translate(0 0.5)"/>
</clipPath>
</defs>
</svg>
