<svg width="497" height="320" viewBox="0 0 497 320" fill="none" xmlns="http://www.w3.org/2000/svg">
<rect x="0.6875" width="495.5" height="320" rx="11" fill="#EAE5FF"/>
<path d="M53.9762 48.75C47.4513 48.75 42.6875 55.5662 42.6875 62.9163C42.6875 64.8913 42.995 66.7825 43.5375 68.5788C43.8042 69.4579 44.1221 70.3137 44.4912 71.1462C49.625 82.7562 63.9375 89.8338 63.9375 89.8338C63.9375 89.8338 67.1037 88.1663 70.9925 85.2163C68.53 83.4762 65.125 80.5325 63.4825 76.69C63.2846 76.2282 63.1147 75.7548 62.9738 75.2725C62.6753 74.2584 62.523 73.207 62.5213 72.15C62.5213 68.0938 65.0625 64.3337 68.5413 64.3337C70.9563 64.3337 72.7475 66.0213 73.8537 68.4138C74.96 66.0213 76.7525 64.3337 79.1662 64.3337C81.4688 64.3337 83.3587 65.9788 84.375 68.2663C84.8937 66.5538 85.1875 64.7663 85.1875 62.9163C85.1875 55.5662 80.4238 48.75 73.8988 48.75C69.3713 48.75 66.0112 51.8087 63.9375 56.1462C61.8638 51.8087 58.5037 48.75 53.9762 48.75ZM83.2575 71.3762C83.4436 71.3789 83.6274 71.4181 83.7983 71.4918C83.9692 71.5655 84.1239 71.6721 84.2536 71.8056C84.3832 71.9391 84.4853 72.0969 84.554 72.2698C84.6227 72.4428 84.6566 72.6277 84.6538 72.8137C84.5913 77.4513 82.3475 80.6075 80.1675 82.5637C79.2603 83.3747 78.2649 84.0812 77.2 84.67C76.7836 84.9 76.3555 85.1082 75.9175 85.2938C75.8808 85.3071 75.8521 85.3188 75.8312 85.3288L75.805 85.3387L75.795 85.3425L75.7913 85.3438C75.4433 85.4617 75.0631 85.44 74.7309 85.2831C74.3987 85.1262 74.1403 84.8465 74.0103 84.5029C73.8803 84.1592 73.8888 83.7785 74.034 83.441C74.1792 83.1035 74.4498 82.8356 74.7887 82.6937L74.795 82.6912L74.84 82.6725L75.045 82.585C76.2199 82.0376 77.3082 81.3208 78.275 80.4575C80.0413 78.87 81.7712 76.4137 81.8213 72.7738C81.8237 72.5877 81.8628 72.4039 81.9363 72.2329C82.0098 72.0619 82.1163 71.9071 82.2497 71.7773C82.3831 71.6475 82.5408 71.5453 82.7137 71.4765C82.8866 71.4077 83.0714 71.3736 83.2575 71.3762Z" fill="#6C5CE7"/>
<path d="M51.0149 134.711H46.9709C46.897 134.188 46.7462 133.723 46.5185 133.317C46.2907 132.904 45.9983 132.554 45.6413 132.264C45.2843 131.975 44.8719 131.753 44.4041 131.599C43.9425 131.446 43.4408 131.369 42.8991 131.369C41.9205 131.369 41.0679 131.612 40.3416 132.098C39.6153 132.578 39.0521 133.28 38.652 134.203C38.2519 135.12 38.0518 136.234 38.0518 137.545C38.0518 138.893 38.2519 140.026 38.652 140.943C39.0582 141.86 39.6245 142.553 40.3509 143.021C41.0772 143.488 41.9174 143.722 42.8714 143.722C43.407 143.722 43.9025 143.652 44.358 143.51C44.8196 143.368 45.2289 143.162 45.5859 142.891C45.9429 142.614 46.2384 142.279 46.4723 141.885C46.7124 141.491 46.8786 141.042 46.9709 140.537L51.0149 140.555C50.9103 141.423 50.6487 142.26 50.2301 143.067C49.8177 143.867 49.2607 144.584 48.5589 145.218C47.8634 145.846 47.0324 146.344 46.0661 146.714C45.1058 147.077 44.0194 147.259 42.8068 147.259C41.1203 147.259 39.6122 146.877 38.2827 146.114C36.9593 145.35 35.9129 144.246 35.1435 142.799C34.3802 141.353 33.9986 139.601 33.9986 137.545C33.9986 135.483 34.3864 133.729 35.1619 132.283C35.9375 130.836 36.9901 129.734 38.3196 128.977C39.6491 128.214 41.1449 127.832 42.8068 127.832C43.9025 127.832 44.9181 127.986 45.8537 128.294C46.7955 128.602 47.6295 129.051 48.3558 129.642C49.0821 130.227 49.6731 130.944 50.1286 131.793C50.5902 132.643 50.8857 133.615 51.0149 134.711ZM63.1183 140.962V132.818H67.0516V147H63.2753V144.424H63.1276C62.8075 145.255 62.2751 145.923 61.5303 146.428C60.7916 146.932 59.8899 147.185 58.825 147.185C57.8771 147.185 57.0431 146.969 56.3229 146.538C55.6027 146.107 55.0395 145.495 54.6333 144.701C54.2332 143.907 54.03 142.956 54.0239 141.848V132.818H57.9571V141.146C57.9633 141.983 58.1879 142.645 58.6311 143.131C59.0743 143.618 59.6683 143.861 60.4131 143.861C60.887 143.861 61.3302 143.753 61.7426 143.538C62.155 143.316 62.4874 142.99 62.7398 142.559C62.9983 142.128 63.1245 141.596 63.1183 140.962ZM82.2134 136.862L78.6126 137.084C78.551 136.776 78.4187 136.499 78.2156 136.253C78.0124 136 77.7447 135.8 77.4123 135.653C77.0861 135.499 76.6952 135.422 76.2397 135.422C75.6303 135.422 75.1164 135.551 74.6978 135.81C74.2792 136.062 74.07 136.401 74.07 136.825C74.07 137.164 74.2054 137.45 74.4762 137.684C74.747 137.918 75.2118 138.106 75.8704 138.247L78.4371 138.764C79.8159 139.047 80.8439 139.503 81.521 140.131C82.198 140.759 82.5366 141.583 82.5366 142.605C82.5366 143.535 82.2627 144.35 81.7148 145.052C81.1732 145.754 80.4284 146.301 79.4805 146.695C78.5387 147.083 77.4523 147.277 76.2212 147.277C74.3439 147.277 72.8481 146.886 71.734 146.104C70.6261 145.317 69.9767 144.246 69.7859 142.891L73.6545 142.688C73.7714 143.261 74.0546 143.698 74.5039 143.999C74.9532 144.295 75.5288 144.442 76.2305 144.442C76.9199 144.442 77.4738 144.31 77.8924 144.045C78.3171 143.775 78.5326 143.427 78.5387 143.002C78.5326 142.645 78.3818 142.353 78.0863 142.125C77.7908 141.891 77.3353 141.713 76.7198 141.589L74.2639 141.1C72.8789 140.823 71.8479 140.343 71.1708 139.66C70.4999 138.977 70.1644 138.106 70.1644 137.047C70.1644 136.136 70.4106 135.351 70.9031 134.692C71.4016 134.034 72.1003 133.526 72.9989 133.169C73.9038 132.812 74.9625 132.634 76.1751 132.634C77.9663 132.634 79.3758 133.012 80.4038 133.769C81.4379 134.526 82.0411 135.557 82.2134 136.862ZM92.7726 132.818V135.773H84.2322V132.818H92.7726ZM86.1711 129.42H90.1043V142.642C90.1043 143.005 90.1597 143.288 90.2705 143.491C90.3813 143.688 90.5352 143.827 90.7322 143.907C90.9353 143.987 91.1692 144.027 91.4339 144.027C91.6185 144.027 91.8032 144.012 91.9878 143.981C92.1725 143.944 92.3141 143.916 92.4126 143.898L93.0312 146.825C92.8342 146.886 92.5572 146.957 92.2002 147.037C91.8432 147.123 91.4092 147.175 90.8984 147.194C89.9504 147.231 89.1195 147.105 88.4055 146.815C87.6976 146.526 87.1467 146.077 86.7528 145.467C86.3588 144.858 86.1649 144.089 86.1711 143.159V129.42ZM101.806 147.277C100.372 147.277 99.1316 146.972 98.0852 146.363C97.045 145.747 96.2417 144.892 95.6754 143.796C95.1091 142.694 94.826 141.417 94.826 139.964C94.826 138.5 95.1091 137.219 95.6754 136.124C96.2417 135.022 97.045 134.166 98.0852 133.557C99.1316 132.941 100.372 132.634 101.806 132.634C103.24 132.634 104.478 132.941 105.518 133.557C106.564 134.166 107.371 135.022 107.937 136.124C108.503 137.219 108.786 138.5 108.786 139.964C108.786 141.417 108.503 142.694 107.937 143.796C107.371 144.892 106.564 145.747 105.518 146.363C104.478 146.972 103.24 147.277 101.806 147.277ZM101.825 144.23C102.477 144.23 103.022 144.045 103.459 143.676C103.896 143.301 104.225 142.79 104.447 142.143C104.674 141.497 104.788 140.762 104.788 139.937C104.788 139.112 104.674 138.376 104.447 137.73C104.225 137.084 103.896 136.573 103.459 136.197C103.022 135.822 102.477 135.634 101.825 135.634C101.166 135.634 100.612 135.822 100.163 136.197C99.7195 136.573 99.384 137.084 99.1563 137.73C98.9347 138.376 98.8239 139.112 98.8239 139.937C98.8239 140.762 98.9347 141.497 99.1563 142.143C99.384 142.79 99.7195 143.301 100.163 143.676C100.612 144.045 101.166 144.23 101.825 144.23ZM111.56 147V132.818H115.308V135.32H115.475C115.77 134.489 116.262 133.834 116.952 133.354C117.641 132.874 118.466 132.634 119.426 132.634C120.399 132.634 121.227 132.877 121.91 133.363C122.593 133.843 123.049 134.496 123.276 135.32H123.424C123.713 134.508 124.237 133.858 124.994 133.372C125.757 132.88 126.659 132.634 127.699 132.634C129.022 132.634 130.096 133.055 130.921 133.898C131.752 134.736 132.168 135.924 132.168 137.462V147H128.244V138.238C128.244 137.45 128.034 136.859 127.616 136.465C127.197 136.071 126.674 135.874 126.046 135.874C125.332 135.874 124.775 136.102 124.375 136.558C123.975 137.007 123.775 137.601 123.775 138.339V147H119.962V138.155C119.962 137.459 119.762 136.905 119.362 136.493C118.968 136.08 118.448 135.874 117.801 135.874C117.364 135.874 116.97 135.985 116.619 136.207C116.275 136.422 116.001 136.727 115.798 137.121C115.595 137.509 115.493 137.964 115.493 138.487V147H111.56ZM135.491 147V132.818H139.424V147H135.491ZM137.466 130.99C136.882 130.99 136.38 130.796 135.961 130.408C135.549 130.014 135.343 129.544 135.343 128.996C135.343 128.454 135.549 127.989 135.961 127.602C136.38 127.208 136.882 127.011 137.466 127.011C138.051 127.011 138.55 127.208 138.962 127.602C139.381 127.989 139.59 128.454 139.59 128.996C139.59 129.544 139.381 130.014 138.962 130.408C138.55 130.796 138.051 130.99 137.466 130.99ZM142.717 147V144.655L149.66 136.059V135.957H142.957V132.818H154.396V135.376L147.878 143.759V143.861H154.636V147H142.717ZM163.917 147.277C162.458 147.277 161.202 146.982 160.15 146.391C159.103 145.794 158.297 144.95 157.731 143.861C157.165 142.765 156.881 141.469 156.881 139.974C156.881 138.515 157.165 137.235 157.731 136.133C158.297 135.031 159.094 134.172 160.122 133.557C161.156 132.941 162.369 132.634 163.76 132.634C164.696 132.634 165.567 132.784 166.373 133.086C167.185 133.381 167.893 133.828 168.496 134.425C169.106 135.022 169.58 135.773 169.918 136.678C170.257 137.576 170.426 138.629 170.426 139.835V140.915H158.451V138.478H166.724C166.724 137.912 166.601 137.41 166.354 136.973C166.108 136.536 165.767 136.194 165.33 135.948C164.899 135.696 164.397 135.57 163.825 135.57C163.228 135.57 162.698 135.708 162.237 135.985C161.781 136.256 161.424 136.622 161.165 137.084C160.907 137.539 160.775 138.047 160.768 138.607V140.925C160.768 141.626 160.898 142.233 161.156 142.744C161.421 143.254 161.793 143.648 162.273 143.925C162.754 144.202 163.323 144.341 163.982 144.341C164.419 144.341 164.819 144.279 165.182 144.156C165.545 144.033 165.856 143.848 166.114 143.602C166.373 143.356 166.57 143.054 166.705 142.697L170.343 142.938C170.158 143.812 169.78 144.575 169.207 145.227C168.641 145.874 167.909 146.378 167.01 146.741C166.117 147.098 165.086 147.277 163.917 147.277ZM178.435 147.231C177.358 147.231 176.382 146.954 175.508 146.4C174.64 145.84 173.951 145.018 173.44 143.935C172.935 142.845 172.683 141.509 172.683 139.928C172.683 138.303 172.944 136.951 173.467 135.874C173.991 134.791 174.686 133.982 175.554 133.446C176.428 132.904 177.385 132.634 178.426 132.634C179.22 132.634 179.881 132.769 180.411 133.04C180.946 133.304 181.377 133.637 181.703 134.037C182.036 134.431 182.288 134.819 182.46 135.2H182.58V128.091H186.504V147H182.627V144.729H182.46C182.276 145.123 182.014 145.513 181.676 145.901C181.343 146.283 180.909 146.6 180.374 146.852C179.844 147.105 179.198 147.231 178.435 147.231ZM179.681 144.101C180.315 144.101 180.851 143.929 181.288 143.584C181.731 143.233 182.069 142.744 182.303 142.116C182.543 141.488 182.663 140.752 182.663 139.909C182.663 139.066 182.547 138.333 182.313 137.712C182.079 137.09 181.74 136.61 181.297 136.271C180.854 135.933 180.315 135.763 179.681 135.763C179.035 135.763 178.49 135.939 178.047 136.29C177.604 136.641 177.268 137.127 177.041 137.749C176.813 138.37 176.699 139.09 176.699 139.909C176.699 140.734 176.813 141.463 177.041 142.097C177.274 142.725 177.61 143.218 178.047 143.575C178.49 143.925 179.035 144.101 179.681 144.101ZM212.946 134.711H208.902C208.828 134.188 208.677 133.723 208.449 133.317C208.221 132.904 207.929 132.554 207.572 132.264C207.215 131.975 206.803 131.753 206.335 131.599C205.873 131.446 205.372 131.369 204.83 131.369C203.851 131.369 202.999 131.612 202.272 132.098C201.546 132.578 200.983 133.28 200.583 134.203C200.183 135.12 199.983 136.234 199.983 137.545C199.983 138.893 200.183 140.026 200.583 140.943C200.989 141.86 201.555 142.553 202.282 143.021C203.008 143.488 203.848 143.722 204.802 143.722C205.338 143.722 205.833 143.652 206.289 143.51C206.75 143.368 207.16 143.162 207.517 142.891C207.874 142.614 208.169 142.279 208.403 141.885C208.643 141.491 208.809 141.042 208.902 140.537L212.946 140.555C212.841 141.423 212.579 142.26 212.161 143.067C211.748 143.867 211.191 144.584 210.49 145.218C209.794 145.846 208.963 146.344 207.997 146.714C207.037 147.077 205.95 147.259 204.738 147.259C203.051 147.259 201.543 146.877 200.213 146.114C198.89 145.35 197.844 144.246 197.074 142.799C196.311 141.353 195.929 139.601 195.929 137.545C195.929 135.483 196.317 133.729 197.093 132.283C197.868 130.836 198.921 129.734 200.25 128.977C201.58 128.214 203.076 127.832 204.738 127.832C205.833 127.832 206.849 127.986 207.784 128.294C208.726 128.602 209.56 129.051 210.287 129.642C211.013 130.227 211.604 130.944 212.059 131.793C212.521 132.643 212.816 133.615 212.946 134.711ZM219.999 147.268C219.094 147.268 218.287 147.111 217.58 146.797C216.872 146.477 216.312 146.006 215.899 145.384C215.493 144.756 215.29 143.975 215.29 143.039C215.29 142.251 215.434 141.589 215.724 141.054C216.013 140.518 216.407 140.088 216.906 139.761C217.404 139.435 217.97 139.189 218.604 139.023C219.245 138.857 219.916 138.74 220.617 138.672C221.442 138.586 222.107 138.506 222.612 138.432C223.116 138.352 223.483 138.235 223.71 138.081C223.938 137.927 224.052 137.699 224.052 137.398V137.342C224.052 136.758 223.867 136.305 223.498 135.985C223.135 135.665 222.618 135.505 221.947 135.505C221.239 135.505 220.676 135.662 220.257 135.976C219.839 136.284 219.562 136.671 219.426 137.139L215.788 136.844C215.973 135.982 216.336 135.237 216.878 134.609C217.42 133.975 218.118 133.489 218.974 133.151C219.835 132.806 220.833 132.634 221.965 132.634C222.753 132.634 223.507 132.726 224.227 132.911C224.954 133.095 225.597 133.381 226.157 133.769C226.723 134.157 227.17 134.656 227.496 135.265C227.822 135.868 227.985 136.591 227.985 137.435V147H224.255V145.033H224.144C223.916 145.477 223.612 145.867 223.23 146.206C222.849 146.538 222.39 146.8 221.854 146.991C221.319 147.175 220.7 147.268 219.999 147.268ZM221.125 144.553C221.704 144.553 222.215 144.439 222.658 144.212C223.101 143.978 223.449 143.664 223.701 143.27C223.953 142.876 224.08 142.43 224.08 141.931V140.426C223.956 140.506 223.787 140.58 223.572 140.648C223.362 140.709 223.125 140.768 222.861 140.823C222.596 140.872 222.331 140.919 222.067 140.962C221.802 140.999 221.562 141.032 221.347 141.063C220.885 141.131 220.482 141.239 220.137 141.386C219.792 141.534 219.525 141.734 219.334 141.987C219.143 142.233 219.048 142.54 219.048 142.91C219.048 143.445 219.241 143.855 219.629 144.138C220.023 144.415 220.522 144.553 221.125 144.553ZM231.253 147V132.818H235.066V135.293H235.214C235.472 134.412 235.906 133.748 236.515 133.298C237.125 132.843 237.826 132.615 238.62 132.615C238.817 132.615 239.03 132.627 239.258 132.652C239.485 132.677 239.685 132.71 239.858 132.754V136.244C239.673 136.188 239.418 136.139 239.091 136.096C238.765 136.053 238.467 136.031 238.196 136.031C237.617 136.031 237.1 136.157 236.645 136.41C236.195 136.656 235.838 137.001 235.574 137.444C235.315 137.887 235.186 138.398 235.186 138.977V147H231.253ZM247.91 147.277C246.451 147.277 245.196 146.982 244.143 146.391C243.097 145.794 242.29 144.95 241.724 143.861C241.158 142.765 240.875 141.469 240.875 139.974C240.875 138.515 241.158 137.235 241.724 136.133C242.29 135.031 243.088 134.172 244.115 133.557C245.15 132.941 246.362 132.634 247.753 132.634C248.689 132.634 249.56 132.784 250.366 133.086C251.179 133.381 251.887 133.828 252.49 134.425C253.099 135.022 253.573 135.773 253.912 136.678C254.25 137.576 254.419 138.629 254.419 139.835V140.915H242.444V138.478H250.717C250.717 137.912 250.594 137.41 250.348 136.973C250.101 136.536 249.76 136.194 249.323 135.948C248.892 135.696 248.39 135.57 247.818 135.57C247.221 135.57 246.691 135.708 246.23 135.985C245.774 136.256 245.417 136.622 245.159 137.084C244.9 137.539 244.768 138.047 244.762 138.607V140.925C244.762 141.626 244.891 142.233 245.15 142.744C245.414 143.254 245.787 143.648 246.267 143.925C246.747 144.202 247.316 144.341 247.975 144.341C248.412 144.341 248.812 144.279 249.175 144.156C249.538 144.033 249.849 143.848 250.108 143.602C250.366 143.356 250.563 143.054 250.699 142.697L254.336 142.938C254.152 143.812 253.773 144.575 253.201 145.227C252.634 145.874 251.902 146.378 251.003 146.741C250.111 147.098 249.08 147.277 247.91 147.277ZM263.51 147V128.091H270.97C272.404 128.091 273.626 128.365 274.635 128.913C275.645 129.454 276.414 130.208 276.944 131.175C277.479 132.135 277.747 133.243 277.747 134.499C277.747 135.754 277.476 136.862 276.934 137.822C276.393 138.783 275.608 139.531 274.58 140.066C273.558 140.602 272.321 140.869 270.868 140.869H266.113V137.665H270.222C270.991 137.665 271.625 137.533 272.124 137.268C272.629 136.998 273.004 136.625 273.25 136.151C273.503 135.671 273.629 135.12 273.629 134.499C273.629 133.871 273.503 133.323 273.25 132.855C273.004 132.381 272.629 132.015 272.124 131.756C271.619 131.492 270.979 131.359 270.204 131.359H267.507V147H263.51ZM284.419 128.091V147H280.486V128.091H284.419ZM291.83 147.268C290.925 147.268 290.119 147.111 289.411 146.797C288.703 146.477 288.143 146.006 287.73 145.384C287.324 144.756 287.121 143.975 287.121 143.039C287.121 142.251 287.266 141.589 287.555 141.054C287.844 140.518 288.238 140.088 288.737 139.761C289.235 139.435 289.802 139.189 290.436 139.023C291.076 138.857 291.747 138.74 292.448 138.672C293.273 138.586 293.938 138.506 294.443 138.432C294.947 138.352 295.314 138.235 295.541 138.081C295.769 137.927 295.883 137.699 295.883 137.398V137.342C295.883 136.758 295.698 136.305 295.329 135.985C294.966 135.665 294.449 135.505 293.778 135.505C293.07 135.505 292.507 135.662 292.088 135.976C291.67 136.284 291.393 136.671 291.257 137.139L287.62 136.844C287.804 135.982 288.167 135.237 288.709 134.609C289.251 133.975 289.949 133.489 290.805 133.151C291.667 132.806 292.664 132.634 293.796 132.634C294.584 132.634 295.338 132.726 296.058 132.911C296.785 133.095 297.428 133.381 297.988 133.769C298.554 134.157 299.001 134.656 299.327 135.265C299.653 135.868 299.816 136.591 299.816 137.435V147H296.086V145.033H295.975C295.748 145.477 295.443 145.867 295.061 146.206C294.68 146.538 294.221 146.8 293.686 146.991C293.15 147.175 292.531 147.268 291.83 147.268ZM292.956 144.553C293.535 144.553 294.046 144.439 294.489 144.212C294.932 143.978 295.28 143.664 295.532 143.27C295.785 142.876 295.911 142.43 295.911 141.931V140.426C295.788 140.506 295.618 140.58 295.403 140.648C295.194 140.709 294.957 140.768 294.692 140.823C294.427 140.872 294.163 140.919 293.898 140.962C293.633 140.999 293.393 141.032 293.178 141.063C292.716 141.131 292.313 141.239 291.968 141.386C291.624 141.534 291.356 141.734 291.165 141.987C290.974 142.233 290.879 142.54 290.879 142.91C290.879 143.445 291.073 143.855 291.46 144.138C291.854 144.415 292.353 144.553 292.956 144.553ZM307.017 138.801V147H303.084V132.818H306.832V135.32H306.999C307.312 134.496 307.839 133.843 308.577 133.363C309.316 132.877 310.212 132.634 311.264 132.634C312.249 132.634 313.108 132.849 313.84 133.28C314.573 133.711 315.142 134.326 315.548 135.126C315.955 135.92 316.158 136.868 316.158 137.97V147H312.224V138.672C312.231 137.804 312.009 137.127 311.56 136.641C311.11 136.148 310.492 135.902 309.704 135.902C309.174 135.902 308.707 136.016 308.3 136.244C307.9 136.471 307.586 136.804 307.359 137.241C307.137 137.672 307.023 138.192 307.017 138.801Z" fill="#232323"/>
<path opacity="0.8" d="M36.0795 201H33.2841L39.5653 183.545H42.608L48.8892 201H46.0938L41.1591 186.716H41.0227L36.0795 201ZM36.5483 194.165H45.6165V196.381H36.5483V194.165ZM56.7245 201.264C55.4575 201.264 54.3666 200.977 53.4518 200.403C52.5427 199.824 51.8438 199.026 51.3552 198.009C50.8666 196.991 50.6222 195.827 50.6222 194.514C50.6222 193.185 50.8722 192.011 51.3722 190.994C51.8722 189.972 52.5768 189.173 53.4859 188.599C54.395 188.026 55.466 187.739 56.699 187.739C57.6933 187.739 58.5796 187.923 59.358 188.293C60.1365 188.656 60.7643 189.168 61.2416 189.827C61.7245 190.486 62.0115 191.256 62.1024 192.136H59.6222C59.4859 191.523 59.1734 190.994 58.6847 190.551C58.2018 190.108 57.5541 189.886 56.7416 189.886C56.0313 189.886 55.4092 190.074 54.8751 190.449C54.3467 190.818 53.9347 191.347 53.6393 192.034C53.3438 192.716 53.1961 193.523 53.1961 194.455C53.1961 195.409 53.341 196.233 53.6308 196.926C53.9205 197.619 54.3296 198.156 54.858 198.537C55.3921 198.918 56.02 199.108 56.7416 199.108C57.2245 199.108 57.662 199.02 58.0541 198.844C58.4518 198.662 58.7842 198.403 59.0512 198.068C59.324 197.733 59.5143 197.33 59.6222 196.858H62.1024C62.0115 197.705 61.7359 198.46 61.2757 199.125C60.8154 199.79 60.199 200.312 59.4262 200.693C58.6592 201.074 57.7586 201.264 56.7245 201.264ZM70.5577 201.264C69.2907 201.264 68.1998 200.977 67.285 200.403C66.3759 199.824 65.677 199.026 65.1884 198.009C64.6998 196.991 64.4554 195.827 64.4554 194.514C64.4554 193.185 64.7054 192.011 65.2054 190.994C65.7054 189.972 66.41 189.173 67.3191 188.599C68.2282 188.026 69.2992 187.739 70.5321 187.739C71.5265 187.739 72.4128 187.923 73.1912 188.293C73.9696 188.656 74.5975 189.168 75.0748 189.827C75.5577 190.486 75.8446 191.256 75.9356 192.136H73.4554C73.3191 191.523 73.0066 190.994 72.5179 190.551C72.035 190.108 71.3873 189.886 70.5748 189.886C69.8645 189.886 69.2424 190.074 68.7083 190.449C68.1799 190.818 67.7679 191.347 67.4725 192.034C67.177 192.716 67.0293 193.523 67.0293 194.455C67.0293 195.409 67.1742 196.233 67.464 196.926C67.7537 197.619 68.1628 198.156 68.6912 198.537C69.2253 198.918 69.8532 199.108 70.5748 199.108C71.0577 199.108 71.4952 199.02 71.8873 198.844C72.285 198.662 72.6174 198.403 72.8844 198.068C73.1571 197.733 73.3475 197.33 73.4554 196.858H75.9356C75.8446 197.705 75.5691 198.46 75.1088 199.125C74.6486 199.79 74.0321 200.312 73.2594 200.693C72.4924 201.074 71.5918 201.264 70.5577 201.264ZM84.5187 201.264C83.229 201.264 82.1182 200.989 81.1864 200.438C80.2602 199.881 79.5443 199.099 79.0386 198.094C78.5386 197.082 78.2886 195.898 78.2886 194.54C78.2886 193.199 78.5386 192.017 79.0386 190.994C79.5443 189.972 80.2489 189.173 81.1523 188.599C82.0614 188.026 83.1239 187.739 84.3398 187.739C85.0784 187.739 85.7943 187.861 86.4875 188.105C87.1807 188.349 87.8028 188.733 88.354 189.256C88.9051 189.778 89.3398 190.457 89.6579 191.293C89.9761 192.122 90.1352 193.131 90.1352 194.318V195.222H79.729V193.312H87.6381C87.6381 192.642 87.5017 192.048 87.229 191.531C86.9562 191.009 86.5727 190.597 86.0784 190.295C85.5898 189.994 85.0159 189.844 84.3568 189.844C83.6409 189.844 83.0159 190.02 82.4818 190.372C81.9534 190.719 81.5443 191.173 81.2545 191.736C80.9704 192.293 80.8284 192.898 80.8284 193.551V195.043C80.8284 195.918 80.9818 196.662 81.2886 197.276C81.6011 197.889 82.0358 198.358 82.5926 198.682C83.1494 199 83.8 199.159 84.5443 199.159C85.0273 199.159 85.4676 199.091 85.8653 198.955C86.2631 198.812 86.6068 198.602 86.8966 198.324C87.1864 198.045 87.4079 197.702 87.5614 197.293L89.9733 197.727C89.7801 198.437 89.4335 199.06 88.9335 199.594C88.4392 200.122 87.817 200.534 87.067 200.83C86.3227 201.119 85.4733 201.264 84.5187 201.264ZM102.988 191.105L100.679 191.514C100.582 191.219 100.429 190.937 100.218 190.67C100.014 190.403 99.7354 190.185 99.3832 190.014C99.0309 189.844 98.5906 189.759 98.0622 189.759C97.3406 189.759 96.7383 189.92 96.2553 190.244C95.7724 190.562 95.5309 190.974 95.5309 191.48C95.5309 191.918 95.6928 192.27 96.0167 192.537C96.3406 192.804 96.8633 193.023 97.5849 193.193L99.6644 193.67C100.869 193.949 101.767 194.378 102.358 194.957C102.949 195.537 103.244 196.29 103.244 197.216C103.244 198 103.017 198.699 102.562 199.312C102.113 199.92 101.485 200.398 100.679 200.744C99.8775 201.091 98.9485 201.264 97.8917 201.264C96.4258 201.264 95.2298 200.952 94.3036 200.327C93.3775 199.696 92.8093 198.801 92.5991 197.642L95.0622 197.267C95.2156 197.909 95.5309 198.395 96.0082 198.724C96.4854 199.048 97.1076 199.21 97.8747 199.21C98.7099 199.21 99.3775 199.037 99.8775 198.69C100.377 198.338 100.627 197.909 100.627 197.403C100.627 196.994 100.474 196.651 100.167 196.372C99.8661 196.094 99.4031 195.884 98.7781 195.741L96.5622 195.256C95.3406 194.977 94.4372 194.534 93.8519 193.926C93.2724 193.318 92.9826 192.548 92.9826 191.616C92.9826 190.844 93.1985 190.168 93.6303 189.588C94.0622 189.009 94.6587 188.557 95.4201 188.233C96.1815 187.903 97.0536 187.739 98.0366 187.739C99.4514 187.739 100.565 188.045 101.377 188.659C102.19 189.267 102.727 190.082 102.988 191.105ZM116.071 191.105L113.762 191.514C113.665 191.219 113.512 190.937 113.302 190.67C113.097 190.403 112.819 190.185 112.466 190.014C112.114 189.844 111.674 189.759 111.145 189.759C110.424 189.759 109.821 189.92 109.339 190.244C108.856 190.562 108.614 190.974 108.614 191.48C108.614 191.918 108.776 192.27 109.1 192.537C109.424 192.804 109.946 193.023 110.668 193.193L112.748 193.67C113.952 193.949 114.85 194.378 115.441 194.957C116.032 195.537 116.327 196.29 116.327 197.216C116.327 198 116.1 198.699 115.645 199.312C115.196 199.92 114.569 200.398 113.762 200.744C112.961 201.091 112.032 201.264 110.975 201.264C109.509 201.264 108.313 200.952 107.387 200.327C106.461 199.696 105.893 198.801 105.682 197.642L108.145 197.267C108.299 197.909 108.614 198.395 109.091 198.724C109.569 199.048 110.191 199.21 110.958 199.21C111.793 199.21 112.461 199.037 112.961 198.69C113.461 198.338 113.711 197.909 113.711 197.403C113.711 196.994 113.557 196.651 113.25 196.372C112.949 196.094 112.486 195.884 111.861 195.741L109.645 195.256C108.424 194.977 107.52 194.534 106.935 193.926C106.356 193.318 106.066 192.548 106.066 191.616C106.066 190.844 106.282 190.168 106.714 189.588C107.145 189.009 107.742 188.557 108.503 188.233C109.265 187.903 110.137 187.739 111.12 187.739C112.535 187.739 113.648 188.045 114.461 188.659C115.273 189.267 115.81 190.082 116.071 191.105ZM128.461 183.545V201H125.913V183.545H128.461ZM132.105 201V187.909H134.653V201H132.105ZM133.392 185.889C132.949 185.889 132.568 185.741 132.25 185.446C131.938 185.145 131.781 184.787 131.781 184.372C131.781 183.952 131.938 183.594 132.25 183.298C132.568 182.997 132.949 182.847 133.392 182.847C133.835 182.847 134.213 182.997 134.526 183.298C134.844 183.594 135.003 183.952 135.003 184.372C135.003 184.787 134.844 185.145 134.526 185.446C134.213 185.741 133.835 185.889 133.392 185.889ZM143.812 201.264C142.545 201.264 141.454 200.977 140.539 200.403C139.63 199.824 138.931 199.026 138.443 198.009C137.954 196.991 137.71 195.827 137.71 194.514C137.71 193.185 137.96 192.011 138.46 190.994C138.96 189.972 139.664 189.173 140.573 188.599C141.482 188.026 142.553 187.739 143.786 187.739C144.781 187.739 145.667 187.923 146.445 188.293C147.224 188.656 147.852 189.168 148.329 189.827C148.812 190.486 149.099 191.256 149.19 192.136H146.71C146.573 191.523 146.261 190.994 145.772 190.551C145.289 190.108 144.641 189.886 143.829 189.886C143.119 189.886 142.497 190.074 141.962 190.449C141.434 190.818 141.022 191.347 140.727 192.034C140.431 192.716 140.283 193.523 140.283 194.455C140.283 195.409 140.428 196.233 140.718 196.926C141.008 197.619 141.417 198.156 141.945 198.537C142.48 198.918 143.107 199.108 143.829 199.108C144.312 199.108 144.749 199.02 145.141 198.844C145.539 198.662 145.872 198.403 146.139 198.068C146.411 197.733 146.602 197.33 146.71 196.858H149.19C149.099 197.705 148.823 198.46 148.363 199.125C147.903 199.79 147.286 200.312 146.514 200.693C145.747 201.074 144.846 201.264 143.812 201.264ZM157.773 201.264C156.483 201.264 155.372 200.989 154.441 200.438C153.514 199.881 152.798 199.099 152.293 198.094C151.793 197.082 151.543 195.898 151.543 194.54C151.543 193.199 151.793 192.017 152.293 190.994C152.798 189.972 153.503 189.173 154.406 188.599C155.316 188.026 156.378 187.739 157.594 187.739C158.333 187.739 159.048 187.861 159.742 188.105C160.435 188.349 161.057 188.733 161.608 189.256C162.159 189.778 162.594 190.457 162.912 191.293C163.23 192.122 163.389 193.131 163.389 194.318V195.222H152.983V193.312H160.892C160.892 192.642 160.756 192.048 160.483 191.531C160.21 191.009 159.827 190.597 159.333 190.295C158.844 189.994 158.27 189.844 157.611 189.844C156.895 189.844 156.27 190.02 155.736 190.372C155.208 190.719 154.798 191.173 154.509 191.736C154.225 192.293 154.083 192.898 154.083 193.551V195.043C154.083 195.918 154.236 196.662 154.543 197.276C154.855 197.889 155.29 198.358 155.847 198.682C156.404 199 157.054 199.159 157.798 199.159C158.281 199.159 158.722 199.091 159.12 198.955C159.517 198.812 159.861 198.602 160.151 198.324C160.441 198.045 160.662 197.702 160.816 197.293L163.227 197.727C163.034 198.437 162.688 199.06 162.188 199.594C161.693 200.122 161.071 200.534 160.321 200.83C159.577 201.119 158.727 201.264 157.773 201.264ZM168.981 193.227V201H166.433V187.909H168.879V190.04H169.041C169.342 189.347 169.814 188.79 170.456 188.369C171.103 187.949 171.919 187.739 172.902 187.739C173.794 187.739 174.575 187.926 175.245 188.301C175.916 188.67 176.436 189.222 176.805 189.955C177.174 190.687 177.359 191.594 177.359 192.673V201H174.811V192.98C174.811 192.031 174.564 191.29 174.069 190.756C173.575 190.216 172.896 189.946 172.032 189.946C171.441 189.946 170.916 190.074 170.456 190.33C170.001 190.585 169.64 190.96 169.373 191.455C169.112 191.943 168.981 192.534 168.981 193.227ZM190.802 191.105L188.493 191.514C188.396 191.219 188.243 190.937 188.032 190.67C187.828 190.403 187.549 190.185 187.197 190.014C186.845 189.844 186.404 189.759 185.876 189.759C185.154 189.759 184.552 189.92 184.069 190.244C183.586 190.562 183.345 190.974 183.345 191.48C183.345 191.918 183.507 192.27 183.831 192.537C184.154 192.804 184.677 193.023 185.399 193.193L187.478 193.67C188.683 193.949 189.581 194.378 190.172 194.957C190.762 195.537 191.058 196.29 191.058 197.216C191.058 198 190.831 198.699 190.376 199.312C189.927 199.92 189.299 200.398 188.493 200.744C187.691 201.091 186.762 201.264 185.706 201.264C184.24 201.264 183.044 200.952 182.118 200.327C181.191 199.696 180.623 198.801 180.413 197.642L182.876 197.267C183.029 197.909 183.345 198.395 183.822 198.724C184.299 199.048 184.922 199.21 185.689 199.21C186.524 199.21 187.191 199.037 187.691 198.69C188.191 198.338 188.441 197.909 188.441 197.403C188.441 196.994 188.288 196.651 187.981 196.372C187.68 196.094 187.217 195.884 186.592 195.741L184.376 195.256C183.154 194.977 182.251 194.534 181.666 193.926C181.086 193.318 180.797 192.548 180.797 191.616C180.797 190.844 181.012 190.168 181.444 189.588C181.876 189.009 182.473 188.557 183.234 188.233C183.995 187.903 184.868 187.739 185.851 187.739C187.265 187.739 188.379 188.045 189.191 188.659C190.004 189.267 190.541 190.082 190.802 191.105ZM199.718 201.264C198.428 201.264 197.317 200.989 196.385 200.438C195.459 199.881 194.743 199.099 194.238 198.094C193.738 197.082 193.488 195.898 193.488 194.54C193.488 193.199 193.738 192.017 194.238 190.994C194.743 189.972 195.448 189.173 196.351 188.599C197.26 188.026 198.323 187.739 199.539 187.739C200.277 187.739 200.993 187.861 201.687 188.105C202.38 188.349 203.002 188.733 203.553 189.256C204.104 189.778 204.539 190.457 204.857 191.293C205.175 192.122 205.334 193.131 205.334 194.318V195.222H194.928V193.312H202.837C202.837 192.642 202.701 192.048 202.428 191.531C202.155 191.009 201.772 190.597 201.277 190.295C200.789 189.994 200.215 189.844 199.556 189.844C198.84 189.844 198.215 190.02 197.681 190.372C197.152 190.719 196.743 191.173 196.454 191.736C196.17 192.293 196.027 192.898 196.027 193.551V195.043C196.027 195.918 196.181 196.662 196.488 197.276C196.8 197.889 197.235 198.358 197.792 198.682C198.348 199 198.999 199.159 199.743 199.159C200.226 199.159 200.667 199.091 201.064 198.955C201.462 198.812 201.806 198.602 202.096 198.324C202.385 198.045 202.607 197.702 202.76 197.293L205.172 197.727C204.979 198.437 204.633 199.06 204.133 199.594C203.638 200.122 203.016 200.534 202.266 200.83C201.522 201.119 200.672 201.264 199.718 201.264ZM213.278 201.256C212.221 201.256 211.278 200.986 210.449 200.446C209.625 199.901 208.977 199.125 208.506 198.119C208.04 197.108 207.807 195.895 207.807 194.48C207.807 193.065 208.042 191.855 208.514 190.849C208.991 189.844 209.645 189.074 210.474 188.54C211.304 188.006 212.244 187.739 213.295 187.739C214.108 187.739 214.761 187.875 215.256 188.148C215.756 188.415 216.142 188.727 216.415 189.085C216.693 189.443 216.909 189.759 217.062 190.031H217.216V183.545H219.764V201H217.275V198.963H217.062C216.909 199.241 216.687 199.56 216.398 199.918C216.113 200.276 215.721 200.588 215.221 200.855C214.721 201.122 214.074 201.256 213.278 201.256ZM213.841 199.082C214.574 199.082 215.193 198.889 215.699 198.503C216.21 198.111 216.596 197.568 216.858 196.875C217.125 196.182 217.258 195.375 217.258 194.455C217.258 193.545 217.128 192.75 216.866 192.068C216.605 191.386 216.221 190.855 215.716 190.474C215.21 190.094 214.585 189.903 213.841 189.903C213.074 189.903 212.435 190.102 211.923 190.5C211.412 190.898 211.025 191.44 210.764 192.128C210.508 192.815 210.381 193.591 210.381 194.455C210.381 195.33 210.511 196.116 210.773 196.815C211.034 197.514 211.42 198.068 211.932 198.477C212.449 198.881 213.085 199.082 213.841 199.082ZM235.699 201.264C234.432 201.264 233.341 200.977 232.426 200.403C231.517 199.824 230.818 199.026 230.33 198.009C229.841 196.991 229.597 195.827 229.597 194.514C229.597 193.185 229.847 192.011 230.347 190.994C230.847 189.972 231.551 189.173 232.46 188.599C233.369 188.026 234.44 187.739 235.673 187.739C236.668 187.739 237.554 187.923 238.332 188.293C239.111 188.656 239.739 189.168 240.216 189.827C240.699 190.486 240.986 191.256 241.077 192.136H238.597C238.46 191.523 238.148 190.994 237.659 190.551C237.176 190.108 236.528 189.886 235.716 189.886C235.006 189.886 234.384 190.074 233.849 190.449C233.321 190.818 232.909 191.347 232.614 192.034C232.318 192.716 232.17 193.523 232.17 194.455C232.17 195.409 232.315 196.233 232.605 196.926C232.895 197.619 233.304 198.156 233.832 198.537C234.367 198.918 234.994 199.108 235.716 199.108C236.199 199.108 236.636 199.02 237.028 198.844C237.426 198.662 237.759 198.403 238.026 198.068C238.298 197.733 238.489 197.33 238.597 196.858H241.077C240.986 197.705 240.71 198.46 240.25 199.125C239.79 199.79 239.173 200.312 238.401 200.693C237.634 201.074 236.733 201.264 235.699 201.264ZM249.532 201.264C248.305 201.264 247.234 200.983 246.319 200.42C245.404 199.858 244.694 199.071 244.188 198.06C243.683 197.048 243.43 195.866 243.43 194.514C243.43 193.156 243.683 191.969 244.188 190.952C244.694 189.935 245.404 189.145 246.319 188.582C247.234 188.02 248.305 187.739 249.532 187.739C250.759 187.739 251.83 188.02 252.745 188.582C253.66 189.145 254.37 189.935 254.876 190.952C255.382 191.969 255.634 193.156 255.634 194.514C255.634 195.866 255.382 197.048 254.876 198.06C254.37 199.071 253.66 199.858 252.745 200.42C251.83 200.983 250.759 201.264 249.532 201.264ZM249.541 199.125C250.336 199.125 250.995 198.915 251.518 198.494C252.041 198.074 252.427 197.514 252.677 196.815C252.933 196.116 253.06 195.347 253.06 194.506C253.06 193.67 252.933 192.903 252.677 192.205C252.427 191.5 252.041 190.935 251.518 190.509C250.995 190.082 250.336 189.869 249.541 189.869C248.739 189.869 248.075 190.082 247.546 190.509C247.024 190.935 246.634 191.5 246.379 192.205C246.129 192.903 246.004 193.67 246.004 194.506C246.004 195.347 246.129 196.116 246.379 196.815C246.634 197.514 247.024 198.074 247.546 198.494C248.075 198.915 248.739 199.125 249.541 199.125ZM266.987 195.571V187.909H269.544V201H267.039V198.733H266.902C266.601 199.432 266.118 200.014 265.453 200.48C264.794 200.94 263.973 201.17 262.99 201.17C262.149 201.17 261.405 200.986 260.757 200.616C260.115 200.241 259.61 199.688 259.24 198.955C258.877 198.222 258.695 197.315 258.695 196.236V187.909H261.243V195.929C261.243 196.821 261.49 197.531 261.985 198.06C262.479 198.588 263.121 198.852 263.911 198.852C264.388 198.852 264.862 198.733 265.334 198.494C265.811 198.256 266.206 197.895 266.519 197.412C266.837 196.929 266.993 196.315 266.987 195.571ZM275.733 193.227V201H273.184V187.909H275.63V190.04H275.792C276.093 189.347 276.565 188.79 277.207 188.369C277.855 187.949 278.67 187.739 279.653 187.739C280.545 187.739 281.326 187.926 281.997 188.301C282.667 188.67 283.187 189.222 283.556 189.955C283.926 190.687 284.11 191.594 284.11 192.673V201H281.562V192.98C281.562 192.031 281.315 191.29 280.821 190.756C280.326 190.216 279.647 189.946 278.784 189.946C278.193 189.946 277.667 190.074 277.207 190.33C276.752 190.585 276.392 190.96 276.125 191.455C275.863 191.943 275.733 192.534 275.733 193.227ZM297.554 191.105L295.244 191.514C295.147 191.219 294.994 190.937 294.784 190.67C294.579 190.403 294.301 190.185 293.949 190.014C293.596 189.844 293.156 189.759 292.628 189.759C291.906 189.759 291.304 189.92 290.821 190.244C290.338 190.562 290.096 190.974 290.096 191.48C290.096 191.918 290.258 192.27 290.582 192.537C290.906 192.804 291.429 193.023 292.15 193.193L294.23 193.67C295.434 193.949 296.332 194.378 296.923 194.957C297.514 195.537 297.809 196.29 297.809 197.216C297.809 198 297.582 198.699 297.128 199.312C296.679 199.92 296.051 200.398 295.244 200.744C294.443 201.091 293.514 201.264 292.457 201.264C290.991 201.264 289.795 200.952 288.869 200.327C287.943 199.696 287.375 198.801 287.164 197.642L289.628 197.267C289.781 197.909 290.096 198.395 290.574 198.724C291.051 199.048 291.673 199.21 292.44 199.21C293.275 199.21 293.943 199.037 294.443 198.69C294.943 198.338 295.193 197.909 295.193 197.403C295.193 196.994 295.039 196.651 294.733 196.372C294.432 196.094 293.968 195.884 293.343 195.741L291.128 195.256C289.906 194.977 289.003 194.534 288.417 193.926C287.838 193.318 287.548 192.548 287.548 191.616C287.548 190.844 287.764 190.168 288.196 189.588C288.628 189.009 289.224 188.557 289.985 188.233C290.747 187.903 291.619 187.739 292.602 187.739C294.017 187.739 295.13 188.045 295.943 188.659C296.755 189.267 297.292 190.082 297.554 191.105ZM306.469 201.264C305.179 201.264 304.069 200.989 303.137 200.438C302.211 199.881 301.495 199.099 300.989 198.094C300.489 197.082 300.239 195.898 300.239 194.54C300.239 193.199 300.489 192.017 300.989 190.994C301.495 189.972 302.199 189.173 303.103 188.599C304.012 188.026 305.074 187.739 306.29 187.739C307.029 187.739 307.745 187.861 308.438 188.105C309.131 188.349 309.753 188.733 310.304 189.256C310.856 189.778 311.29 190.457 311.608 191.293C311.927 192.122 312.086 193.131 312.086 194.318V195.222H301.679V193.312H309.589C309.589 192.642 309.452 192.048 309.179 191.531C308.907 191.009 308.523 190.597 308.029 190.295C307.54 189.994 306.966 189.844 306.307 189.844C305.591 189.844 304.966 190.02 304.432 190.372C303.904 190.719 303.495 191.173 303.205 191.736C302.921 192.293 302.779 192.898 302.779 193.551V195.043C302.779 195.918 302.932 196.662 303.239 197.276C303.552 197.889 303.986 198.358 304.543 198.682C305.1 199 305.75 199.159 306.495 199.159C306.978 199.159 307.418 199.091 307.816 198.955C308.214 198.812 308.557 198.602 308.847 198.324C309.137 198.045 309.358 197.702 309.512 197.293L311.924 197.727C311.731 198.437 311.384 199.06 310.884 199.594C310.39 200.122 309.768 200.534 309.018 200.83C308.273 201.119 307.424 201.264 306.469 201.264ZM317.677 183.545V201H315.129V183.545H317.677ZM326.836 201.264C325.609 201.264 324.538 200.983 323.623 200.42C322.708 199.858 321.998 199.071 321.492 198.06C320.986 197.048 320.734 195.866 320.734 194.514C320.734 193.156 320.986 191.969 321.492 190.952C321.998 189.935 322.708 189.145 323.623 188.582C324.538 188.02 325.609 187.739 326.836 187.739C328.063 187.739 329.134 188.02 330.049 188.582C330.964 189.145 331.674 189.935 332.18 190.952C332.685 191.969 332.938 193.156 332.938 194.514C332.938 195.866 332.685 197.048 332.18 198.06C331.674 199.071 330.964 199.858 330.049 200.42C329.134 200.983 328.063 201.264 326.836 201.264ZM326.844 199.125C327.64 199.125 328.299 198.915 328.822 198.494C329.344 198.074 329.731 197.514 329.981 196.815C330.236 196.116 330.364 195.347 330.364 194.506C330.364 193.67 330.236 192.903 329.981 192.205C329.731 191.5 329.344 190.935 328.822 190.509C328.299 190.082 327.64 189.869 326.844 189.869C326.043 189.869 325.378 190.082 324.85 190.509C324.327 190.935 323.938 191.5 323.682 192.205C323.432 192.903 323.307 193.67 323.307 194.506C323.307 195.347 323.432 196.116 323.682 196.815C323.938 197.514 324.327 198.074 324.85 198.494C325.378 198.915 326.043 199.125 326.844 199.125ZM335.999 201V187.909H338.462V189.989H338.598C338.837 189.284 339.257 188.73 339.859 188.327C340.467 187.918 341.155 187.713 341.922 187.713C342.081 187.713 342.269 187.719 342.484 187.73C342.706 187.741 342.879 187.756 343.004 187.773V190.21C342.902 190.182 342.72 190.151 342.459 190.116C342.197 190.077 341.936 190.057 341.675 190.057C341.072 190.057 340.536 190.185 340.064 190.44C339.598 190.69 339.229 191.04 338.956 191.489C338.683 191.932 338.547 192.437 338.547 193.006V201H335.999ZM355.235 191.105L352.926 191.514C352.829 191.219 352.676 190.937 352.465 190.67C352.261 190.403 351.982 190.185 351.63 190.014C351.278 189.844 350.837 189.759 350.309 189.759C349.587 189.759 348.985 189.92 348.502 190.244C348.019 190.562 347.778 190.974 347.778 191.48C347.778 191.918 347.94 192.27 348.264 192.537C348.587 192.804 349.11 193.023 349.832 193.193L351.911 193.67C353.116 193.949 354.014 194.378 354.605 194.957C355.195 195.537 355.491 196.29 355.491 197.216C355.491 198 355.264 198.699 354.809 199.312C354.36 199.92 353.732 200.398 352.926 200.744C352.124 201.091 351.195 201.264 350.139 201.264C348.673 201.264 347.477 200.952 346.551 200.327C345.624 199.696 345.056 198.801 344.846 197.642L347.309 197.267C347.462 197.909 347.778 198.395 348.255 198.724C348.732 199.048 349.355 199.21 350.122 199.21C350.957 199.21 351.624 199.037 352.124 198.69C352.624 198.338 352.874 197.909 352.874 197.403C352.874 196.994 352.721 196.651 352.414 196.372C352.113 196.094 351.65 195.884 351.025 195.741L348.809 195.256C347.587 194.977 346.684 194.534 346.099 193.926C345.519 193.318 345.23 192.548 345.23 191.616C345.23 190.844 345.445 190.168 345.877 189.588C346.309 189.009 346.906 188.557 347.667 188.233C348.428 187.903 349.301 187.739 350.284 187.739C351.698 187.739 352.812 188.045 353.624 188.659C354.437 189.267 354.974 190.082 355.235 191.105ZM361.824 198.614L361.696 199.543C361.611 200.224 361.466 200.935 361.262 201.673C361.063 202.418 360.855 203.108 360.639 203.744C360.429 204.381 360.256 204.886 360.12 205.261H358.313C358.387 204.909 358.489 204.432 358.62 203.83C358.75 203.233 358.878 202.565 359.003 201.827C359.128 201.088 359.222 200.335 359.284 199.568L359.37 198.614H361.824ZM40.5114 219.909V221.955H33.3608V219.909H40.5114ZM35.2784 216.773H37.8267V229.156C37.8267 229.651 37.9006 230.023 38.0483 230.273C38.196 230.517 38.3864 230.685 38.6193 230.776C38.858 230.861 39.1165 230.903 39.3949 230.903C39.5994 230.903 39.7784 230.889 39.9318 230.861C40.0852 230.832 40.2045 230.81 40.2898 230.793L40.75 232.898C40.6023 232.955 40.392 233.011 40.1193 233.068C39.8466 233.131 39.5057 233.165 39.0966 233.17C38.4261 233.182 37.8011 233.062 37.2216 232.812C36.642 232.562 36.1733 232.176 35.8153 231.653C35.4574 231.131 35.2784 230.474 35.2784 229.685V216.773ZM46.3758 225.227V233H43.8275V215.545H46.3417V222.04H46.5036C46.8105 221.335 47.2792 220.776 47.9099 220.361C48.5406 219.946 49.3644 219.739 50.3815 219.739C51.2792 219.739 52.0633 219.923 52.7338 220.293C53.4099 220.662 53.9326 221.213 54.3019 221.946C54.6769 222.673 54.8644 223.582 54.8644 224.673V233H52.3161V224.98C52.3161 224.02 52.069 223.276 51.5747 222.747C51.0803 222.213 50.3928 221.946 49.5122 221.946C48.9099 221.946 48.3701 222.074 47.8928 222.33C47.4213 222.585 47.0491 222.96 46.7764 223.455C46.5093 223.943 46.3758 224.534 46.3758 225.227ZM64.1231 233.264C62.8333 233.264 61.7225 232.989 60.7907 232.438C59.8645 231.881 59.1486 231.099 58.6429 230.094C58.1429 229.082 57.8929 227.898 57.8929 226.54C57.8929 225.199 58.1429 224.017 58.6429 222.994C59.1486 221.972 59.8532 221.173 60.7566 220.599C61.6657 220.026 62.7282 219.739 63.9441 219.739C64.6827 219.739 65.3986 219.861 66.0918 220.105C66.785 220.349 67.4071 220.733 67.9583 221.256C68.5094 221.778 68.9441 222.457 69.2623 223.293C69.5804 224.122 69.7395 225.131 69.7395 226.318V227.222H59.3333V225.312H67.2424C67.2424 224.642 67.106 224.048 66.8333 223.531C66.5606 223.009 66.177 222.597 65.6827 222.295C65.1941 221.994 64.6202 221.844 63.9611 221.844C63.2452 221.844 62.6202 222.02 62.0861 222.372C61.5577 222.719 61.1486 223.173 60.8588 223.736C60.5748 224.293 60.4327 224.898 60.4327 225.551V227.043C60.4327 227.918 60.5861 228.662 60.8929 229.276C61.2054 229.889 61.6401 230.358 62.1969 230.682C62.7537 231 63.4043 231.159 64.1486 231.159C64.6316 231.159 65.0719 231.091 65.4696 230.955C65.8674 230.812 66.2111 230.602 66.5009 230.324C66.7907 230.045 67.0123 229.702 67.1657 229.293L69.5776 229.727C69.3844 230.437 69.0378 231.06 68.5378 231.594C68.0435 232.122 67.4213 232.534 66.6713 232.83C65.927 233.119 65.0776 233.264 64.1231 233.264ZM72.7829 233V219.909H75.246V221.989H75.3824C75.621 221.284 76.0415 220.73 76.6437 220.327C77.2517 219.918 77.9392 219.713 78.7062 219.713C78.8653 219.713 79.0528 219.719 79.2687 219.73C79.4903 219.741 79.6636 219.756 79.7886 219.773V222.21C79.6864 222.182 79.5045 222.151 79.2432 222.116C78.9818 222.077 78.7204 222.057 78.4591 222.057C77.8568 222.057 77.3199 222.185 76.8483 222.44C76.3824 222.69 76.0131 223.04 75.7403 223.489C75.4676 223.932 75.3312 224.437 75.3312 225.006V233H72.7829ZM85.9024 233.29C85.0728 233.29 84.3228 233.136 83.6524 232.83C82.9819 232.517 82.4506 232.065 82.0586 231.474C81.6722 230.884 81.4791 230.159 81.4791 229.301C81.4791 228.562 81.6211 227.955 81.9052 227.477C82.1893 227 82.5728 226.622 83.0558 226.344C83.5387 226.065 84.0785 225.855 84.6751 225.713C85.2717 225.571 85.8796 225.463 86.4989 225.389C87.283 225.298 87.9194 225.224 88.408 225.168C88.8967 225.105 89.2518 225.006 89.4734 224.869C89.695 224.733 89.8058 224.511 89.8058 224.205V224.145C89.8058 223.401 89.5955 222.824 89.1751 222.415C88.7603 222.006 88.141 221.801 87.3171 221.801C86.4592 221.801 85.783 221.991 85.2887 222.372C84.8001 222.747 84.462 223.165 84.2745 223.625L81.8796 223.08C82.1637 222.284 82.5785 221.642 83.1239 221.153C83.6751 220.659 84.3086 220.301 85.0245 220.08C85.7404 219.852 86.4933 219.739 87.283 219.739C87.8058 219.739 88.3597 219.801 88.945 219.926C89.5359 220.045 90.087 220.267 90.5984 220.591C91.1154 220.915 91.5387 221.378 91.8683 221.98C92.1978 222.577 92.3626 223.352 92.3626 224.307V233H89.8739V231.21H89.7717C89.6069 231.54 89.3597 231.864 89.0302 232.182C88.7006 232.5 88.2774 232.764 87.7603 232.974C87.2433 233.185 86.6239 233.29 85.9024 233.29ZM86.4563 231.244C87.1609 231.244 87.7631 231.105 88.2631 230.827C88.7688 230.548 89.1524 230.185 89.4137 229.736C89.6808 229.281 89.8143 228.795 89.8143 228.278V226.591C89.7234 226.682 89.5472 226.767 89.2859 226.847C89.0302 226.92 88.7376 226.986 88.408 227.043C88.0785 227.094 87.7575 227.142 87.445 227.188C87.1325 227.227 86.8711 227.261 86.6609 227.29C86.1666 227.352 85.7149 227.457 85.3058 227.605C84.9024 227.753 84.5785 227.966 84.3342 228.244C84.0955 228.517 83.9762 228.881 83.9762 229.335C83.9762 229.966 84.2092 230.443 84.6751 230.767C85.141 231.085 85.7347 231.244 86.4563 231.244ZM95.9728 237.909V219.909H98.4614V222.031H98.6745C98.8222 221.759 99.0353 221.443 99.3137 221.085C99.5921 220.727 99.9784 220.415 100.473 220.148C100.967 219.875 101.62 219.739 102.433 219.739C103.49 219.739 104.433 220.006 105.263 220.54C106.092 221.074 106.743 221.844 107.214 222.849C107.692 223.855 107.93 225.065 107.93 226.48C107.93 227.895 107.694 229.108 107.223 230.119C106.751 231.125 106.103 231.901 105.28 232.446C104.456 232.986 103.515 233.256 102.459 233.256C101.663 233.256 101.013 233.122 100.507 232.855C100.007 232.588 99.6148 232.276 99.3307 231.918C99.0466 231.56 98.8279 231.241 98.6745 230.963H98.5211V237.909H95.9728ZM98.4699 226.455C98.4699 227.375 98.6034 228.182 98.8705 228.875C99.1375 229.568 99.5239 230.111 100.03 230.503C100.535 230.889 101.155 231.082 101.888 231.082C102.649 231.082 103.285 230.881 103.797 230.477C104.308 230.068 104.694 229.514 104.956 228.815C105.223 228.116 105.356 227.33 105.356 226.455C105.356 225.591 105.226 224.815 104.964 224.128C104.709 223.44 104.322 222.898 103.805 222.5C103.294 222.102 102.655 221.903 101.888 221.903C101.149 221.903 100.524 222.094 100.013 222.474C99.5068 222.855 99.1233 223.386 98.862 224.068C98.6006 224.75 98.4699 225.545 98.4699 226.455ZM111.001 233V219.909H113.55V233H111.001ZM112.288 217.889C111.845 217.889 111.464 217.741 111.146 217.446C110.834 217.145 110.677 216.787 110.677 216.372C110.677 215.952 110.834 215.594 111.146 215.298C111.464 214.997 111.845 214.847 112.288 214.847C112.731 214.847 113.109 214.997 113.422 215.298C113.74 215.594 113.899 215.952 113.899 216.372C113.899 216.787 113.74 217.145 113.422 217.446C113.109 217.741 112.731 217.889 112.288 217.889ZM127.003 223.105L124.694 223.514C124.597 223.219 124.444 222.937 124.234 222.67C124.029 222.403 123.751 222.185 123.398 222.014C123.046 221.844 122.606 221.759 122.077 221.759C121.356 221.759 120.753 221.92 120.271 222.244C119.788 222.562 119.546 222.974 119.546 223.48C119.546 223.918 119.708 224.27 120.032 224.537C120.356 224.804 120.878 225.023 121.6 225.193L123.68 225.67C124.884 225.949 125.782 226.378 126.373 226.957C126.964 227.537 127.259 228.29 127.259 229.216C127.259 230 127.032 230.699 126.577 231.312C126.128 231.92 125.501 232.398 124.694 232.744C123.893 233.091 122.964 233.264 121.907 233.264C120.441 233.264 119.245 232.952 118.319 232.327C117.393 231.696 116.825 230.801 116.614 229.642L119.077 229.267C119.231 229.909 119.546 230.395 120.023 230.724C120.501 231.048 121.123 231.21 121.89 231.21C122.725 231.21 123.393 231.037 123.893 230.69C124.393 230.338 124.643 229.909 124.643 229.403C124.643 228.994 124.489 228.651 124.182 228.372C123.881 228.094 123.418 227.884 122.793 227.741L120.577 227.256C119.356 226.977 118.452 226.534 117.867 225.926C117.288 225.318 116.998 224.548 116.998 223.616C116.998 222.844 117.214 222.168 117.646 221.588C118.077 221.009 118.674 220.557 119.435 220.233C120.197 219.903 121.069 219.739 122.052 219.739C123.467 219.739 124.58 220.045 125.393 220.659C126.205 221.267 126.742 222.082 127.003 223.105ZM136.388 219.909V221.955H129.237V219.909H136.388ZM131.155 216.773H133.703V229.156C133.703 229.651 133.777 230.023 133.925 230.273C134.072 230.517 134.263 230.685 134.496 230.776C134.734 230.861 134.993 230.903 135.271 230.903C135.476 230.903 135.655 230.889 135.808 230.861C135.962 230.832 136.081 230.81 136.166 230.793L136.626 232.898C136.479 232.955 136.268 233.011 135.996 233.068C135.723 233.131 135.382 233.165 134.973 233.17C134.303 233.182 133.678 233.062 133.098 232.812C132.518 232.562 132.05 232.176 131.692 231.653C131.334 231.131 131.155 230.474 131.155 229.685V216.773ZM149.021 223.105L146.712 223.514C146.615 223.219 146.462 222.937 146.252 222.67C146.047 222.403 145.769 222.185 145.416 222.014C145.064 221.844 144.624 221.759 144.095 221.759C143.374 221.759 142.771 221.92 142.288 222.244C141.806 222.562 141.564 222.974 141.564 223.48C141.564 223.918 141.726 224.27 142.05 224.537C142.374 224.804 142.896 225.023 143.618 225.193L145.698 225.67C146.902 225.949 147.8 226.378 148.391 226.957C148.982 227.537 149.277 228.29 149.277 229.216C149.277 230 149.05 230.699 148.595 231.312C148.146 231.92 147.519 232.398 146.712 232.744C145.911 233.091 144.982 233.264 143.925 233.264C142.459 233.264 141.263 232.952 140.337 232.327C139.411 231.696 138.842 230.801 138.632 229.642L141.095 229.267C141.249 229.909 141.564 230.395 142.041 230.724C142.519 231.048 143.141 231.21 143.908 231.21C144.743 231.21 145.411 231.037 145.911 230.69C146.411 230.338 146.661 229.909 146.661 229.403C146.661 228.994 146.507 228.651 146.2 228.372C145.899 228.094 145.436 227.884 144.811 227.741L142.595 227.256C141.374 226.977 140.47 226.534 139.885 225.926C139.306 225.318 139.016 224.548 139.016 223.616C139.016 222.844 139.232 222.168 139.663 221.588C140.095 221.009 140.692 220.557 141.453 220.233C142.215 219.903 143.087 219.739 144.07 219.739C145.484 219.739 146.598 220.045 147.411 220.659C148.223 221.267 148.76 222.082 149.021 223.105ZM155.61 230.614L155.482 231.543C155.397 232.224 155.252 232.935 155.048 233.673C154.849 234.418 154.642 235.108 154.426 235.744C154.215 236.381 154.042 236.886 153.906 237.261H152.099C152.173 236.909 152.275 236.432 152.406 235.83C152.536 235.233 152.664 234.565 152.789 233.827C152.914 233.088 153.008 232.335 153.071 231.568L153.156 230.614H155.61ZM169.521 233.29C168.691 233.29 167.941 233.136 167.271 232.83C166.601 232.517 166.069 232.065 165.677 231.474C165.291 230.884 165.098 230.159 165.098 229.301C165.098 228.562 165.24 227.955 165.524 227.477C165.808 227 166.191 226.622 166.674 226.344C167.157 226.065 167.697 225.855 168.294 225.713C168.89 225.571 169.498 225.463 170.118 225.389C170.902 225.298 171.538 225.224 172.027 225.168C172.515 225.105 172.87 225.006 173.092 224.869C173.314 224.733 173.424 224.511 173.424 224.205V224.145C173.424 223.401 173.214 222.824 172.794 222.415C172.379 222.006 171.76 221.801 170.936 221.801C170.078 221.801 169.402 221.991 168.907 222.372C168.419 222.747 168.081 223.165 167.893 223.625L165.498 223.08C165.782 222.284 166.197 221.642 166.743 221.153C167.294 220.659 167.927 220.301 168.643 220.08C169.359 219.852 170.112 219.739 170.902 219.739C171.424 219.739 171.978 219.801 172.564 219.926C173.154 220.045 173.706 220.267 174.217 220.591C174.734 220.915 175.157 221.378 175.487 221.98C175.816 222.577 175.981 223.352 175.981 224.307V233H173.493V231.21H173.39C173.226 231.54 172.978 231.864 172.649 232.182C172.319 232.5 171.896 232.764 171.379 232.974C170.862 233.185 170.243 233.29 169.521 233.29ZM170.075 231.244C170.779 231.244 171.382 231.105 171.882 230.827C172.387 230.548 172.771 230.185 173.032 229.736C173.299 229.281 173.433 228.795 173.433 228.278V226.591C173.342 226.682 173.166 226.767 172.904 226.847C172.649 226.92 172.356 226.986 172.027 227.043C171.697 227.094 171.376 227.142 171.064 227.188C170.751 227.227 170.49 227.261 170.279 227.29C169.785 227.352 169.333 227.457 168.924 227.605C168.521 227.753 168.197 227.966 167.953 228.244C167.714 228.517 167.595 228.881 167.595 229.335C167.595 229.966 167.828 230.443 168.294 230.767C168.76 231.085 169.353 231.244 170.075 231.244ZM182.14 225.227V233H179.591V219.909H182.037V222.04H182.199C182.5 221.347 182.972 220.79 183.614 220.369C184.262 219.949 185.077 219.739 186.06 219.739C186.952 219.739 187.733 219.926 188.404 220.301C189.074 220.67 189.594 221.222 189.964 221.955C190.333 222.687 190.518 223.594 190.518 224.673V233H187.969V224.98C187.969 224.031 187.722 223.29 187.228 222.756C186.733 222.216 186.054 221.946 185.191 221.946C184.6 221.946 184.074 222.074 183.614 222.33C183.16 222.585 182.799 222.96 182.532 223.455C182.27 223.943 182.14 224.534 182.14 225.227ZM199.052 233.256C197.995 233.256 197.052 232.986 196.222 232.446C195.398 231.901 194.751 231.125 194.279 230.119C193.813 229.108 193.58 227.895 193.58 226.48C193.58 225.065 193.816 223.855 194.287 222.849C194.765 221.844 195.418 221.074 196.248 220.54C197.077 220.006 198.018 219.739 199.069 219.739C199.881 219.739 200.535 219.875 201.029 220.148C201.529 220.415 201.915 220.727 202.188 221.085C202.466 221.443 202.682 221.759 202.836 222.031H202.989V215.545H205.537V233H203.049V230.963H202.836C202.682 231.241 202.461 231.56 202.171 231.918C201.887 232.276 201.495 232.588 200.995 232.855C200.495 233.122 199.847 233.256 199.052 233.256ZM199.614 231.082C200.347 231.082 200.966 230.889 201.472 230.503C201.984 230.111 202.37 229.568 202.631 228.875C202.898 228.182 203.032 227.375 203.032 226.455C203.032 225.545 202.901 224.75 202.64 224.068C202.378 223.386 201.995 222.855 201.489 222.474C200.984 222.094 200.359 221.903 199.614 221.903C198.847 221.903 198.208 222.102 197.697 222.5C197.185 222.898 196.799 223.44 196.537 224.128C196.282 224.815 196.154 225.591 196.154 226.455C196.154 227.33 196.285 228.116 196.546 228.815C196.807 229.514 197.194 230.068 197.705 230.477C198.222 230.881 198.859 231.082 199.614 231.082ZM221.472 233.264C220.205 233.264 219.114 232.977 218.2 232.403C217.291 231.824 216.592 231.026 216.103 230.009C215.614 228.991 215.37 227.827 215.37 226.514C215.37 225.185 215.62 224.011 216.12 222.994C216.62 221.972 217.325 221.173 218.234 220.599C219.143 220.026 220.214 219.739 221.447 219.739C222.441 219.739 223.327 219.923 224.106 220.293C224.884 220.656 225.512 221.168 225.989 221.827C226.472 222.486 226.759 223.256 226.85 224.136H224.37C224.234 223.523 223.921 222.994 223.433 222.551C222.95 222.108 222.302 221.886 221.489 221.886C220.779 221.886 220.157 222.074 219.623 222.449C219.094 222.818 218.683 223.347 218.387 224.034C218.092 224.716 217.944 225.523 217.944 226.455C217.944 227.409 218.089 228.233 218.379 228.926C218.668 229.619 219.077 230.156 219.606 230.537C220.14 230.918 220.768 231.108 221.489 231.108C221.972 231.108 222.41 231.02 222.802 230.844C223.2 230.662 223.532 230.403 223.799 230.068C224.072 229.733 224.262 229.33 224.37 228.858H226.85C226.759 229.705 226.484 230.46 226.023 231.125C225.563 231.79 224.947 232.312 224.174 232.693C223.407 233.074 222.506 233.264 221.472 233.264ZM235.306 233.264C234.078 233.264 233.007 232.983 232.092 232.42C231.178 231.858 230.467 231.071 229.962 230.06C229.456 229.048 229.203 227.866 229.203 226.514C229.203 225.156 229.456 223.969 229.962 222.952C230.467 221.935 231.178 221.145 232.092 220.582C233.007 220.02 234.078 219.739 235.306 219.739C236.533 219.739 237.604 220.02 238.519 220.582C239.433 221.145 240.144 221.935 240.649 222.952C241.155 223.969 241.408 225.156 241.408 226.514C241.408 227.866 241.155 229.048 240.649 230.06C240.144 231.071 239.433 231.858 238.519 232.42C237.604 232.983 236.533 233.264 235.306 233.264ZM235.314 231.125C236.109 231.125 236.769 230.915 237.291 230.494C237.814 230.074 238.2 229.514 238.45 228.815C238.706 228.116 238.834 227.347 238.834 226.506C238.834 225.67 238.706 224.903 238.45 224.205C238.2 223.5 237.814 222.935 237.291 222.509C236.769 222.082 236.109 221.869 235.314 221.869C234.513 221.869 233.848 222.082 233.32 222.509C232.797 222.935 232.408 223.5 232.152 224.205C231.902 224.903 231.777 225.67 231.777 226.506C231.777 227.347 231.902 228.116 232.152 228.815C232.408 229.514 232.797 230.074 233.32 230.494C233.848 230.915 234.513 231.125 235.314 231.125ZM248.278 233.29C247.448 233.29 246.698 233.136 246.028 232.83C245.357 232.517 244.826 232.065 244.434 231.474C244.048 230.884 243.855 230.159 243.855 229.301C243.855 228.562 243.997 227.955 244.281 227.477C244.565 227 244.948 226.622 245.431 226.344C245.914 226.065 246.454 225.855 247.051 225.713C247.647 225.571 248.255 225.463 248.875 225.389C249.659 225.298 250.295 225.224 250.784 225.168C251.272 225.105 251.627 225.006 251.849 224.869C252.071 224.733 252.181 224.511 252.181 224.205V224.145C252.181 223.401 251.971 222.824 251.551 222.415C251.136 222.006 250.517 221.801 249.693 221.801C248.835 221.801 248.159 221.991 247.664 222.372C247.176 222.747 246.838 223.165 246.65 223.625L244.255 223.08C244.539 222.284 244.954 221.642 245.5 221.153C246.051 220.659 246.684 220.301 247.4 220.08C248.116 219.852 248.869 219.739 249.659 219.739C250.181 219.739 250.735 219.801 251.321 219.926C251.911 220.045 252.463 220.267 252.974 220.591C253.491 220.915 253.914 221.378 254.244 221.98C254.573 222.577 254.738 223.352 254.738 224.307V233H252.25V231.21H252.147C251.982 231.54 251.735 231.864 251.406 232.182C251.076 232.5 250.653 232.764 250.136 232.974C249.619 233.185 249 233.29 248.278 233.29ZM248.832 231.244C249.536 231.244 250.139 231.105 250.639 230.827C251.144 230.548 251.528 230.185 251.789 229.736C252.056 229.281 252.19 228.795 252.19 228.278V226.591C252.099 226.682 251.923 226.767 251.661 226.847C251.406 226.92 251.113 226.986 250.784 227.043C250.454 227.094 250.133 227.142 249.821 227.188C249.508 227.227 249.247 227.261 249.036 227.29C248.542 227.352 248.09 227.457 247.681 227.605C247.278 227.753 246.954 227.966 246.71 228.244C246.471 228.517 246.352 228.881 246.352 229.335C246.352 229.966 246.585 230.443 247.051 230.767C247.517 231.085 248.11 231.244 248.832 231.244ZM263.863 233.264C262.595 233.264 261.505 232.977 260.59 232.403C259.681 231.824 258.982 231.026 258.493 230.009C258.005 228.991 257.76 227.827 257.76 226.514C257.76 225.185 258.01 224.011 258.51 222.994C259.01 221.972 259.715 221.173 260.624 220.599C261.533 220.026 262.604 219.739 263.837 219.739C264.831 219.739 265.718 219.923 266.496 220.293C267.274 220.656 267.902 221.168 268.38 221.827C268.863 222.486 269.149 223.256 269.24 224.136H266.76C266.624 223.523 266.311 222.994 265.823 222.551C265.34 222.108 264.692 221.886 263.88 221.886C263.169 221.886 262.547 222.074 262.013 222.449C261.485 222.818 261.073 223.347 260.777 224.034C260.482 224.716 260.334 225.523 260.334 226.455C260.334 227.409 260.479 228.233 260.769 228.926C261.059 229.619 261.468 230.156 261.996 230.537C262.53 230.918 263.158 231.108 263.88 231.108C264.363 231.108 264.8 231.02 265.192 230.844C265.59 230.662 265.922 230.403 266.189 230.068C266.462 229.733 266.652 229.33 266.76 228.858H269.24C269.149 229.705 268.874 230.46 268.414 231.125C267.953 231.79 267.337 232.312 266.564 232.693C265.797 233.074 264.897 233.264 263.863 233.264ZM274.73 225.227V233H272.182V215.545H274.696V222.04H274.858C275.164 221.335 275.633 220.776 276.264 220.361C276.895 219.946 277.718 219.739 278.735 219.739C279.633 219.739 280.417 219.923 281.088 220.293C281.764 220.662 282.287 221.213 282.656 221.946C283.031 222.673 283.218 223.582 283.218 224.673V233H280.67V224.98C280.67 224.02 280.423 223.276 279.929 222.747C279.434 222.213 278.747 221.946 277.866 221.946C277.264 221.946 276.724 222.074 276.247 222.33C275.775 222.585 275.403 222.96 275.13 223.455C274.863 223.943 274.73 224.534 274.73 225.227ZM292.477 233.264C291.187 233.264 290.076 232.989 289.145 232.438C288.219 231.881 287.503 231.099 286.997 230.094C286.497 229.082 286.247 227.898 286.247 226.54C286.247 225.199 286.497 224.017 286.997 222.994C287.503 221.972 288.207 221.173 289.111 220.599C290.02 220.026 291.082 219.739 292.298 219.739C293.037 219.739 293.753 219.861 294.446 220.105C295.139 220.349 295.761 220.733 296.312 221.256C296.863 221.778 297.298 222.457 297.616 223.293C297.934 224.122 298.094 225.131 298.094 226.318V227.222H287.687V225.312H295.596C295.596 224.642 295.46 224.048 295.187 223.531C294.915 223.009 294.531 222.597 294.037 222.295C293.548 221.994 292.974 221.844 292.315 221.844C291.599 221.844 290.974 222.02 290.44 222.372C289.912 222.719 289.503 223.173 289.213 223.736C288.929 224.293 288.787 224.898 288.787 225.551V227.043C288.787 227.918 288.94 228.662 289.247 229.276C289.559 229.889 289.994 230.358 290.551 230.682C291.108 231 291.758 231.159 292.503 231.159C292.986 231.159 293.426 231.091 293.824 230.955C294.221 230.812 294.565 230.602 294.855 230.324C295.145 230.045 295.366 229.702 295.52 229.293L297.932 229.727C297.738 230.437 297.392 231.06 296.892 231.594C296.398 232.122 295.775 232.534 295.025 232.83C294.281 233.119 293.432 233.264 292.477 233.264ZM310.947 223.105L308.637 223.514C308.54 223.219 308.387 222.937 308.177 222.67C307.972 222.403 307.694 222.185 307.342 222.014C306.989 221.844 306.549 221.759 306.02 221.759C305.299 221.759 304.697 221.92 304.214 222.244C303.731 222.562 303.489 222.974 303.489 223.48C303.489 223.918 303.651 224.27 303.975 224.537C304.299 224.804 304.822 225.023 305.543 225.193L307.623 225.67C308.827 225.949 309.725 226.378 310.316 226.957C310.907 227.537 311.202 228.29 311.202 229.216C311.202 230 310.975 230.699 310.52 231.312C310.072 231.92 309.444 232.398 308.637 232.744C307.836 233.091 306.907 233.264 305.85 233.264C304.384 233.264 303.188 232.952 302.262 232.327C301.336 231.696 300.768 230.801 300.557 229.642L303.02 229.267C303.174 229.909 303.489 230.395 303.967 230.724C304.444 231.048 305.066 231.21 305.833 231.21C306.668 231.21 307.336 231.037 307.836 230.69C308.336 230.338 308.586 229.909 308.586 229.403C308.586 228.994 308.432 228.651 308.126 228.372C307.824 228.094 307.361 227.884 306.736 227.741L304.52 227.256C303.299 226.977 302.395 226.534 301.81 225.926C301.231 225.318 300.941 224.548 300.941 223.616C300.941 222.844 301.157 222.168 301.589 221.588C302.02 221.009 302.617 220.557 303.378 220.233C304.14 219.903 305.012 219.739 305.995 219.739C307.41 219.739 308.523 220.045 309.336 220.659C310.148 221.267 310.685 222.082 310.947 223.105ZM331.987 219.909L327.239 233H324.512L319.756 219.909H322.492L325.808 229.983H325.944L329.251 219.909H331.987ZM334.597 233V219.909H337.146V233H334.597ZM335.884 217.889C335.441 217.889 335.061 217.741 334.742 217.446C334.43 217.145 334.274 216.787 334.274 216.372C334.274 215.952 334.43 215.594 334.742 215.298C335.061 214.997 335.441 214.847 335.884 214.847C336.328 214.847 336.705 214.997 337.018 215.298C337.336 215.594 337.495 215.952 337.495 216.372C337.495 216.787 337.336 217.145 337.018 217.446C336.705 217.741 336.328 217.889 335.884 217.889ZM344.6 233.29C343.77 233.29 343.02 233.136 342.35 232.83C341.679 232.517 341.148 232.065 340.756 231.474C340.37 230.884 340.176 230.159 340.176 229.301C340.176 228.562 340.318 227.955 340.603 227.477C340.887 227 341.27 226.622 341.753 226.344C342.236 226.065 342.776 225.855 343.372 225.713C343.969 225.571 344.577 225.463 345.196 225.389C345.98 225.298 346.617 225.224 347.105 225.168C347.594 225.105 347.949 225.006 348.171 224.869C348.392 224.733 348.503 224.511 348.503 224.205V224.145C348.503 223.401 348.293 222.824 347.872 222.415C347.458 222.006 346.838 221.801 346.014 221.801C345.156 221.801 344.48 221.991 343.986 222.372C343.497 222.747 343.159 223.165 342.972 223.625L340.577 223.08C340.861 222.284 341.276 221.642 341.821 221.153C342.372 220.659 343.006 220.301 343.722 220.08C344.438 219.852 345.191 219.739 345.98 219.739C346.503 219.739 347.057 219.801 347.642 219.926C348.233 220.045 348.784 220.267 349.296 220.591C349.813 220.915 350.236 221.378 350.566 221.98C350.895 222.577 351.06 223.352 351.06 224.307V233H348.571V231.21H348.469C348.304 231.54 348.057 231.864 347.728 232.182C347.398 232.5 346.975 232.764 346.458 232.974C345.941 233.185 345.321 233.29 344.6 233.29ZM345.154 231.244C345.858 231.244 346.46 231.105 346.96 230.827C347.466 230.548 347.85 230.185 348.111 229.736C348.378 229.281 348.512 228.795 348.512 228.278V226.591C348.421 226.682 348.245 226.767 347.983 226.847C347.728 226.92 347.435 226.986 347.105 227.043C346.776 227.094 346.455 227.142 346.142 227.188C345.83 227.227 345.568 227.261 345.358 227.29C344.864 227.352 344.412 227.457 344.003 227.605C343.6 227.753 343.276 227.966 343.031 228.244C342.793 228.517 342.674 228.881 342.674 229.335C342.674 229.966 342.906 230.443 343.372 230.767C343.838 231.085 344.432 231.244 345.154 231.244ZM367.348 219.909V221.955H360.198V219.909H367.348ZM362.115 216.773H364.664V229.156C364.664 229.651 364.738 230.023 364.885 230.273C365.033 230.517 365.223 230.685 365.456 230.776C365.695 230.861 365.954 230.903 366.232 230.903C366.436 230.903 366.615 230.889 366.769 230.861C366.922 230.832 367.042 230.81 367.127 230.793L367.587 232.898C367.439 232.955 367.229 233.011 366.956 233.068C366.684 233.131 366.343 233.165 365.934 233.17C365.263 233.182 364.638 233.062 364.059 232.812C363.479 232.562 363.01 232.176 362.652 231.653C362.294 231.131 362.115 230.474 362.115 229.685V216.773ZM375.885 233.264C374.595 233.264 373.484 232.989 372.552 232.438C371.626 231.881 370.91 231.099 370.405 230.094C369.905 229.082 369.655 227.898 369.655 226.54C369.655 225.199 369.905 224.017 370.405 222.994C370.91 221.972 371.615 221.173 372.518 220.599C373.427 220.026 374.49 219.739 375.706 219.739C376.444 219.739 377.16 219.861 377.853 220.105C378.547 220.349 379.169 220.733 379.72 221.256C380.271 221.778 380.706 222.457 381.024 223.293C381.342 224.122 381.501 225.131 381.501 226.318V227.222H371.095V225.312H379.004C379.004 224.642 378.868 224.048 378.595 223.531C378.322 223.009 377.939 222.597 377.444 222.295C376.956 221.994 376.382 221.844 375.723 221.844C375.007 221.844 374.382 222.02 373.848 222.372C373.319 222.719 372.91 223.173 372.621 223.736C372.336 224.293 372.194 224.898 372.194 225.551V227.043C372.194 227.918 372.348 228.662 372.655 229.276C372.967 229.889 373.402 230.358 373.959 230.682C374.515 231 375.166 231.159 375.91 231.159C376.393 231.159 376.834 231.091 377.231 230.955C377.629 230.812 377.973 230.602 378.263 230.324C378.552 230.045 378.774 229.702 378.927 229.293L381.339 229.727C381.146 230.437 380.8 231.06 380.3 231.594C379.805 232.122 379.183 232.534 378.433 232.83C377.689 233.119 376.839 233.264 375.885 233.264ZM386.251 219.909L389.141 225.006L392.055 219.909H394.842L390.76 226.455L394.876 233H392.089L389.141 228.108L386.2 233H383.405L387.479 226.455L383.456 219.909H386.251ZM403.786 219.909V221.955H396.635V219.909H403.786ZM398.553 216.773H401.101V229.156C401.101 229.651 401.175 230.023 401.322 230.273C401.47 230.517 401.661 230.685 401.893 230.776C402.132 230.861 402.391 230.903 402.669 230.903C402.874 230.903 403.053 230.889 403.206 230.861C403.359 230.832 403.479 230.81 403.564 230.793L404.024 232.898C403.876 232.955 403.666 233.011 403.393 233.068C403.121 233.131 402.78 233.165 402.371 233.17C401.7 233.182 401.075 233.062 400.496 232.812C399.916 232.562 399.447 232.176 399.089 231.653C398.732 231.131 398.553 230.474 398.553 229.685V216.773ZM410.136 230.614L410.008 231.543C409.923 232.224 409.778 232.935 409.573 233.673C409.374 234.418 409.167 235.108 408.951 235.744C408.741 236.381 408.568 236.886 408.431 237.261H406.624C406.698 236.909 406.8 236.432 406.931 235.83C407.062 235.233 407.19 234.565 407.315 233.827C407.44 233.088 407.533 232.335 407.596 231.568L407.681 230.614H410.136ZM38.2102 265.29C37.3807 265.29 36.6307 265.136 35.9602 264.83C35.2898 264.517 34.7585 264.065 34.3665 263.474C33.9801 262.884 33.7869 262.159 33.7869 261.301C33.7869 260.562 33.929 259.955 34.2131 259.477C34.4972 259 34.8807 258.622 35.3636 258.344C35.8466 258.065 36.3864 257.855 36.983 257.713C37.5795 257.571 38.1875 257.463 38.8068 257.389C39.5909 257.298 40.2273 257.224 40.7159 257.168C41.2045 257.105 41.5597 257.006 41.7812 256.869C42.0028 256.733 42.1136 256.511 42.1136 256.205V256.145C42.1136 255.401 41.9034 254.824 41.483 254.415C41.0682 254.006 40.4489 253.801 39.625 253.801C38.767 253.801 38.0909 253.991 37.5966 254.372C37.108 254.747 36.7699 255.165 36.5824 255.625L34.1875 255.08C34.4716 254.284 34.8864 253.642 35.4318 253.153C35.983 252.659 36.6165 252.301 37.3324 252.08C38.0483 251.852 38.8011 251.739 39.5909 251.739C40.1136 251.739 40.6676 251.801 41.2528 251.926C41.8438 252.045 42.3949 252.267 42.9062 252.591C43.4233 252.915 43.8466 253.378 44.1761 253.98C44.5057 254.577 44.6705 255.352 44.6705 256.307V265H42.1818V263.21H42.0795C41.9148 263.54 41.6676 263.864 41.3381 264.182C41.0085 264.5 40.5852 264.764 40.0682 264.974C39.5511 265.185 38.9318 265.29 38.2102 265.29ZM38.7642 263.244C39.4688 263.244 40.071 263.105 40.571 262.827C41.0767 262.548 41.4602 262.185 41.7216 261.736C41.9886 261.281 42.1222 260.795 42.1222 260.278V258.591C42.0313 258.682 41.8551 258.767 41.5938 258.847C41.3381 258.92 41.0455 258.986 40.7159 259.043C40.3864 259.094 40.0653 259.142 39.7528 259.188C39.4403 259.227 39.179 259.261 38.9688 259.29C38.4744 259.352 38.0227 259.457 37.6136 259.605C37.2102 259.753 36.8864 259.966 36.642 260.244C36.4034 260.517 36.2841 260.881 36.2841 261.335C36.2841 261.966 36.517 262.443 36.983 262.767C37.4489 263.085 38.0426 263.244 38.7642 263.244ZM56.5732 259.571V251.909H59.1301V265H56.6244V262.733H56.488C56.1869 263.432 55.7039 264.014 55.0392 264.48C54.3801 264.94 53.559 265.17 52.5761 265.17C51.7352 265.17 50.9909 264.986 50.3431 264.616C49.7011 264.241 49.1954 263.688 48.8261 262.955C48.4624 262.222 48.2806 261.315 48.2806 260.236V251.909H50.8289V259.929C50.8289 260.821 51.0761 261.531 51.5704 262.06C52.0647 262.588 52.7068 262.852 53.4965 262.852C53.9738 262.852 54.4482 262.733 54.9198 262.494C55.3971 262.256 55.792 261.895 56.1045 261.412C56.4227 260.929 56.5789 260.315 56.5732 259.571ZM67.6706 265.256C66.6138 265.256 65.6706 264.986 64.8411 264.446C64.0172 263.901 63.3695 263.125 62.8979 262.119C62.432 261.108 62.199 259.895 62.199 258.48C62.199 257.065 62.4348 255.855 62.9064 254.849C63.3837 253.844 64.0371 253.074 64.8667 252.54C65.6962 252.006 66.6365 251.739 67.6877 251.739C68.5002 251.739 69.1536 251.875 69.6479 252.148C70.1479 252.415 70.5343 252.727 70.807 253.085C71.0854 253.443 71.3013 253.759 71.4547 254.031H71.6081V247.545H74.1564V265H71.6678V262.963H71.4547C71.3013 263.241 71.0797 263.56 70.79 263.918C70.5059 264.276 70.1138 264.588 69.6138 264.855C69.1138 265.122 68.4661 265.256 67.6706 265.256ZM68.2331 263.082C68.9661 263.082 69.5854 262.889 70.0911 262.503C70.6025 262.111 70.9888 261.568 71.2502 260.875C71.5172 260.182 71.6507 259.375 71.6507 258.455C71.6507 257.545 71.5201 256.75 71.2587 256.068C70.9973 255.386 70.6138 254.855 70.1081 254.474C69.6025 254.094 68.9775 253.903 68.2331 253.903C67.4661 253.903 66.8269 254.102 66.3155 254.5C65.8042 254.898 65.4178 255.44 65.1564 256.128C64.9007 256.815 64.7729 257.591 64.7729 258.455C64.7729 259.33 64.9036 260.116 65.165 260.815C65.4263 261.514 65.8127 262.068 66.324 262.477C66.8411 262.881 67.4775 263.082 68.2331 263.082ZM78.0095 265V251.909H80.5578V265H78.0095ZM79.2964 249.889C78.8533 249.889 78.4726 249.741 78.1544 249.446C77.8419 249.145 77.6856 248.787 77.6856 248.372C77.6856 247.952 77.8419 247.594 78.1544 247.298C78.4726 246.997 78.8533 246.847 79.2964 246.847C79.7396 246.847 80.1175 246.997 80.43 247.298C80.7481 247.594 80.9072 247.952 80.9072 248.372C80.9072 248.787 80.7481 249.145 80.43 249.446C80.1175 249.741 79.7396 249.889 79.2964 249.889ZM89.7163 265.264C88.489 265.264 87.418 264.983 86.5032 264.42C85.5884 263.858 84.8782 263.071 84.3725 262.06C83.8668 261.048 83.614 259.866 83.614 258.514C83.614 257.156 83.8668 255.969 84.3725 254.952C84.8782 253.935 85.5884 253.145 86.5032 252.582C87.418 252.02 88.489 251.739 89.7163 251.739C90.9435 251.739 92.0146 252.02 92.9293 252.582C93.8441 253.145 94.5543 253.935 95.06 254.952C95.5657 255.969 95.8185 257.156 95.8185 258.514C95.8185 259.866 95.5657 261.048 95.06 262.06C94.5543 263.071 93.8441 263.858 92.9293 264.42C92.0146 264.983 90.9435 265.264 89.7163 265.264ZM89.7248 263.125C90.5202 263.125 91.1793 262.915 91.7021 262.494C92.2248 262.074 92.6112 261.514 92.8612 260.815C93.1168 260.116 93.2447 259.347 93.2447 258.506C93.2447 257.67 93.1168 256.903 92.8612 256.205C92.6112 255.5 92.2248 254.935 91.7021 254.509C91.1793 254.082 90.5202 253.869 89.7248 253.869C88.9237 253.869 88.2589 254.082 87.7305 254.509C87.2077 254.935 86.8185 255.5 86.5629 256.205C86.3129 256.903 86.1879 257.67 86.1879 258.506C86.1879 259.347 86.3129 260.116 86.5629 260.815C86.8185 261.514 87.2077 262.074 87.7305 262.494C88.2589 262.915 88.9237 263.125 89.7248 263.125ZM102.194 262.614L102.067 263.543C101.981 264.224 101.836 264.935 101.632 265.673C101.433 266.418 101.226 267.108 101.01 267.744C100.799 268.381 100.626 268.886 100.49 269.261H98.683C98.7568 268.909 98.8591 268.432 98.9898 267.83C99.1205 267.233 99.2483 266.565 99.3733 265.827C99.4983 265.088 99.5921 264.335 99.6546 263.568L99.7398 262.614H102.194ZM117.81 265.264C116.582 265.264 115.511 264.983 114.597 264.42C113.682 263.858 112.972 263.071 112.466 262.06C111.96 261.048 111.707 259.866 111.707 258.514C111.707 257.156 111.96 255.969 112.466 254.952C112.972 253.935 113.682 253.145 114.597 252.582C115.511 252.02 116.582 251.739 117.81 251.739C119.037 251.739 120.108 252.02 121.023 252.582C121.937 253.145 122.648 253.935 123.153 254.952C123.659 255.969 123.912 257.156 123.912 258.514C123.912 259.866 123.659 261.048 123.153 262.06C122.648 263.071 121.937 263.858 121.023 264.42C120.108 264.983 119.037 265.264 117.81 265.264ZM117.818 263.125C118.614 263.125 119.273 262.915 119.795 262.494C120.318 262.074 120.704 261.514 120.954 260.815C121.21 260.116 121.338 259.347 121.338 258.506C121.338 257.67 121.21 256.903 120.954 256.205C120.704 255.5 120.318 254.935 119.795 254.509C119.273 254.082 118.614 253.869 117.818 253.869C117.017 253.869 116.352 254.082 115.824 254.509C115.301 254.935 114.912 255.5 114.656 256.205C114.406 256.903 114.281 257.67 114.281 258.506C114.281 259.347 114.406 260.116 114.656 260.815C114.912 261.514 115.301 262.074 115.824 262.494C116.352 262.915 117.017 263.125 117.818 263.125ZM126.972 265V251.909H129.435V253.989H129.572C129.81 253.284 130.231 252.73 130.833 252.327C131.441 251.918 132.129 251.713 132.896 251.713C133.055 251.713 133.242 251.719 133.458 251.73C133.68 251.741 133.853 251.756 133.978 251.773V254.21C133.876 254.182 133.694 254.151 133.433 254.116C133.171 254.077 132.91 254.057 132.648 254.057C132.046 254.057 131.509 254.185 131.038 254.44C130.572 254.69 130.202 255.04 129.93 255.489C129.657 255.932 129.521 256.437 129.521 257.006V265H126.972ZM154.166 251.909L149.419 265H146.691L141.936 251.909H144.671L147.987 261.983H148.123L151.43 251.909H154.166ZM156.777 265V251.909H159.325V265H156.777ZM158.063 249.889C157.62 249.889 157.24 249.741 156.921 249.446C156.609 249.145 156.453 248.787 156.453 248.372C156.453 247.952 156.609 247.594 156.921 247.298C157.24 246.997 157.62 246.847 158.063 246.847C158.507 246.847 158.885 246.997 159.197 247.298C159.515 247.594 159.674 247.952 159.674 248.372C159.674 248.787 159.515 249.145 159.197 249.446C158.885 249.741 158.507 249.889 158.063 249.889ZM167.87 265.256C166.813 265.256 165.87 264.986 165.04 264.446C164.216 263.901 163.569 263.125 163.097 262.119C162.631 261.108 162.398 259.895 162.398 258.48C162.398 257.065 162.634 255.855 163.105 254.849C163.583 253.844 164.236 253.074 165.066 252.54C165.895 252.006 166.836 251.739 167.887 251.739C168.699 251.739 169.353 251.875 169.847 252.148C170.347 252.415 170.733 252.727 171.006 253.085C171.284 253.443 171.5 253.759 171.654 254.031H171.807V247.545H174.355V265H171.867V262.963H171.654C171.5 263.241 171.279 263.56 170.989 263.918C170.705 264.276 170.313 264.588 169.813 264.855C169.313 265.122 168.665 265.256 167.87 265.256ZM168.432 263.082C169.165 263.082 169.784 262.889 170.29 262.503C170.802 262.111 171.188 261.568 171.449 260.875C171.716 260.182 171.85 259.375 171.85 258.455C171.85 257.545 171.719 256.75 171.458 256.068C171.196 255.386 170.813 254.855 170.307 254.474C169.802 254.094 169.177 253.903 168.432 253.903C167.665 253.903 167.026 254.102 166.515 254.5C166.003 254.898 165.617 255.44 165.355 256.128C165.1 256.815 164.972 257.591 164.972 258.455C164.972 259.33 165.103 260.116 165.364 260.815C165.625 261.514 166.012 262.068 166.523 262.477C167.04 262.881 167.677 263.082 168.432 263.082ZM183.851 265.264C182.561 265.264 181.45 264.989 180.518 264.438C179.592 263.881 178.876 263.099 178.37 262.094C177.87 261.082 177.62 259.898 177.62 258.54C177.62 257.199 177.87 256.017 178.37 254.994C178.876 253.972 179.581 253.173 180.484 252.599C181.393 252.026 182.456 251.739 183.672 251.739C184.41 251.739 185.126 251.861 185.819 252.105C186.513 252.349 187.135 252.733 187.686 253.256C188.237 253.778 188.672 254.457 188.99 255.293C189.308 256.122 189.467 257.131 189.467 258.318V259.222H179.061V257.312H186.97C186.97 256.642 186.834 256.048 186.561 255.531C186.288 255.009 185.905 254.597 185.41 254.295C184.922 253.994 184.348 253.844 183.689 253.844C182.973 253.844 182.348 254.02 181.814 254.372C181.285 254.719 180.876 255.173 180.586 255.736C180.302 256.293 180.16 256.898 180.16 257.551V259.043C180.16 259.918 180.314 260.662 180.62 261.276C180.933 261.889 181.368 262.358 181.924 262.682C182.481 263 183.132 263.159 183.876 263.159C184.359 263.159 184.799 263.091 185.197 262.955C185.595 262.812 185.939 262.602 186.228 262.324C186.518 262.045 186.74 261.702 186.893 261.293L189.305 261.727C189.112 262.437 188.765 263.06 188.265 263.594C187.771 264.122 187.149 264.534 186.399 264.83C185.655 265.119 184.805 265.264 183.851 265.264ZM198.025 265.264C196.797 265.264 195.726 264.983 194.812 264.42C193.897 263.858 193.187 263.071 192.681 262.06C192.175 261.048 191.922 259.866 191.922 258.514C191.922 257.156 192.175 255.969 192.681 254.952C193.187 253.935 193.897 253.145 194.812 252.582C195.726 252.02 196.797 251.739 198.025 251.739C199.252 251.739 200.323 252.02 201.238 252.582C202.153 253.145 202.863 253.935 203.368 254.952C203.874 255.969 204.127 257.156 204.127 258.514C204.127 259.866 203.874 261.048 203.368 262.06C202.863 263.071 202.153 263.858 201.238 264.42C200.323 264.983 199.252 265.264 198.025 265.264ZM198.033 263.125C198.829 263.125 199.488 262.915 200.011 262.494C200.533 262.074 200.92 261.514 201.17 260.815C201.425 260.116 201.553 259.347 201.553 258.506C201.553 257.67 201.425 256.903 201.17 256.205C200.92 255.5 200.533 254.935 200.011 254.509C199.488 254.082 198.829 253.869 198.033 253.869C197.232 253.869 196.567 254.082 196.039 254.509C195.516 254.935 195.127 255.5 194.871 256.205C194.621 256.903 194.496 257.67 194.496 258.506C194.496 259.347 194.621 260.116 194.871 260.815C195.127 261.514 195.516 262.074 196.039 262.494C196.567 262.915 197.232 263.125 198.033 263.125ZM219.985 251.909V253.955H212.587V251.909H219.985ZM214.616 265V250.392C214.616 249.574 214.795 248.895 215.153 248.355C215.511 247.81 215.985 247.403 216.576 247.136C217.167 246.864 217.809 246.727 218.502 246.727C219.014 246.727 219.451 246.77 219.815 246.855C220.178 246.935 220.448 247.009 220.624 247.077L220.028 249.139C219.908 249.105 219.755 249.065 219.567 249.02C219.38 248.969 219.153 248.943 218.886 248.943C218.266 248.943 217.823 249.097 217.556 249.403C217.295 249.71 217.164 250.153 217.164 250.733V265H214.616ZM227.829 265.264C226.602 265.264 225.531 264.983 224.616 264.42C223.701 263.858 222.991 263.071 222.485 262.06C221.98 261.048 221.727 259.866 221.727 258.514C221.727 257.156 221.98 255.969 222.485 254.952C222.991 253.935 223.701 253.145 224.616 252.582C225.531 252.02 226.602 251.739 227.829 251.739C229.056 251.739 230.127 252.02 231.042 252.582C231.957 253.145 232.667 253.935 233.173 254.952C233.678 255.969 233.931 257.156 233.931 258.514C233.931 259.866 233.678 261.048 233.173 262.06C232.667 263.071 231.957 263.858 231.042 264.42C230.127 264.983 229.056 265.264 227.829 265.264ZM227.837 263.125C228.633 263.125 229.292 262.915 229.815 262.494C230.337 262.074 230.724 261.514 230.974 260.815C231.23 260.116 231.357 259.347 231.357 258.506C231.357 257.67 231.23 256.903 230.974 256.205C230.724 255.5 230.337 254.935 229.815 254.509C229.292 254.082 228.633 253.869 227.837 253.869C227.036 253.869 226.372 254.082 225.843 254.509C225.32 254.935 224.931 255.5 224.676 256.205C224.426 256.903 224.301 257.67 224.301 258.506C224.301 259.347 224.426 260.116 224.676 260.815C224.931 261.514 225.32 262.074 225.843 262.494C226.372 262.915 227.036 263.125 227.837 263.125ZM236.992 265V251.909H239.455V253.989H239.591C239.83 253.284 240.25 252.73 240.852 252.327C241.46 251.918 242.148 251.713 242.915 251.713C243.074 251.713 243.262 251.719 243.477 251.73C243.699 251.741 243.872 251.756 243.997 251.773V254.21C243.895 254.182 243.713 254.151 243.452 254.116C243.191 254.077 242.929 254.057 242.668 254.057C242.066 254.057 241.529 254.185 241.057 254.44C240.591 254.69 240.222 255.04 239.949 255.489C239.676 255.932 239.54 256.437 239.54 257.006V265H236.992ZM259.097 251.909V253.955H251.946V251.909H259.097ZM253.864 248.773H256.412V261.156C256.412 261.651 256.486 262.023 256.634 262.273C256.782 262.517 256.972 262.685 257.205 262.776C257.444 262.861 257.702 262.903 257.981 262.903C258.185 262.903 258.364 262.889 258.517 262.861C258.671 262.832 258.79 262.81 258.875 262.793L259.336 264.898C259.188 264.955 258.978 265.011 258.705 265.068C258.432 265.131 258.091 265.165 257.682 265.17C257.012 265.182 256.387 265.062 255.807 264.812C255.228 264.562 254.759 264.176 254.401 263.653C254.043 263.131 253.864 262.474 253.864 261.685V248.773ZM265.942 265.29C265.112 265.29 264.362 265.136 263.692 264.83C263.021 264.517 262.49 264.065 262.098 263.474C261.711 262.884 261.518 262.159 261.518 261.301C261.518 260.562 261.66 259.955 261.944 259.477C262.228 259 262.612 258.622 263.095 258.344C263.578 258.065 264.118 257.855 264.714 257.713C265.311 257.571 265.919 257.463 266.538 257.389C267.322 257.298 267.959 257.224 268.447 257.168C268.936 257.105 269.291 257.006 269.513 256.869C269.734 256.733 269.845 256.511 269.845 256.205V256.145C269.845 255.401 269.635 254.824 269.214 254.415C268.799 254.006 268.18 253.801 267.356 253.801C266.498 253.801 265.822 253.991 265.328 254.372C264.839 254.747 264.501 255.165 264.314 255.625L261.919 255.08C262.203 254.284 262.618 253.642 263.163 253.153C263.714 252.659 264.348 252.301 265.064 252.08C265.78 251.852 266.532 251.739 267.322 251.739C267.845 251.739 268.399 251.801 268.984 251.926C269.575 252.045 270.126 252.267 270.638 252.591C271.155 252.915 271.578 253.378 271.907 253.98C272.237 254.577 272.402 255.352 272.402 256.307V265H269.913V263.21H269.811C269.646 263.54 269.399 263.864 269.069 264.182C268.74 264.5 268.317 264.764 267.799 264.974C267.282 265.185 266.663 265.29 265.942 265.29ZM266.496 263.244C267.2 263.244 267.802 263.105 268.302 262.827C268.808 262.548 269.192 262.185 269.453 261.736C269.72 261.281 269.853 260.795 269.853 260.278V258.591C269.763 258.682 269.586 258.767 269.325 258.847C269.069 258.92 268.777 258.986 268.447 259.043C268.118 259.094 267.797 259.142 267.484 259.188C267.172 259.227 266.91 259.261 266.7 259.29C266.206 259.352 265.754 259.457 265.345 259.605C264.942 259.753 264.618 259.966 264.373 260.244C264.135 260.517 264.015 260.881 264.015 261.335C264.015 261.966 264.248 262.443 264.714 262.767C265.18 263.085 265.774 263.244 266.496 263.244ZM276.012 265V251.909H278.56V265H276.012ZM277.299 249.889C276.856 249.889 276.475 249.741 276.157 249.446C275.844 249.145 275.688 248.787 275.688 248.372C275.688 247.952 275.844 247.594 276.157 247.298C276.475 246.997 276.856 246.847 277.299 246.847C277.742 246.847 278.12 246.997 278.432 247.298C278.751 247.594 278.91 247.952 278.91 248.372C278.91 248.787 278.751 249.145 278.432 249.446C278.12 249.741 277.742 249.889 277.299 249.889ZM284.753 247.545V265H282.205V247.545H284.753ZM293.911 265.264C292.684 265.264 291.613 264.983 290.698 264.42C289.783 263.858 289.073 263.071 288.568 262.06C288.062 261.048 287.809 259.866 287.809 258.514C287.809 257.156 288.062 255.969 288.568 254.952C289.073 253.935 289.783 253.145 290.698 252.582C291.613 252.02 292.684 251.739 293.911 251.739C295.139 251.739 296.21 252.02 297.124 252.582C298.039 253.145 298.749 253.935 299.255 254.952C299.761 255.969 300.014 257.156 300.014 258.514C300.014 259.866 299.761 261.048 299.255 262.06C298.749 263.071 298.039 263.858 297.124 264.42C296.21 264.983 295.139 265.264 293.911 265.264ZM293.92 263.125C294.715 263.125 295.374 262.915 295.897 262.494C296.42 262.074 296.806 261.514 297.056 260.815C297.312 260.116 297.44 259.347 297.44 258.506C297.44 257.67 297.312 256.903 297.056 256.205C296.806 255.5 296.42 254.935 295.897 254.509C295.374 254.082 294.715 253.869 293.92 253.869C293.119 253.869 292.454 254.082 291.925 254.509C291.403 254.935 291.014 255.5 290.758 256.205C290.508 256.903 290.383 257.67 290.383 258.506C290.383 259.347 290.508 260.116 290.758 260.815C291.014 261.514 291.403 262.074 291.925 262.494C292.454 262.915 293.119 263.125 293.92 263.125ZM303.074 265V251.909H305.537V253.989H305.673C305.912 253.284 306.333 252.73 306.935 252.327C307.543 251.918 308.23 251.713 308.997 251.713C309.156 251.713 309.344 251.719 309.56 251.73C309.781 251.741 309.955 251.756 310.08 251.773V254.21C309.977 254.182 309.796 254.151 309.534 254.116C309.273 254.077 309.011 254.057 308.75 254.057C308.148 254.057 307.611 254.185 307.139 254.44C306.673 254.69 306.304 255.04 306.031 255.489C305.759 255.932 305.622 256.437 305.622 257.006V265H303.074ZM317.674 265.264C316.384 265.264 315.274 264.989 314.342 264.438C313.416 263.881 312.7 263.099 312.194 262.094C311.694 261.082 311.444 259.898 311.444 258.54C311.444 257.199 311.694 256.017 312.194 254.994C312.7 253.972 313.404 253.173 314.308 252.599C315.217 252.026 316.279 251.739 317.495 251.739C318.234 251.739 318.95 251.861 319.643 252.105C320.336 252.349 320.958 252.733 321.509 253.256C322.061 253.778 322.495 254.457 322.813 255.293C323.132 256.122 323.291 257.131 323.291 258.318V259.222H312.884V257.312H320.794C320.794 256.642 320.657 256.048 320.384 255.531C320.112 255.009 319.728 254.597 319.234 254.295C318.745 253.994 318.171 253.844 317.512 253.844C316.796 253.844 316.171 254.02 315.637 254.372C315.109 254.719 314.7 255.173 314.41 255.736C314.126 256.293 313.984 256.898 313.984 257.551V259.043C313.984 259.918 314.137 260.662 314.444 261.276C314.757 261.889 315.191 262.358 315.748 262.682C316.305 263 316.955 263.159 317.7 263.159C318.183 263.159 318.623 263.091 319.021 262.955C319.419 262.812 319.762 262.602 320.052 262.324C320.342 262.045 320.563 261.702 320.717 261.293L323.129 261.727C322.936 262.437 322.589 263.06 322.089 263.594C321.595 264.122 320.973 264.534 320.223 264.83C319.478 265.119 318.629 265.264 317.674 265.264ZM331.235 265.256C330.178 265.256 329.235 264.986 328.405 264.446C327.581 263.901 326.934 263.125 326.462 262.119C325.996 261.108 325.763 259.895 325.763 258.48C325.763 257.065 325.999 255.855 326.47 254.849C326.948 253.844 327.601 253.074 328.431 252.54C329.26 252.006 330.201 251.739 331.252 251.739C332.064 251.739 332.718 251.875 333.212 252.148C333.712 252.415 334.098 252.727 334.371 253.085C334.649 253.443 334.865 253.759 335.019 254.031H335.172V247.545H337.72V265H335.232V262.963H335.019C334.865 263.241 334.644 263.56 334.354 263.918C334.07 264.276 333.678 264.588 333.178 264.855C332.678 265.122 332.03 265.256 331.235 265.256ZM331.797 263.082C332.53 263.082 333.149 262.889 333.655 262.503C334.167 262.111 334.553 261.568 334.814 260.875C335.081 260.182 335.215 259.375 335.215 258.455C335.215 257.545 335.084 256.75 334.823 256.068C334.561 255.386 334.178 254.855 333.672 254.474C333.167 254.094 332.542 253.903 331.797 253.903C331.03 253.903 330.391 254.102 329.88 254.5C329.368 254.898 328.982 255.44 328.72 256.128C328.465 256.815 328.337 257.591 328.337 258.455C328.337 259.33 328.468 260.116 328.729 260.815C328.99 261.514 329.377 262.068 329.888 262.477C330.405 262.881 331.042 263.082 331.797 263.082ZM357.951 255.105L355.641 255.514C355.545 255.219 355.391 254.937 355.181 254.67C354.976 254.403 354.698 254.185 354.346 254.014C353.993 253.844 353.553 253.759 353.025 253.759C352.303 253.759 351.701 253.92 351.218 254.244C350.735 254.562 350.493 254.974 350.493 255.48C350.493 255.918 350.655 256.27 350.979 256.537C351.303 256.804 351.826 257.023 352.547 257.193L354.627 257.67C355.831 257.949 356.729 258.378 357.32 258.957C357.911 259.537 358.206 260.29 358.206 261.216C358.206 262 357.979 262.699 357.525 263.312C357.076 263.92 356.448 264.398 355.641 264.744C354.84 265.091 353.911 265.264 352.854 265.264C351.388 265.264 350.192 264.952 349.266 264.327C348.34 263.696 347.772 262.801 347.562 261.642L350.025 261.267C350.178 261.909 350.493 262.395 350.971 262.724C351.448 263.048 352.07 263.21 352.837 263.21C353.672 263.21 354.34 263.037 354.84 262.69C355.34 262.338 355.59 261.909 355.59 261.403C355.59 260.994 355.437 260.651 355.13 260.372C354.829 260.094 354.366 259.884 353.741 259.741L351.525 259.256C350.303 258.977 349.4 258.534 348.814 257.926C348.235 257.318 347.945 256.548 347.945 255.616C347.945 254.844 348.161 254.168 348.593 253.588C349.025 253.009 349.621 252.557 350.383 252.233C351.144 251.903 352.016 251.739 352.999 251.739C354.414 251.739 355.528 252.045 356.34 252.659C357.153 253.267 357.689 254.082 357.951 255.105ZM369.517 259.571V251.909H372.074V265H369.568V262.733H369.432C369.131 263.432 368.648 264.014 367.983 264.48C367.324 264.94 366.503 265.17 365.52 265.17C364.679 265.17 363.935 264.986 363.287 264.616C362.645 264.241 362.139 263.688 361.77 262.955C361.406 262.222 361.224 261.315 361.224 260.236V251.909H363.773V259.929C363.773 260.821 364.02 261.531 364.514 262.06C365.008 262.588 365.65 262.852 366.44 262.852C366.918 262.852 367.392 262.733 367.864 262.494C368.341 262.256 368.736 261.895 369.048 261.412C369.366 260.929 369.523 260.315 369.517 259.571ZM375.714 269.909V251.909H378.202V254.031H378.415C378.563 253.759 378.776 253.443 379.055 253.085C379.333 252.727 379.719 252.415 380.214 252.148C380.708 251.875 381.361 251.739 382.174 251.739C383.231 251.739 384.174 252.006 385.004 252.54C385.833 253.074 386.484 253.844 386.955 254.849C387.433 255.855 387.671 257.065 387.671 258.48C387.671 259.895 387.435 261.108 386.964 262.119C386.492 263.125 385.844 263.901 385.021 264.446C384.197 264.986 383.256 265.256 382.2 265.256C381.404 265.256 380.754 265.122 380.248 264.855C379.748 264.588 379.356 264.276 379.072 263.918C378.788 263.56 378.569 263.241 378.415 262.963H378.262V269.909H375.714ZM378.211 258.455C378.211 259.375 378.344 260.182 378.611 260.875C378.879 261.568 379.265 262.111 379.771 262.503C380.276 262.889 380.896 263.082 381.629 263.082C382.39 263.082 383.026 262.881 383.538 262.477C384.049 262.068 384.435 261.514 384.697 260.815C384.964 260.116 385.097 259.33 385.097 258.455C385.097 257.591 384.967 256.815 384.705 256.128C384.45 255.44 384.063 254.898 383.546 254.5C383.035 254.102 382.396 253.903 381.629 253.903C380.89 253.903 380.265 254.094 379.754 254.474C379.248 254.855 378.864 255.386 378.603 256.068C378.342 256.75 378.211 257.545 378.211 258.455ZM390.742 269.909V251.909H393.231V254.031H393.444C393.592 253.759 393.805 253.443 394.083 253.085C394.362 252.727 394.748 252.415 395.242 252.148C395.737 251.875 396.39 251.739 397.202 251.739C398.259 251.739 399.202 252.006 400.032 252.54C400.862 253.074 401.512 253.844 401.984 254.849C402.461 255.855 402.7 257.065 402.7 258.48C402.7 259.895 402.464 261.108 401.992 262.119C401.521 263.125 400.873 263.901 400.049 264.446C399.225 264.986 398.285 265.256 397.228 265.256C396.433 265.256 395.782 265.122 395.276 264.855C394.776 264.588 394.384 264.276 394.1 263.918C393.816 263.56 393.597 263.241 393.444 262.963H393.291V269.909H390.742ZM393.239 258.455C393.239 259.375 393.373 260.182 393.64 260.875C393.907 261.568 394.293 262.111 394.799 262.503C395.305 262.889 395.924 263.082 396.657 263.082C397.418 263.082 398.055 262.881 398.566 262.477C399.077 262.068 399.464 261.514 399.725 260.815C399.992 260.116 400.126 259.33 400.126 258.455C400.126 257.591 399.995 256.815 399.734 256.128C399.478 255.44 399.092 254.898 398.575 254.5C398.063 254.102 397.424 253.903 396.657 253.903C395.918 253.903 395.293 254.094 394.782 254.474C394.276 254.855 393.893 255.386 393.631 256.068C393.37 256.75 393.239 257.545 393.239 258.455ZM411.285 265.264C410.058 265.264 408.987 264.983 408.072 264.42C407.157 263.858 406.447 263.071 405.941 262.06C405.436 261.048 405.183 259.866 405.183 258.514C405.183 257.156 405.436 255.969 405.941 254.952C406.447 253.935 407.157 253.145 408.072 252.582C408.987 252.02 410.058 251.739 411.285 251.739C412.512 251.739 413.583 252.02 414.498 252.582C415.413 253.145 416.123 253.935 416.629 254.952C417.134 255.969 417.387 257.156 417.387 258.514C417.387 259.866 417.134 261.048 416.629 262.06C416.123 263.071 415.413 263.858 414.498 264.42C413.583 264.983 412.512 265.264 411.285 265.264ZM411.293 263.125C412.089 263.125 412.748 262.915 413.271 262.494C413.793 262.074 414.18 261.514 414.43 260.815C414.686 260.116 414.813 259.347 414.813 258.506C414.813 257.67 414.686 256.903 414.43 256.205C414.18 255.5 413.793 254.935 413.271 254.509C412.748 254.082 412.089 253.869 411.293 253.869C410.492 253.869 409.828 254.082 409.299 254.509C408.776 254.935 408.387 255.5 408.132 256.205C407.882 256.903 407.757 257.67 407.757 258.506C407.757 259.347 407.882 260.116 408.132 260.815C408.387 261.514 408.776 262.074 409.299 262.494C409.828 262.915 410.492 263.125 411.293 263.125ZM420.448 265V251.909H422.911V253.989H423.047C423.286 253.284 423.706 252.73 424.308 252.327C424.916 251.918 425.604 251.713 426.371 251.713C426.53 251.713 426.718 251.719 426.933 251.73C427.155 251.741 427.328 251.756 427.453 251.773V254.21C427.351 254.182 427.169 254.151 426.908 254.116C426.647 254.077 426.385 254.057 426.124 254.057C425.522 254.057 424.985 254.185 424.513 254.44C424.047 254.69 423.678 255.04 423.405 255.489C423.132 255.932 422.996 256.437 422.996 257.006V265H420.448ZM436.759 251.909V253.955H429.608V251.909H436.759ZM431.526 248.773H434.074V261.156C434.074 261.651 434.148 262.023 434.296 262.273C434.444 262.517 434.634 262.685 434.867 262.776C435.105 262.861 435.364 262.903 435.642 262.903C435.847 262.903 436.026 262.889 436.179 262.861C436.333 262.832 436.452 262.81 436.537 262.793L436.997 264.898C436.85 264.955 436.64 265.011 436.367 265.068C436.094 265.131 435.753 265.165 435.344 265.17C434.674 265.182 434.049 265.062 433.469 264.812C432.89 264.562 432.421 264.176 432.063 263.653C431.705 263.131 431.526 262.474 431.526 261.685V248.773ZM441.473 265.162C441.007 265.162 440.606 264.997 440.271 264.668C439.936 264.332 439.768 263.929 439.768 263.457C439.768 262.991 439.936 262.594 440.271 262.264C440.606 261.929 441.007 261.761 441.473 261.761C441.939 261.761 442.339 261.929 442.674 262.264C443.01 262.594 443.177 262.991 443.177 263.457C443.177 263.77 443.098 264.057 442.939 264.318C442.785 264.574 442.581 264.778 442.325 264.932C442.069 265.085 441.785 265.162 441.473 265.162Z" fill="#232323"/>
</svg>
