<svg width="158" height="157" viewBox="0 0 158 157" fill="none" xmlns="http://www.w3.org/2000/svg">
<g clip-path="url(#clip0_3101_11444)">
<path d="M83.4506 142.349C117.412 142.349 144.942 114.818 144.942 80.857C144.942 46.8961 117.412 19.3653 83.4506 19.3653C49.4897 19.3653 21.959 46.8961 21.959 80.857C21.959 114.818 49.4897 142.349 83.4506 142.349Z" fill="#F4F7F8"/>
<path fill-rule="evenodd" clip-rule="evenodd" d="M142.626 26.0488C143.999 22.5603 144.407 19.0782 145.004 15.433C145.12 14.7211 144.637 14.0515 143.925 13.9341C143.213 13.8168 142.541 14.3008 142.424 15.0127C141.858 18.4692 141.497 21.7822 140.193 25.096C139.929 25.7662 140.26 26.525 140.932 26.786C141.603 27.0512 142.362 26.7191 142.626 26.0488Z" fill="#303030"/>
<path fill-rule="evenodd" clip-rule="evenodd" d="M149.25 34.0588C156.025 29.3658 162.662 23.0504 167.596 16.4366C168.026 15.8588 167.906 15.0406 167.327 14.6124C166.748 14.1842 165.929 14.3023 165.498 14.8801C160.727 21.2747 154.308 27.3828 147.758 31.9173C147.165 32.3288 147.019 33.1419 147.431 33.7318C147.843 34.3217 148.658 34.4703 149.25 34.0588Z" fill="#303030"/>
<path fill-rule="evenodd" clip-rule="evenodd" d="M149.973 40.2699C155.373 41.9184 161.272 41.1313 166.587 39.6129C167.281 39.4122 167.682 38.6902 167.483 38.0018C167.284 37.3089 166.559 36.9094 165.866 37.1057C161.025 38.4905 155.655 39.2784 150.737 37.7777C150.047 37.5669 149.315 37.9554 149.105 38.6416C148.895 39.3277 149.284 40.0591 149.973 40.2699Z" fill="#303030"/>
<path d="M70.7004 28.3435C70.3623 26.9428 68.3698 26.9428 68.0317 28.3435L67.5937 30.1579C67.4729 30.6585 67.082 31.0494 66.5815 31.1702L64.7671 31.6082C63.3663 31.9463 63.3663 33.9387 64.7671 34.2769L66.5815 34.7149C67.082 34.8357 67.4729 35.2265 67.5937 35.7271L68.0317 37.5415C68.3698 38.9423 70.3623 38.9423 70.7004 37.5415L71.1384 35.7271C71.2592 35.2265 71.6501 34.8357 72.1506 34.7149L73.9651 34.2769C75.3658 33.9387 75.3658 31.9463 73.9651 31.6082L72.1506 31.1702C71.6501 31.0494 71.2592 30.6585 71.1384 30.1579L70.7004 28.3435Z" fill="#B592FF"/>
<circle cx="129.153" cy="124.734" r="3.92" fill="#B592FF"/>
<path d="M58.6548 75.096C59.5337 68.514 62.06 62.2624 65.9981 56.9246C69.9362 51.5868 75.1579 47.3366 81.1759 44.5706C87.1939 41.8046 93.8123 40.6128 100.413 41.1065C107.015 41.6001 113.384 43.7632 118.927 47.3937L134.028 42.2434C134.483 42.0928 134.972 42.0762 135.437 42.1956C135.902 42.315 136.322 42.5654 136.65 42.9172C136.977 43.269 137.197 43.7074 137.284 44.1807C137.371 44.654 137.32 45.1422 137.139 45.5878L131.083 60.0799C134.304 65.463 136.193 71.5417 136.591 77.8074C136.99 84.073 135.886 90.3433 133.373 96.0933C130.86 101.843 127.011 106.906 122.148 110.857C117.284 114.808 111.548 117.533 105.419 118.804C99.2905 120.074 92.9475 119.854 86.9212 118.16C80.8949 116.467 75.3607 113.35 70.7817 109.07C66.2027 104.79 62.7122 99.4725 60.6023 93.5616C58.4925 87.6508 57.8247 81.3189 58.6548 75.096Z" fill="#303030"/>
<path d="M32.8462 92.6637C33.7251 99.2458 36.2514 105.497 40.1895 110.835C44.1276 116.173 49.3493 120.423 55.3673 123.189C61.3853 125.955 68.0037 127.147 74.6049 126.653C81.2062 126.16 87.5752 123.997 93.1179 120.366L108.219 125.516C108.675 125.667 109.164 125.684 109.628 125.564C110.093 125.445 110.514 125.194 110.841 124.843C111.168 124.491 111.388 124.052 111.475 123.579C111.562 123.106 111.512 122.618 111.331 122.172L105.275 107.68C108.495 102.297 110.384 96.2181 110.783 89.9524C111.181 83.6868 110.078 77.4165 107.565 71.6665C105.052 65.9165 101.203 60.854 96.339 56.9028C91.4755 52.9516 85.7393 50.2266 79.6106 48.956C73.4819 47.6853 67.1389 47.906 61.1126 49.5995C55.0863 51.293 49.5521 54.41 44.9731 58.6897C40.3941 62.9694 36.9036 68.2873 34.7937 74.1981C32.6839 80.109 32.0161 86.4408 32.8462 92.6637Z" fill="#006B5F"/>
<path d="M58.1854 91.3708C60.7731 91.3708 62.8708 89.2731 62.8708 86.6854C62.8708 84.0977 60.7731 82 58.1854 82C55.5977 82 53.5 84.0977 53.5 86.6854C53.5 89.2731 55.5977 91.3708 58.1854 91.3708Z" fill="white"/>
<path d="M72.1854 91.3708C74.7731 91.3708 76.8708 89.2731 76.8708 86.6854C76.8708 84.0977 74.7731 82 72.1854 82C69.5977 82 67.5 84.0977 67.5 86.6854C67.5 89.2731 69.5977 91.3708 72.1854 91.3708Z" fill="white"/>
<path d="M86.2948 91.3708C88.8825 91.3708 90.9802 89.2731 90.9802 86.6854C90.9802 84.0977 88.8825 82 86.2948 82C83.7071 82 81.6094 84.0977 81.6094 86.6854C81.6094 89.2731 83.7071 91.3708 86.2948 91.3708Z" fill="white"/>
</g>
<defs>
<clipPath id="clip0_3101_11444">
<rect width="157" height="157" fill="white" transform="translate(0.5)"/>
</clipPath>
</defs>
</svg>
