<svg width="49" height="49" viewBox="0 0 49 49" fill="none" xmlns="http://www.w3.org/2000/svg">
<mask id="mask0_2907_68695" style="mask-type:alpha" maskUnits="userSpaceOnUse" x="0" y="0" width="49" height="49">
<rect width="49" height="49" fill="#D9D9D9"/>
</mask>
<g mask="url(#mask0_2907_68695)">
<path d="M12.25 44.9167V36.1375C10.3104 34.3681 8.80469 32.3009 7.73281 29.936C6.66094 27.571 6.125 25.0785 6.125 22.4584C6.125 17.3542 7.91146 13.0157 11.4844 9.44275C15.0573 5.86983 19.3958 4.08337 24.5 4.08337C28.7535 4.08337 32.5221 5.33389 35.8057 7.83494C39.0894 10.336 41.2247 13.5941 42.2115 17.6094L44.8656 28.073C45.0358 28.7195 44.9167 29.3065 44.5083 29.8339C44.1 30.3613 43.5556 30.625 42.875 30.625H38.7917V36.75C38.7917 37.873 38.3918 38.8342 37.5922 39.6339C36.7925 40.4335 35.8313 40.8334 34.7083 40.8334H30.625V44.9167H26.5417V36.75H34.7083V26.5417H40.2208L38.2812 18.6302C37.4986 15.5337 35.8313 13.0157 33.2792 11.0761C30.7271 9.1365 27.8007 8.16671 24.5 8.16671C20.5528 8.16671 17.184 9.54483 14.3938 12.3011C11.6035 15.0573 10.2083 18.4091 10.2083 22.3563C10.2083 24.398 10.6252 26.3375 11.4589 28.175C12.2925 30.0125 13.475 31.6459 15.0063 33.075L16.3333 34.3V44.9167H12.25ZM24.5 32.6667C25.0785 32.6667 25.5634 32.471 25.9547 32.0797C26.346 31.6884 26.5417 31.2035 26.5417 30.625C26.5417 30.0466 26.346 29.5617 25.9547 29.1704C25.5634 28.779 25.0785 28.5834 24.5 28.5834C23.9215 28.5834 23.4366 28.779 23.0453 29.1704C22.654 29.5617 22.4583 30.0466 22.4583 30.625C22.4583 31.2035 22.654 31.6884 23.0453 32.0797C23.4366 32.471 23.9215 32.6667 24.5 32.6667ZM22.9688 26.1334H26.0823C26.0823 25.2827 26.1929 24.5936 26.4141 24.0662C26.6352 23.5388 27.0861 22.9007 27.7667 22.1521C28.3792 21.4716 28.9747 20.7825 29.5531 20.0849C30.1316 19.3874 30.4208 18.4771 30.4208 17.3542C30.4208 15.925 29.8679 14.7171 28.762 13.7302C27.6561 12.7434 26.2865 12.25 24.6531 12.25C23.292 12.25 22.0585 12.6414 20.9526 13.424C19.8467 14.2066 19.0726 15.2275 18.6302 16.4865L21.4375 17.6605C21.6757 16.9118 22.0925 16.3079 22.688 15.8485C23.2835 15.3891 23.9385 15.1594 24.6531 15.1594C25.4017 15.1594 26.0227 15.3636 26.5161 15.7719C27.0096 16.1802 27.2563 16.7077 27.2563 17.3542C27.2563 18.0688 27.0436 18.7068 26.6182 19.2683C26.1929 19.8297 25.691 20.3997 25.1125 20.9782C24.4319 21.6927 23.9045 22.4073 23.5302 23.1219C23.1559 23.8365 22.9688 24.8403 22.9688 26.1334Z" fill="#006B5F"/>
</g>
</svg>
