<svg width="140" height="140" viewBox="0 0 140 140" fill="none" xmlns="http://www.w3.org/2000/svg">
<g id="Group 1000005681">
<circle id="Ellipse 3372" cx="69.8452" cy="69.6519" r="69.3726" fill="white"/>
<g id="lightbulb">
<mask id="mask0_398_4810" style="mask-type:alpha" maskUnits="userSpaceOnUse" x="21" y="21" width="96" height="96">
<rect id="Bounding box" x="21.4727" y="21.2793" width="95" height="95" fill="#D9D9D9"/>
</mask>
<g mask="url(#mask0_398_4810)">
<path id="lightbulb_2" d="M68.9727 106.688C66.973 106.688 65.2489 105.995 63.8001 104.61C62.3514 103.225 61.5636 101.532 61.437 99.5325H76.5083C76.3817 101.532 75.594 103.225 74.1452 104.61C72.6965 105.995 70.9723 106.688 68.9727 106.688ZM57.0977 94.0512C56.2552 94.0512 55.5499 93.7672 54.9819 93.1992C54.4132 92.6305 54.1289 91.9249 54.1289 91.0825C54.1289 90.24 54.4132 89.5347 54.9819 88.9667C55.5499 88.398 56.2552 88.1137 57.0977 88.1137H80.8477C81.6901 88.1137 82.3954 88.398 82.9634 88.9667C83.5321 89.5347 83.8164 90.24 83.8164 91.0825C83.8164 91.9249 83.5321 92.6305 82.9634 93.1992C82.3954 93.7672 81.6901 94.0512 80.8477 94.0512H57.0977ZM54.7375 82.6334C50.5918 80.0552 47.31 76.6867 44.8921 72.5278C42.4736 68.3695 41.2643 63.8214 41.2643 58.8834C41.2643 51.1699 43.954 44.6235 49.3334 39.2441C54.7128 33.8647 61.2592 31.175 68.9727 31.175C76.6861 31.175 83.2326 33.8647 88.6119 39.2441C93.9913 44.6235 96.681 51.1699 96.681 58.8834C96.681 63.8214 95.4717 68.3695 93.0532 72.5278C90.6353 76.6867 87.3535 80.0552 83.2078 82.6334H54.7375ZM56.5039 76.6959H81.4414C84.4102 74.5848 86.7027 71.9789 88.319 68.8782C89.9353 65.7775 90.7435 62.4459 90.7435 58.8834C90.7435 52.8139 88.6324 47.6681 84.4102 43.4459C80.1879 39.2237 75.0421 37.1125 68.9727 37.1125C62.9032 37.1125 57.7574 39.2237 53.5352 43.4459C49.3129 47.6681 47.2018 52.8139 47.2018 58.8834C47.2018 62.4459 48.01 65.7775 49.6263 68.8782C51.2426 71.9789 53.5352 74.5848 56.5039 76.6959Z" fill="#6F5EA5"/>
</g>
</g>
</g>
</svg>
