<svg width="60" height="60" viewBox="0 0 60 60" fill="none" xmlns="http://www.w3.org/2000/svg">
<g id="ri:device-recover-fill">
<path id="Vector" d="M47.5 5C48.163 5 48.7989 5.26339 49.2678 5.73223C49.7366 6.20107 50 6.83696 50 7.5V52.5C50 53.163 49.7366 53.7989 49.2678 54.2678C48.7989 54.7366 48.163 55 47.5 55H12.5C11.837 55 11.2011 54.7366 10.7322 54.2678C10.2634 53.7989 10 53.163 10 52.5V7.5C10 6.83696 10.2634 6.20107 10.7322 5.73223C11.2011 5.26339 11.837 5 12.5 5H47.5ZM30 17.5C28.2585 17.5019 26.5366 17.8677 24.9447 18.5738C23.3528 19.28 21.9261 20.3111 20.7559 21.6008C19.5857 22.8906 18.698 24.4107 18.1496 26.0635C17.6011 27.7164 17.4042 29.4657 17.5712 31.1992C17.7383 32.9326 18.2657 34.612 19.1197 36.1298C19.9737 37.6475 21.1354 38.97 22.5304 40.0126C23.9253 41.0551 25.5227 41.7947 27.2202 42.1839C28.9177 42.5731 30.6777 42.6032 32.3875 42.2725L30 37.5C28.0109 37.5 26.1032 36.7098 24.6967 35.3033C23.2902 33.8968 22.5 31.9891 22.5 30C22.5 28.0109 23.2902 26.1032 24.6967 24.6967C26.1032 23.2902 28.0109 22.5 30 22.5C33.995 22.5 37.5 25.85 37.5 30H31.25L36.57 40.635C38.8842 39.2057 40.669 37.0605 41.6537 34.5249C42.6383 31.9893 42.769 29.2018 42.0259 26.5852C41.2828 23.9686 39.7066 21.6659 37.5363 20.0262C35.3659 18.3866 32.72 17.4997 30 17.5Z" fill="#6F5EA5"/>
</g>
</svg>
