<svg width="60" height="60" viewBox="0 0 60 60" fill="none" xmlns="http://www.w3.org/2000/svg">
<g id="ri:psychotherapy-fill">
<path id="Vector" d="M27.5 5C32.3567 4.99925 37.0477 6.76576 40.6976 9.96984C44.3474 13.1739 46.7067 17.5966 47.335 22.4125L52.96 31.26C53.33 31.8425 53.255 32.71 52.3975 33.08L47.5 35.175V42.5C47.5 43.8261 46.9732 45.0979 46.0355 46.0355C45.0979 46.9732 43.8261 47.5 42.5 47.5H37.5025L37.5 55H15V45.765C15 42.815 13.91 40.0225 11.8875 37.5025C9.53176 34.5611 8.05495 31.0141 7.62724 27.27C7.19952 23.5259 7.8383 19.7372 9.46998 16.3403C11.1017 12.9434 13.6598 10.0766 16.8498 8.07029C20.0397 6.06393 23.7316 4.99962 27.5 5ZM27.5 17.5C26.837 17.5 26.2011 17.7634 25.7322 18.2322C25.2634 18.7011 25 19.337 25 20V22.4975L22.5 22.5C21.837 22.5 21.2011 22.7634 20.7322 23.2322C20.2634 23.7011 20 24.337 20 25C20 25.663 20.2634 26.2989 20.7322 26.7678C21.2011 27.2366 21.837 27.5 22.5 27.5L25 27.4975V30C25 30.663 25.2634 31.2989 25.7322 31.7678C26.2011 32.2366 26.837 32.5 27.5 32.5C28.163 32.5 28.7989 32.2366 29.2678 31.7678C29.7366 31.2989 30 30.663 30 30V27.5H32.5C33.163 27.5 33.7989 27.2366 34.2678 26.7678C34.7366 26.2989 35 25.663 35 25C35 24.337 34.7366 23.7011 34.2678 23.2322C33.7989 22.7634 33.163 22.5 32.5 22.5H30V20C30 19.337 29.7366 18.7011 29.2678 18.2322C28.7989 17.7634 28.163 17.5 27.5 17.5Z" fill="#6F5EA5"/>
</g>
</svg>
