<svg width="60" height="60" viewBox="0 0 60 60" fill="none" xmlns="http://www.w3.org/2000/svg">
<g id="ri:psychotherapy-fill">
<path id="Vector" d="M27.4999 5C32.3566 4.99925 37.0477 6.76576 40.6975 9.96984C44.3474 13.1739 46.7066 17.5966 47.3349 22.4125L52.9599 31.26C53.3299 31.8425 53.2549 32.71 52.3974 33.08L47.4999 35.175V42.5C47.4999 43.8261 46.9732 45.0979 46.0355 46.0355C45.0978 46.9732 43.826 47.5 42.4999 47.5H37.5024L37.4999 55H14.9999V45.765C14.9999 42.815 13.9099 40.0225 11.8874 37.5025C9.5317 34.5611 8.05489 31.0141 7.62718 27.27C7.19946 23.5259 7.83824 19.7372 9.46992 16.3403C11.1016 12.9434 13.6598 10.0766 16.8497 8.07029C20.0396 6.06393 23.7315 4.99962 27.4999 5ZM27.4999 17.5C26.8369 17.5 26.201 17.7634 25.7322 18.2322C25.2633 18.7011 24.9999 19.337 24.9999 20V22.4975L22.4999 22.5C21.8369 22.5 21.201 22.7634 20.7322 23.2322C20.2633 23.7011 19.9999 24.337 19.9999 25C19.9999 25.663 20.2633 26.2989 20.7322 26.7678C21.201 27.2366 21.8369 27.5 22.4999 27.5L24.9999 27.4975V30C24.9999 30.663 25.2633 31.2989 25.7322 31.7678C26.201 32.2366 26.8369 32.5 27.4999 32.5C28.163 32.5 28.7989 32.2366 29.2677 31.7678C29.7365 31.2989 29.9999 30.663 29.9999 30V27.5H32.4999C33.163 27.5 33.7989 27.2366 34.2677 26.7678C34.7365 26.2989 34.9999 25.663 34.9999 25C34.9999 24.337 34.7365 23.7011 34.2677 23.2322C33.7989 22.7634 33.163 22.5 32.4999 22.5H29.9999V20C29.9999 19.337 29.7365 18.7011 29.2677 18.2322C28.7989 17.7634 28.163 17.5 27.4999 17.5Z" fill="#6F5EA5"/>
</g>
</svg>
