<svg width="60" height="60" viewBox="0 0 60 60" fill="none" xmlns="http://www.w3.org/2000/svg">
<g id="ion:analytics">
<path id="Vector" d="M53.4375 15C52.6743 15.0002 51.9227 15.1867 51.248 15.5434C50.5733 15.9001 49.9958 16.4162 49.5659 17.0467C49.1359 17.6773 48.8664 18.4033 48.7808 19.1617C48.6952 19.9201 48.7961 20.6879 49.0746 21.3984L39.211 31.2621C38.1114 30.8293 36.8886 30.8293 35.7891 31.2621L28.7379 24.2109C29.0171 23.5002 29.1185 22.7321 29.0332 21.9733C28.9479 21.2145 28.6785 20.488 28.2485 19.857C27.8184 19.226 27.2408 18.7097 26.5657 18.3528C25.8906 17.996 25.1386 17.8094 24.375 17.8094C23.6114 17.8094 22.8594 17.996 22.1843 18.3528C21.5093 18.7097 20.9316 19.226 20.5016 19.857C20.0715 20.488 19.8022 21.2145 19.7169 21.9733C19.6316 22.7321 19.7329 23.5002 20.0121 24.2109L8.27346 35.9496C7.27095 35.5563 6.1636 35.5203 5.13761 35.8474C4.11162 36.1746 3.22956 36.845 2.63975 37.746C2.04993 38.647 1.78834 39.7236 1.89894 40.7948C2.00955 41.866 2.48562 42.8665 3.24709 43.6279C4.00856 44.3894 5.00901 44.8655 6.0802 44.9761C7.15139 45.0867 8.228 44.8251 9.129 44.2353C10.03 43.6455 10.7005 42.7634 11.0276 41.7374C11.3548 40.7114 11.3187 39.6041 10.9254 38.6016L22.6641 26.8629C23.7636 27.2957 24.9864 27.2957 26.086 26.8629L33.1371 33.9141C32.8579 34.6248 32.7566 35.3929 32.8419 36.1517C32.9272 36.9105 33.1965 37.637 33.6266 38.268C34.0566 38.899 34.6343 39.4153 35.3093 39.7722C35.9844 40.129 36.7364 40.3156 37.5 40.3156C38.2636 40.3156 39.0156 40.129 39.6907 39.7722C40.3658 39.4153 40.9434 38.899 41.3735 38.268C41.8035 37.637 42.0729 36.9105 42.1582 36.1517C42.2435 35.3929 42.1421 34.6248 41.8629 33.9141L51.7266 24.0504C52.3684 24.3026 53.058 24.41 53.7462 24.365C54.4343 24.3201 55.1041 24.1238 55.7077 23.7903C56.3113 23.4568 56.8338 22.9942 57.2381 22.4355C57.6424 21.8768 57.9184 21.2358 58.0465 20.5582C58.1746 19.8806 58.1516 19.1831 57.9792 18.5154C57.8067 17.8477 57.4891 17.2263 57.0489 16.6954C56.6087 16.1646 56.0568 15.7374 55.4326 15.4443C54.8083 15.1513 54.1271 14.9995 53.4375 15Z" fill="#6F5EA5"/>
</g>
</svg>
