<svg width="60" height="60" viewBox="0 0 60 60" fill="none" xmlns="http://www.w3.org/2000/svg">
<g id="mdi:tools">
<path id="Vector" d="M54.275 50.725L50.725 54.275C50.2566 54.7406 49.623 55.002 48.9625 55.002C48.302 55.002 47.6684 54.7406 47.2 54.275L17.5 24.625C16.6871 24.8608 15.8463 24.9869 15 25C13.4083 24.9989 11.8398 24.6178 10.425 23.8884C9.01017 23.159 7.78991 22.1025 6.86565 20.8066C5.9414 19.5107 5.33985 18.0128 5.11101 16.4376C4.88218 14.8624 5.03268 13.2553 5.55 11.75L11.9 18.1L13.225 16.775L16.775 13.225L18.1 11.9L11.75 5.55C13.2553 5.03268 14.8624 4.88218 16.4376 5.11102C18.0128 5.33985 19.5107 5.9414 20.8066 6.86566C22.1025 7.78991 23.159 9.01017 23.8884 10.425C24.6178 11.8398 24.9989 13.4083 25 15C24.9869 15.8463 24.8608 16.6871 24.625 17.5L54.275 47.2C54.7406 47.6684 55.002 48.302 55.002 48.9625C55.002 49.623 54.7406 50.2566 54.275 50.725ZM5.725 47.2C5.25937 47.6684 4.99802 48.302 4.99802 48.9625C4.99802 49.623 5.25937 50.2566 5.725 50.725L9.275 54.275C9.7434 54.7406 10.377 55.002 11.0375 55.002C11.698 55.002 12.3316 54.7406 12.8 54.275L26.475 40.625L19.4 33.55M50 5L40 10V15L34.575 20.425L39.575 25.425L45 20H50L55 10L50 5Z" fill="#6F5EA5"/>
</g>
</svg>
