<svg width="60" height="60" viewBox="0 0 60 60" fill="none" xmlns="http://www.w3.org/2000/svg">
<g id="ix:customer-filled">
<path id="Vector" fill-rule="evenodd" clip-rule="evenodd" d="M36.2501 13.7499C36.2501 8.91746 32.3325 5 27.5001 5L27.0199 5.01289C22.4107 5.26215 18.75 9.07859 18.75 13.7499C18.75 18.5825 22.6676 22.5 27.5001 22.5L27.9802 22.487C32.5894 22.2378 36.2501 18.4214 36.2501 13.7499ZM30 42.5C30 45.2321 30.7304 47.7937 32.0067 50H10.0001V41C10.0001 33.7305 15.5862 27.803 22.584 27.5113L23.125 27.5H31.875C34.1524 27.5 36.2944 28.0966 38.1612 29.1461C33.3156 31.6327 30 36.6792 30 42.5ZM37.6527 52.6127L45 48.125L52.3473 52.6127L50.3497 44.2381L56.8882 38.6373L48.3063 37.9493L45 30L41.6937 37.9493L33.1118 38.6373L39.6503 44.2381L37.6527 52.6127Z" fill="#6F5EA5"/>
</g>
</svg>
