<svg width="60" height="60" viewBox="0 0 60 60" fill="none" xmlns="http://www.w3.org/2000/svg">
<g id="material-symbols:mood">
<path id="Vector" d="M38.75 27.5C39.7917 27.5 40.6775 27.1358 41.4075 26.4075C42.1375 25.6792 42.5017 24.7933 42.5 23.75C42.4983 22.7067 42.1342 21.8217 41.4075 21.095C40.6808 20.3683 39.795 20.0033 38.75 20C37.705 19.9967 36.82 20.3617 36.095 21.095C35.37 21.8283 35.005 22.7133 35 23.75C34.995 24.7867 35.36 25.6725 36.095 26.4075C36.83 27.1425 37.715 27.5067 38.75 27.5ZM21.25 27.5C22.2917 27.5 23.1775 27.1358 23.9075 26.4075C24.6375 25.6792 25.0017 24.7933 25 23.75C24.9983 22.7067 24.6342 21.8217 23.9075 21.095C23.1808 20.3683 22.295 20.0033 21.25 20C20.205 19.9967 19.32 20.3617 18.595 21.095C17.87 21.8283 17.505 22.7133 17.5 23.75C17.495 24.7867 17.86 25.6725 18.595 26.4075C19.33 27.1425 20.215 27.5067 21.25 27.5ZM30 43.75C32.8333 43.75 35.4067 42.9483 37.72 41.345C40.0333 39.7417 41.71 37.6267 42.75 35H17.25C18.2917 37.625 19.9692 39.74 22.2825 41.345C24.5958 42.95 27.1683 43.7517 30 43.75ZM30 55C26.5417 55 23.2917 54.3433 20.25 53.03C17.2083 51.7167 14.5625 49.9358 12.3125 47.6875C10.0625 45.4392 8.28167 42.7933 6.97 39.75C5.65834 36.7067 5.00167 33.4567 5 30C4.99834 26.5433 5.655 23.2933 6.97 20.25C8.285 17.2067 10.0658 14.5608 12.3125 12.3125C14.5592 10.0642 17.205 8.28333 20.25 6.97C23.295 5.65667 26.545 5 30 5C33.455 5 36.705 5.65667 39.75 6.97C42.795 8.28333 45.4408 10.0642 47.6875 12.3125C49.9342 14.5608 51.7158 17.2067 53.0325 20.25C54.3492 23.2933 55.005 26.5433 55 30C54.995 33.4567 54.3383 36.7067 53.03 39.75C51.7217 42.7933 49.9408 45.4392 47.6875 47.6875C45.4342 49.9358 42.7883 51.7175 39.75 53.0325C36.7117 54.3475 33.4617 55.0033 30 55Z" fill="#6F5EA5"/>
</g>
</svg>
