<svg width="60" height="60" viewBox="0 0 60 60" fill="none" xmlns="http://www.w3.org/2000/svg">
<g id="material-symbols:work">
<path id="Vector" d="M10 52.5C8.625 52.5 7.44833 52.0108 6.47 51.0325C5.49167 50.0542 5.00167 48.8767 5 47.5V20C5 18.625 5.49 17.4483 6.47 16.47C7.45 15.4917 8.62667 15.0017 10 15H20V10C20 8.625 20.49 7.44833 21.47 6.47C22.45 5.49167 23.6267 5.00167 25 5H35C36.375 5 37.5525 5.49 38.5325 6.47C39.5125 7.45 40.0017 8.62667 40 10V15H50C51.375 15 52.5525 15.49 53.5325 16.47C54.5125 17.45 55.0017 18.6267 55 20V47.5C55 48.875 54.5108 50.0525 53.5325 51.0325C52.5542 52.0125 51.3767 52.5017 50 52.5H10ZM25 15H35V10H25V15Z" fill="#6F5EA5"/>
</g>
</svg>
