<svg width="60" height="60" viewBox="0 0 60 60" fill="none" xmlns="http://www.w3.org/2000/svg">
<g id="eos-icons:self-healing">
<path id="Vector" d="M7.62 29.4225C7.62647 26.5752 8.22602 23.7604 9.38043 21.1576C10.5348 18.5548 12.2188 16.221 14.325 14.305L20.4175 20.425V5H5L10.69 10.655C7.07779 14.0141 4.50955 18.3425 3.29238 23.1226C2.07522 27.9028 2.26066 32.9324 3.82652 37.6099C5.39238 42.2874 8.27239 46.415 12.1222 49.4989C15.9719 52.5829 20.6285 54.4927 25.535 55V49.8075C20.5816 49.1671 16.031 46.7446 12.7339 42.9929C9.43679 39.2412 7.61887 34.4171 7.62 29.4225ZM57.5 30.7075C57.5166 24.3332 55.1718 18.1786 50.918 13.4313C46.6642 8.68398 40.8029 5.68036 34.465 5V10.1925C39.4297 10.8612 43.9828 13.3099 47.2779 17.0832C50.5731 20.8565 52.3861 25.6979 52.38 30.7075C52.3755 33.5361 51.7762 36.3322 50.6211 38.9142C49.466 41.4962 47.7808 43.8065 45.675 45.695L39.465 39.575V55H54.94L49.31 49.345C51.8915 46.975 53.9524 44.0946 55.3623 40.8863C56.7721 37.6781 57.5001 34.2119 57.5 30.7075Z" fill="#6F5EA5"/>
<path id="Vector_2" d="M30.725 40L29.3825 38.775C24.6075 34.4451 21.4525 31.5875 21.4525 28.0825C21.4458 27.4109 21.5732 26.7448 21.8271 26.123C22.081 25.5012 22.4564 24.9363 22.9314 24.4614C23.4063 23.9865 23.9712 23.6111 24.5929 23.3572C25.2147 23.1032 25.8809 22.9759 26.5525 22.9825C27.3465 22.9881 28.1301 23.1639 28.8503 23.4981C29.5706 23.8323 30.2107 24.3172 30.7275 24.9201C31.244 24.3176 31.8838 23.8329 32.6036 23.4986C33.3233 23.1644 34.1064 22.9884 34.9 22.9825C35.5716 22.9759 36.2378 23.1032 36.8596 23.3572C37.4813 23.6111 38.0462 23.9865 38.5211 24.4614C38.9961 24.9363 39.3715 25.5012 39.6254 26.123C39.8793 26.7448 40.0067 27.4109 40 28.0825C40 31.5875 36.8475 34.445 32.07 38.785L30.725 40Z" fill="#6F5EA5"/>
</g>
</svg>
