<svg width="60" height="60" viewBox="0 0 60 60" fill="none" xmlns="http://www.w3.org/2000/svg">
<g id="fluent-mdl2:party-leader">
<path id="Vector" d="M34.2188 27.7148C34.9609 28.0078 35.6836 28.3301 36.3867 28.6816C37.0898 29.0332 37.7734 29.4336 38.4375 29.8828C38.0078 30.3516 37.6172 30.8398 37.2656 31.3477C36.9141 31.8555 36.5918 32.4023 36.2988 32.9883C34.7949 32.0117 33.1934 31.2695 31.4941 30.7617C29.7949 30.2539 28.0469 30 26.25 30C24.5312 30 22.8711 30.2246 21.2695 30.6738C19.668 31.123 18.1738 31.748 16.7871 32.5488C15.4004 33.3496 14.1406 34.3262 13.0078 35.4785C11.875 36.6309 10.8984 37.9004 10.0781 39.2871C9.25781 40.6738 8.62305 42.168 8.17383 43.7695C7.72461 45.3711 7.5 47.0312 7.5 48.75H3.75C3.75 46.4062 4.0918 44.1504 4.77539 41.9824C5.45898 39.8145 6.44531 37.8125 7.73438 35.9766C9.02344 34.1406 10.5469 32.5098 12.3047 31.084C14.0625 29.6582 16.0547 28.5352 18.2812 27.7148C16.0742 26.2695 14.3555 24.4531 13.125 22.2656C11.8945 20.0781 11.2695 17.6562 11.25 15C11.25 12.9297 11.6406 10.9863 12.4219 9.16992C13.2031 7.35352 14.2676 5.76172 15.6152 4.39453C16.9629 3.02734 18.5547 1.95312 20.3906 1.17188C22.2266 0.390625 24.1797 0 26.25 0C28.3203 0 30.2637 0.390625 32.0801 1.17188C33.8965 1.95312 35.4883 3.01758 36.8555 4.36523C38.2227 5.71289 39.2969 7.30469 40.0781 9.14062C40.8594 10.9766 41.25 12.9297 41.25 15C41.25 16.2891 41.0938 17.5488 40.7812 18.7793C40.4688 20.0098 40 21.1719 39.375 22.2656C38.75 23.3594 38.0176 24.3652 37.1777 25.2832C36.3379 26.2012 35.3516 27.0117 34.2188 27.7148ZM15 15C15 16.5625 15.293 18.0176 15.8789 19.3652C16.4648 20.7129 17.2656 21.9043 18.2812 22.9395C19.2969 23.9746 20.4883 24.7852 21.8555 25.3711C23.2227 25.957 24.6875 26.25 26.25 26.25C27.793 26.25 29.248 25.957 30.6152 25.3711C31.9824 24.7852 33.1738 23.9844 34.1895 22.9688C35.2051 21.9531 36.0156 20.7617 36.6211 19.3945C37.2266 18.0273 37.5195 16.5625 37.5 15C37.5 13.457 37.207 12.002 36.6211 10.6348C36.0352 9.26758 35.2344 8.07617 34.2188 7.06055C33.2031 6.04492 32.002 5.23438 30.6152 4.62891C29.2285 4.02344 27.7734 3.73047 26.25 3.75C24.6875 3.75 23.2324 4.04297 21.8848 4.62891C20.5371 5.21484 19.3457 6.01562 18.3105 7.03125C17.2754 8.04688 16.4648 9.24805 15.8789 10.6348C15.293 12.0215 15 13.4766 15 15ZM58.125 39.375C58.125 40.3906 57.9688 41.377 57.6562 42.334C57.3438 43.291 56.875 44.1797 56.25 45V60L48.75 56.25L41.25 60V45C40.6445 44.1797 40.1855 43.291 39.873 42.334C39.5605 41.377 39.3945 40.3906 39.375 39.375C39.375 38.0859 39.6191 36.875 40.1074 35.7422C40.5957 34.6094 41.2598 33.623 42.0996 32.7832C42.9395 31.9434 43.9355 31.2695 45.0879 30.7617C46.2402 30.2539 47.4609 30 48.75 30C50.0391 30 51.25 30.2441 52.3828 30.7324C53.5156 31.2207 54.502 31.8945 55.3418 32.7539C56.1816 33.6133 56.8555 34.6094 57.3633 35.7422C57.8711 36.875 58.125 38.0859 58.125 39.375ZM48.75 33.75C47.9688 33.75 47.2363 33.8965 46.5527 34.1895C45.8691 34.4824 45.2734 34.8828 44.7656 35.3906C44.2578 35.8984 43.8574 36.4941 43.5645 37.1777C43.2715 37.8613 43.125 38.5938 43.125 39.375C43.125 40.1562 43.2715 40.8887 43.5645 41.5723C43.8574 42.2559 44.2578 42.8516 44.7656 43.3594C45.2734 43.8672 45.8691 44.2676 46.5527 44.5605C47.2363 44.8535 47.9688 45 48.75 45C49.5312 45 50.2637 44.8535 50.9473 44.5605C51.6309 44.2676 52.2266 43.8672 52.7344 43.3594C53.2422 42.8516 53.6426 42.2559 53.9355 41.5723C54.2285 40.8887 54.375 40.1562 54.375 39.375C54.375 38.5938 54.2285 37.8613 53.9355 37.1777C53.6426 36.4941 53.2422 35.8984 52.7344 35.3906C52.2266 34.8828 51.6309 34.4824 50.9473 34.1895C50.2637 33.8965 49.5312 33.75 48.75 33.75ZM52.5 53.9355V47.959C51.3281 48.4863 50.0781 48.75 48.75 48.75C47.4219 48.75 46.1719 48.4863 45 47.959V53.9355C45.625 53.623 46.25 53.3203 46.875 53.0273C47.5 52.7344 48.125 52.4121 48.75 52.0605C49.375 52.3926 50 52.7051 50.625 52.998C51.25 53.291 51.875 53.6035 52.5 53.9355Z" fill="#6F5EA5"/>
</g>
</svg>
